<svg xmlns="http://www.w3.org/2000/svg" viewBox="0 0 539.8 445.8"><path fill="#FFF" d="M19.1 62.7h181.8L109.5 2.4M80.1 199.6H1.7v-10h211.6v10H80.1"/><path fill="#B2B2B2" d="M214.3 200.6H.7v-12.1h213.5v12.1zm-211.6-2h209.5v-8.1H2.7v8.1z"/><path fill="#E0E0E0" d="M78.8 200.6c-1.1 8.3-1.6 16.7-1.6 25.2 0 28.8 6.1 56.5 18.2 82.4l1.8-.8c-11.9-25.6-18-53.1-18-81.6 0-8.4.6-16.9 1.6-25.2h-2z"/><path fill="#FFF" d="M2.7 190.6h209.5v8.1H2.7zM7.8 63.7h203.5v16.1H7.8z"/><path fill="#B2B2B2" d="M212.3 80.8H6.8V62.7h205.5v18.1zm-203.5-2h201.5V64.7H8.8v14.1z"/><path fill="#FFF" d="M185.8 51.5l18.4 12.2H15.8l93.7-62.5 76.3 50.3"/><path fill="#B2B2B2" d="M207.5 64.7h-195l97-64.7 98 64.7zm-188.4-2h181.7L109.5 2.4 19.1 62.7zM41 190.6H11.8v-10.1h4V88.8h-4v-10H41v10.1h-5v91.7h5v10zm-27.2-2H39v-6.1h-5V86.8h5v-6.1H13.8v6.1h4v95.7h-4v6.1z"/><path fill="#FFF" d="M89.4 87.8v93.7h4.7v8.1H66.9v-8.1h4.3V87.8h-4.3v-8h27.2v8"/><path fill="#B2B2B2" d="M95.1 190.6H65.9v-10.1h4.4V88.8h-4.4v-10h29.2v10.1h-4.7v91.7h4.7v10zm-27.2-2h25.2v-6.1h-4.7V86.8h4.7v-6.1H67.9v6.1h4.4v95.7h-4.4v6.1z"/><path fill="#FFF" d="M142.8 87.8v93.7h5.3v8.1h-27.2v-8.1h3.7V87.8h-3.7v-8h27.2v8"/><path fill="#B2B2B2" d="M149.1 190.6h-29.2v-10.1h3.7V88.8h-3.7v-10h29.2v10.1h-5.4v91.7h5.4v10zm-27.2-2h25.2v-6.1h-5.4V86.8h5.4v-6.1h-25.2v6.1h3.7v95.7h-3.7v6.1z"/><path fill="#FFF" d="M197.2 87.8v93.7h5v8.1H175v-8.1h4V87.8h-4v-8h27.2v8"/><path fill="#B2B2B2" d="M203.2 190.6H174v-10.1h4V88.8h-4v-10h29.2v10.1h-5v91.7h5v10zm-27.2-2h25.2v-6.1h-5V86.8h5v-6.1H176v6.1h4v95.7h-4v6.1z"/><g fill="#5BBC2E"><path d="M109.9 51.8c-4.5 0-9.8-2.5-10-9.5h2c.1 5.5 4.2 7.5 8 7.5 3.7 0 7.8-2 7.8-5.2.1-4.1-2.9-4.9-7.9-5.9-3.9-.8-8.3-1.6-9.1-5.9-.5-2.7.4-5.1 2.6-6.6 3.2-2.3 8.6-2.4 12.2-.3 2.6 1.5 3.8 3.9 3.5 6.8l-2-.2c.3-2.6-1.2-4.1-2.6-4.9-2.9-1.7-7.5-1.6-10 .2-1.6 1.1-2.2 2.7-1.8 4.6.5 2.8 3.2 3.5 7.5 4.3 4.3.8 9.6 1.9 9.5 7.9.1 4.5-4.9 7.2-9.7 7.2z"/><path d="M108.9 24h2v28.6h-2z"/></g><path fill="none" d="M350 321.6h22.3l13.2-3.7h-35.1c-1.2 0-2.4.6-3.1 1.6l-.3.6c-.1.3 0 .5.1.6.2.4 1.2.9 2.9.9z"/><path fill="#E0E0E0" d="M468.2 225.8c0-9.6-.7-19.3-2.1-28.8l-2 .3c1.4 9.4 2.1 19 2.1 28.5 0 25.6-4.9 50.5-14.6 73.9l2.4-.7c9.5-23.3 14.2-47.8 14.2-73.2z"/><path fill="#B2B2B2" d="M536.6 363v-40.5c0-.3-.1-.5-.3-.7s-.4-.3-.7-.3l-6.1.1h-5.4l-1-3.7h12.3c.5 0 1-.5 1-1s-.5-1-1-1h-12.9l-2.8-10c-1.1-4-5.1-6.6-9.2-5.9l-9.7 1.7-2.6-7c-1.2-3.2-4.3-5.4-7.7-5.4-.8 0-1.5.1-2.2.3L392.9 316h-40.8c-3.5 0-5.2.9-6.3 2.5-.6.9-1 2.1-1 3.2v117.9c0 3.4 2.8 6.2 6.2 6.2h179.5c3.4 0 6.2-2.8 6.2-6.2v-44.9c-.6.3-1.3.5-2 .5v44.4c0 2.3-1.9 4.2-4.2 4.2H350.9c-2.3 0-4.2-1.9-4.2-4.2V322.9c.9.4 2 .7 3.4.7h179.5l5.1-.1v38.9c.6.1 1.3.3 1.9.6zm-35.3-59.5l9.4-1.5c.3 0 .6-.1 1-.1 2.8 0 5.3 1.9 6 4.6l4.2 14.9H388.2l111.9-17.7 1.2-.2zm-12.6-12c.5-.2 1.1-.2 1.7-.2 2.6 0 5 1.7 5.9 4.1l2.4 6.5-111.4 17.7 101.4-28.1zM347 320.7c-.1-.1-.2-.3-.1-.6l.3-.6c.7-1 1.9-1.6 3.1-1.6h35.1l-13.2 3.7H350c-1.7 0-2.7-.5-3-.9z"/><path fill="#B2B2B2" d="M536.6 363c-.6-.3-1.3-.5-2-.5h-37.9c-3 0-5.5 2.5-5.5 5.5v21.8c0 3 2.5 5.5 5.5 5.5h37.9c.7 0 1.4-.2 2-.5 1.9-.9 3.2-2.8 3.2-5V368c0-2.3-1.3-4.2-3.2-5zm-39.9 30.2c-1.9 0-3.5-1.6-3.5-3.5v-21.8c0-1.9 1.6-3.5 3.5-3.5h37.8c.4 0 .8.1 1.2.3 1.3.6 2 1.8 2 3.1v21.8c0 1.3-.8 2.6-2 3.1-.4.2-.8.3-1.2.3h-37.8z"/><path fill="#F9F9F9" d="M521.9 321.4H388.2l111.9-17.7 1.2-.2 9.4-1.5c.3 0 .6-.1 1-.1 2.8 0 5.3 1.9 6 4.6l4.2 14.9z"/><path fill="none" d="M529.5 323.6H350c-1.4 0-2.5-.2-3.4-.7v116.7c0 2.3 1.9 4.2 4.2 4.2h179.5c2.3 0 4.2-1.9 4.2-4.2v-44.4h-37.9c-3 0-5.5-2.5-5.5-5.5v-21.8c0-3 2.5-5.5 5.5-5.5h37.9v-38.9l-5 .1z"/><path fill="none" d="M535.7 364.8c-.4-.2-.8-.3-1.2-.3h-37.8c-1.9 0-3.5 1.6-3.5 3.5v21.8c0 1.9 1.6 3.5 3.5 3.5h37.8c.4 0 .8-.1 1.2-.3 1.2-.6 2-1.8 2-3.1v-21.8c.1-1.5-.7-2.8-2-3.3z"/><path fill="#B2B2B2" d="M536.6 363c-.6-.3-1.3-.5-2-.5h-37.9c-3 0-5.5 2.5-5.5 5.5v21.8c0 3 2.5 5.5 5.5 5.5h37.9c.7 0 1.4-.2 2-.5 1.9-.9 3.2-2.8 3.2-5V368c0-2.3-1.3-4.2-3.2-5zm1.2 26.7c0 1.3-.8 2.6-2 3.1-.4.2-.8.3-1.2.3h-37.8c-1.9 0-3.5-1.6-3.5-3.5v-21.8c0-1.9 1.6-3.5 3.5-3.5h37.8c.4 0 .8.1 1.2.3 1.3.6 2 1.8 2 3.1v22z"/><path fill="#F9F9F9" d="M517.7 306.5c-.8-2.7-3.2-4.6-6-4.6-.3 0-.6 0-1 .1l-9.4 1.5-1.2.2-111.9 17.7h133.7l-4.2-14.9z"/><path fill="none" d="M350 321.6h22.3l13.2-3.7h-35.1c-1.2 0-2.4.6-3.1 1.6l-.3.6c-.1.3 0 .5.1.6.2.4 1.2.9 2.9.9zm146.2-26.2c-.9-2.5-3.3-4.1-5.9-4.1-.6 0-1.1.1-1.7.2l-101.5 28 111.4-17.7-2.3-6.4zm39.5 69.4c-.4-.2-.8-.3-1.2-.3h-37.8c-1.9 0-3.5 1.6-3.5 3.5v21.8c0 1.9 1.6 3.5 3.5 3.5h37.8c.4 0 .8-.1 1.2-.3 1.2-.6 2-1.8 2-3.1v-21.8c.1-1.5-.7-2.8-2-3.3z"/><path fill="#B2B2B2" d="M536.6 363c-.6-.3-1.3-.5-2-.5h-37.9c-3 0-5.5 2.5-5.5 5.5v21.8c0 3 2.5 5.5 5.5 5.5h37.9c.7 0 1.4-.2 2-.5 1.9-.9 3.2-2.8 3.2-5V368c0-2.3-1.3-4.2-3.2-5zm1.2 26.7c0 1.3-.8 2.6-2 3.1-.4.2-.8.3-1.2.3h-37.8c-1.9 0-3.5-1.6-3.5-3.5v-21.8c0-1.9 1.6-3.5 3.5-3.5h37.8c.4 0 .8.1 1.2.3 1.3.6 2 1.8 2 3.1v22z"/><path fill="#F9F9F9" d="M521.9 321.4l-4.2-14.9c-.8-2.7-3.2-4.6-6-4.6-.3 0-.6 0-1 .1l-9.4 1.5-1.2.2-111.9 17.7h133.7zm7.2-124.1H324.9c-3.3 0-6-2.7-6-6V63.1c0-3.3 2.7-6 6-6h204.3c3.3 0 6 2.7 6 6v128.2c-.1 3.3-2.8 6-6.1 6z"/><path fill="#B2B2B2" d="M529.1 198.3H324.9c-3.8 0-7-3.1-7-7V63.1c0-3.8 3.1-7 7-7h204.3c3.8 0 7 3.1 7 7v128.2c-.1 3.9-3.2 7-7.1 7zM324.9 58.1c-2.7 0-5 2.2-5 5v128.2c0 2.7 2.2 5 5 5h204.3c2.7 0 5-2.2 5-5V63.1c0-2.7-2.2-5-5-5H324.9z"/><path fill="#FFF" d="M318.9 82.2h216.2v19.7H318.9z"/><path fill="#B2B2B2" d="M536 103H317.9V81.2H536V103zm-216.1-2H534V83.2H319.9V101zm18.4 29.1h7.9c1.1 0 2.1.1 3.1.3.9.2 1.8.5 2.4 1 .7.5 1.1 1.2 1.5 2 .3.8.4 1.9.2 3.1-.2 1.2-.5 2.3-1 3.1-.5.8-1.2 1.5-1.9 2-.8.5-1.6.9-2.6 1.1-1 .2-2 .3-3.2.3h-3.4l-1.1 8.3h-4.7l2.8-21.2zm3.4 9h3.1c.4 0 .8 0 1.2-.1.4-.1.8-.2 1.1-.4s.6-.5.9-.8c.2-.3.4-.7.5-1.2.1-.5 0-1-.2-1.3-.2-.3-.5-.6-.9-.8-.4-.2-.8-.3-1.3-.3s-.9-.1-1.4-.1h-2.4l-.6 5zm20.2 10.4c-.7.8-1.4 1.3-2.3 1.7-.9.3-1.8.5-2.7.5-.7 0-1.3-.1-1.9-.3-.6-.2-1.1-.5-1.5-.9-.4-.4-.7-.8-.9-1.4-.2-.6-.2-1.2-.1-1.9.2-1.3.7-2.2 1.4-2.9.8-.7 1.7-1.2 2.7-1.5 1-.3 2.1-.5 3.3-.6 1.1-.1 2.2-.1 3.1-.1.1-.8-.1-1.4-.6-1.9s-1.1-.7-1.9-.7c-.7 0-1.4.2-2.1.5-.6.3-1.3.7-1.8 1.3l-2-2.5c.9-.8 2-1.4 3.2-1.8 1.2-.4 2.4-.6 3.6-.6 1.3 0 2.4.2 3.2.5s1.4.8 1.8 1.5c.4.6.7 1.4.7 2.4.1.9 0 2-.2 3.2l-1 7.4h-4.1l.1-1.9zm-.5-4.5h-1.3c-.5 0-1 .1-1.5.3-.5.1-.9.3-1.3.6s-.6.7-.6 1.2c0 .3 0 .5.1.7.1.2.2.4.4.5l.6.3s.5.1.7.1c.4 0 .9-.1 1.3-.2s.8-.3 1.2-.5.6-.5.9-.8c.2-.3.4-.7.5-1.2l.1-1h-1.1zm14.6 8.7c-.4.8-.8 1.5-1.1 2.1-.4.6-.8 1.1-1.3 1.5-.5.4-1.1.7-1.8.9s-1.6.3-2.7.3c-1.2 0-2.2-.2-3.3-.5l1.1-3.7c.6.3 1.3.5 2 .5.5 0 .9-.1 1.3-.2.3-.1.6-.3.9-.5.2-.2.5-.5.6-.8.2-.3.4-.7.6-1l.5-.8-4.3-14.7h4.9l2.4 9.6h.1l4.6-9.6h4.6l-9.1 16.9zm12.2-23.6h7.9c1.1 0 2.1.1 3.1.3.9.2 1.8.5 2.4 1 .7.5 1.1 1.2 1.5 2 .3.8.4 1.9.2 3.1-.2 1.2-.5 2.3-1 3.1-.5.8-1.2 1.5-1.9 2-.8.5-1.6.9-2.6 1.1-1 .2-2 .3-3.2.3h-3.4l-1.1 8.3h-4.7l2.8-21.2zm3.4 9h3.1c.4 0 .8 0 1.2-.1.4-.1.8-.2 1.1-.4s.6-.5.9-.8c.2-.3.4-.7.5-1.2.1-.5 0-1-.2-1.3-.2-.3-.5-.6-.9-.8-.4-.2-.8-.3-1.3-.3s-.9-.1-1.4-.1h-2.4l-.6 5zm20.2 10.4c-.7.8-1.4 1.3-2.3 1.7-.9.3-1.8.5-2.7.5-.7 0-1.3-.1-1.9-.3-.6-.2-1.1-.5-1.5-.9-.4-.4-.7-.8-.9-1.4-.2-.6-.2-1.2-.1-1.9.2-1.3.7-2.2 1.4-2.9.8-.7 1.7-1.2 2.7-1.5 1-.3 2.1-.5 3.3-.6 1.1-.1 2.2-.1 3.1-.1.1-.8-.1-1.4-.6-1.9s-1.1-.7-1.9-.7c-.7 0-1.4.2-2.1.5-.6.3-1.3.7-1.8 1.3l-2-2.5c.9-.8 2-1.4 3.2-1.8 1.2-.4 2.4-.6 3.6-.6 1.3 0 2.4.2 3.2.5s1.4.8 1.8 1.5c.4.6.7 1.4.7 2.4.1.9 0 2-.2 3.2l-1 7.4h-4.1l.1-1.9zm-.5-4.5H410c-.5 0-1 .1-1.5.3-.5.1-.9.3-1.3.6s-.6.7-.6 1.2c0 .3 0 .5.1.7.1.2.2.4.4.5l.6.3s.5.1.7.1c.4 0 .9-.1 1.3-.2s.8-.3 1.2-.5.6-.5.9-.8c.2-.3.4-.7.5-1.2l.1-1h-1.1zm10.4-16.3h4.5l-3.2 22.7h-4.5l3.2-22.7z"/><path fill="#F9F9F9" d="M396 139c.4-.1.8-.2 1.1-.4s.6-.5.9-.8c.2-.3.4-.7.5-1.2.1-.5 0-1-.2-1.3-.2-.3-.5-.6-.9-.8-.4-.2-.8-.3-1.3-.3s-.9-.1-1.4-.1h-2.4l-.7 5h3.1c.5 0 .9 0 1.3-.1zm-35.9 6c-.5 0-1 .1-1.5.3-.5.1-.9.3-1.3.6s-.6.7-.6 1.2c0 .3 0 .5.1.7.1.2.2.4.4.5l.6.3s.5.1.7.1c.4 0 .9-.1 1.3-.2s.8-.3 1.2-.5.6-.5.9-.8c.2-.3.4-.7.5-1.2l.1-1h-2.4zm49.9 0c-.5 0-1 .1-1.5.3-.5.1-.9.3-1.3.6s-.6.7-.6 1.2c0 .3 0 .5.1.7.1.2.2.4.4.5l.6.3s.5.1.7.1c.4 0 .9-.1 1.3-.2s.8-.3 1.2-.5.6-.5.9-.8c.2-.3.4-.7.5-1.2l.1-1H410zm124.1-81.9c0-2.7-2.2-5-5-5H324.9c-2.7 0-5 2.2-5 5v18.2h214.2V63.1zm-188 75.9c.4-.1.8-.2 1.1-.4s.6-.5.9-.8c.2-.3.4-.7.5-1.2.1-.5 0-1-.2-1.3-.2-.3-.5-.6-.9-.8-.4-.2-.8-.3-1.3-.3s-.9-.1-1.4-.1h-2.4l-.7 5h3.1c.5 0 .9 0 1.3-.1z"/><path fill="#FFF" d="M319.9 83.2h214.2v17.7H319.9z"/><path fill="#E0E0E0" d="M272.7 30.3c-30.4 0-59.6 6.8-86.7 20.2l1.9 1.3c26.5-12.9 55-19.5 84.7-19.5 32.6 0 64.7 8.2 93 23.8h4V56c-29.2-16.8-62.8-25.7-96.9-25.7zm0 389c-21.3 0-42.2-3.4-62.2-10.2v2.1c20 6.7 40.9 10.1 62.2 10.1 24.9 0 49-4.6 71.9-13.7v-2.2c-22.8 9.2-47 13.9-71.9 13.9z"/><path fill="#F9F9F9" d="M208.5 313.6c0-2.6-2.1-4.8-4.8-4.8H6.8c-2.6 0-4.8 2.1-4.8 4.8v30.6h206.5v-30.6zM2 437.2c0 2.6 2.1 4.8 4.8 4.8h197c2.6 0 4.8-2.1 4.8-4.8v-91H2v91zm146.1-74.3H199v16.4h-50.9v-16.4zM15.4 400.3h50.3c.6 0 1 .4 1 1s-.4 1-1 1H15.4c-.6 0-1-.4-1-1s.4-1 1-1zm0 15.8h106.4c.6 0 1 .4 1 1s-.4 1-1 1H15.4c-.6 0-1-.4-1-1s.4-1 1-1z"/><path fill="#B2B2B2" d="M210.5 313.6c0-3.7-3-6.8-6.8-6.8H6.8c-3.7 0-6.8 3-6.8 6.8v123.7c0 3.7 3 6.8 6.8 6.8h197c3.7 0 6.8-3 6.8-6.8V313.6zM1 345.2v-1h1v-30.6c0-2.6 2.1-4.8 4.8-4.8h197c2.6 0 4.8 2.1 4.8 4.8v30.6h.8v2h-.8v91c0 2.6-2.1 4.8-4.8 4.8H6.8c-2.6 0-4.8-2.1-4.8-4.8v-91H1v-1z"/><path fill="#B2B2B2" d="M2 346.2h207.3v-2H1v2m14.4 56.1h50.3c.6 0 1-.4 1-1s-.4-1-1-1H15.4c-.6 0-1 .4-1 1s.4 1 1 1zm0 15.8h106.4c.6 0 1-.4 1-1s-.4-1-1-1H15.4c-.6 0-1 .4-1 1s.4 1 1 1z"/><path fill="#FFF" d="M150.1 364.9H197v12.4h-46.9z"/><path fill="#B2B2B2" d="M199 362.9h-50.9v16.4H199v-16.4zm-2 14.4h-46.9v-12.4H197v12.4z"/></svg>