<?xml version="1.0" standalone="no"?>
<!DOCTYPE svg PUBLIC "-//W3C//DTD SVG 1.1//EN" "http://www.w3.org/Graphics/SVG/1.1/DTD/svg11.dtd" >
<svg xmlns="http://www.w3.org/2000/svg">
<metadata></metadata>
<defs>
<font id="linottelight" horiz-adv-x="1155" >
<font-face units-per-em="2048" ascent="1536" descent="-512" />
<missing-glyph horiz-adv-x="505" />
<glyph unicode="&#xfb01;" horiz-adv-x="1150" d="M31 864q0 28 20.5 43t71.5 15l147 2v116q7 221 118 343t302 122q93 0 156 -18q65 -19 65 -60q0 -21 -13.5 -37t-31.5 -16q-19 0 -78.5 13.5t-109.5 13.5q-146 0 -223.5 -93.5t-77.5 -244.5v-139q89 0 237.5 2t212.5 2q20 0 43.5 1t24.5 1q51 0 68.5 -19t17.5 -65v-780 q0 -25 -0.5 -33.5t-5.5 -21.5t-16.5 -17t-32.5 -4q-31 0 -43.5 17t-12.5 52v762h-14q-77 0 -236 -1t-241 -1q0 -118 2 -379.5t2 -380.5q0 -65 -55 -65q-30 0 -44 14t-14 49q0 81 -0.5 235t-0.5 282t1 243l-129 -2q-25 0 -36.5 0.5t-28.5 3t-25 7.5t-14 14.5t-6 23.5z" />
<glyph unicode="&#xfb02;" horiz-adv-x="1171" d="M31 860q0 60 94 60h147v110q0 98 23.5 180t72.5 147.5t133 102.5t197 37q197 0 248 -14q23 -6 33.5 -22.5t12 -33.5t1.5 -57v-8q-2 -152 -2 -335t1 -396t1 -309q0 -150 8 -281q1 -24 -15 -38.5t-42 -14.5q-28 0 -41 19.5t-14 64.5q-9 304 -4 1319q-71 8 -217 8 q-58 0 -106.5 -20t-81.5 -54t-56.5 -79.5t-34 -95t-10.5 -101.5v-129h248q37 0 53 -13t16 -45q0 -49 -55 -49l-260 2q0 -85 1 -287t1 -290q0 -33 2 -99.5t2 -99.5q0 -51 -57 -51q-30 0 -43 18t-13 57v185q0 47 -1.5 254t-0.5 311h-192q-25 0 -37 13.5t-12 33.5z" />
<glyph unicode="&#xfb03;" horiz-adv-x="1734" d="M31 866q0 29 19.5 43.5t70.5 14.5h141v127q0 92 19 167t60.5 137.5t115.5 97t176 34.5q53 0 93 -15.5t40 -50.5q0 -20 -11.5 -34.5t-33.5 -14.5q-23 0 -62 7t-65 7q-57 0 -101.5 -28t-70.5 -74.5t-39.5 -101t-13.5 -111.5v-147h495v116q0 219 111 342t303 123 q91 0 154 -18q65 -19 65 -60q0 -23 -12 -38t-33 -15q-19 0 -77.5 13.5t-108.5 13.5q-145 0 -220 -93t-75 -245v-139q89 0 223.5 2t198.5 2q20 0 52.5 1t33.5 1q45 0 65.5 -20t20.5 -64v-780v-27.5t-2.5 -19.5t-8 -17.5t-16 -7.5t-27.5 -4q-31 0 -43 16.5t-12 52.5v762 q-86 0 -244.5 -1t-238.5 -1q0 -118 2 -379.5t2 -380.5q0 -65 -55 -65q-30 0 -44 14t-14 49v762l-493 2q0 -51 2 -297t2 -452q0 -45 -13 -64.5t-43 -19.5t-42.5 18t-12.5 57q0 118 -1 372t-1 384h-123h-13q-28 0 -40.5 0.5t-28 5t-21 14.5t-5.5 27z" />
<glyph unicode="&#xfb04;" horiz-adv-x="1744" d="M31 864q0 12 3 20.5t11 15t16 11t22.5 6.5t26.5 3.5t33.5 2t36.5 0.5t41.5 -0.5t44.5 -0.5v129q0 92 19 166t60.5 134.5t115.5 94t176 33.5q133 0 133 -62q0 -20 -11.5 -34.5t-33.5 -14.5q-21 0 -60.5 5.5t-66.5 4.5q-37 0 -67.5 -9t-52.5 -25.5t-39.5 -39.5t-28 -50 t-18.5 -57t-11.5 -62t-6 -64t-1.5 -62.5t0 -59.5v-27h483v108q0 100 27 184t80 147.5t138.5 99.5t196.5 36q173 0 224 -14q23 -6 33.5 -22.5t12 -33.5t1.5 -57v-8q-2 -138 -2 -304t1 -362.5t1 -289.5t4 -269q1 -16 2 -48t2 -48q2 -25 -12 -40t-41 -15q-41 0 -51.5 36 t-10.5 144q-3 202 -3.5 600.5t1.5 624.5q-71 8 -192 8q-139 0 -222 -102t-83 -248v-127h247q37 0 53.5 -13t16.5 -45q0 -49 -55 -49q-43 0 -130 1t-130 1q0 -47 4 -751q0 -78 -56 -78q-31 0 -43 15.5t-12 53.5q0 119 -1 372t-1 388q-80 0 -240.5 1t-240.5 1q0 -51 2 -299 t2 -454q0 -41 -13 -59.5t-42 -18.5q-31 0 -43.5 15.5t-12.5 53.5q0 118 -1 374t-1 386h-127h-13q-28 0 -40.5 0.5t-28 5t-21 14.5t-5.5 27z" />
<glyph horiz-adv-x="0" />
<glyph horiz-adv-x="682" />
<glyph horiz-adv-x="0" />
<glyph horiz-adv-x="0" />
<glyph unicode="&#xd;" horiz-adv-x="512" />
<glyph unicode=" "  horiz-adv-x="505" />
<glyph unicode="&#x09;" horiz-adv-x="505" />
<glyph unicode="&#xa0;" horiz-adv-x="505" />
<glyph unicode="!" horiz-adv-x="448" d="M133 80q0 41 25.5 68.5t66.5 27.5q40 0 66 -24.5t26 -63.5q0 -43 -27.5 -67.5t-68.5 -24.5q-38 0 -63 23t-25 61zM162 1343q0 60 61 60q39 0 48.5 -23.5t9.5 -91.5q0 -116 -11 -803q0 -28 -12 -41.5t-31 -13.5q-28 0 -37.5 17t-11.5 67l-6 326z" />
<glyph unicode="&#x22;" horiz-adv-x="610" d="M113 1397q0 24 15 38.5t42 14.5q28 0 37.5 -18.5t9.5 -55.5q0 -46 -2 -154t-2 -149q0 -61 -47 -61t-47 59q0 49 -3 180t-3 146zM393 1399q0 24 15 37.5t38 13.5q22 0 37 -14t15 -35q0 -47 -6 -311q-2 -40 -10.5 -57t-35.5 -17q-47 0 -47 55q0 67 -3 181.5t-3 146.5z" />
<glyph unicode="#" horiz-adv-x="1214" d="M55 420q0 51 68 51h176l66 416h-183q-47 0 -47 49q3 55 70 55h176l53 342q4 28 21.5 44t42.5 16q23 0 37.5 -15t11.5 -35l-58 -352l316 -2l55 344q3 28 20 44t42 16q24 0 38 -14.5t11 -35.5l-58 -354h195q26 0 37.5 -14t9.5 -35q0 -32 -19 -42.5t-75 -10.5h-164l-66 -418 h197q49 0 49 -45q-2 -32 -22 -44.5t-72 -12.5h-168l-47 -293q-6 -46 -18 -64t-43 -18q-58 0 -50 55l50 320h-316l-45 -293q-6 -46 -18.5 -64t-44.5 -18q-25 0 -39.5 13.5t-10.5 41.5l50 320h-183q-49 0 -45 53zM408 471l315 -2l65 418h-315z" />
<glyph unicode="$" horiz-adv-x="1052" d="M98 162q0 21 15 38t39 17q17 0 49 -16q141 -82 299 -82q151 0 245 73.5t95 202.5q1 51 -17 91.5t-44.5 66.5t-72.5 48.5t-86.5 35t-101.5 27.5q-50 12 -82.5 20.5t-79 24.5t-76.5 32.5t-64 42t-53.5 55t-32.5 70.5t-13 90q0 142 110.5 246t261.5 125v146q0 55 48 55 q28 0 39.5 -14t11.5 -46v-139q152 -8 280 -72q45 -25 45 -57q0 -21 -14 -35t-37 -14q-16 0 -53 16q-132 62 -270 62q-125 0 -220.5 -78.5t-95.5 -189.5q0 -46 18 -81.5t38.5 -56t68 -40.5t73.5 -27.5t89 -23.5q23 -6 35 -9q73 -18 124 -34.5t107.5 -45.5t91.5 -65t57.5 -91 t22.5 -124q0 -154 -95.5 -258.5t-260.5 -129.5v-147q0 -34 -12 -50t-43 -16q-27 0 -37.5 14t-10.5 46v147q-189 3 -329 78q-34 19 -48 35t-14 37z" />
<glyph unicode="%" horiz-adv-x="1572" d="M76 1012q0 66 14.5 129t44.5 121.5t86.5 94.5t130.5 36q130 0 210.5 -99t80.5 -254q0 -153 -85.5 -253.5t-211.5 -100.5q-110 0 -190 97.5t-80 228.5zM176 1024q0 -97 46 -170.5t124 -73.5q91 0 143 66t52 194q0 116 -50 188t-139 72q-176 0 -176 -276zM346 28 q-4 20 8 40l394 657l366 633q9 19 28.5 27t39.5 -1q28 -14 29.5 -35.5t-17.5 -52.5q-6 -11 -124.5 -202t-190.5 -322q-56 -103 -142 -245t-96 -162l-195 -340q-10 -20 -30 -28.5t-47 1.5q-19 10 -23 30zM920 311q0 51 9 101.5t31 99.5t54 85.5t81.5 59.5t110.5 23 q130 0 209.5 -98.5t79.5 -251.5t-83.5 -249.5t-211.5 -96.5q-115 0 -197.5 96.5t-82.5 230.5zM1020 324q0 -106 46.5 -177t133.5 -71q95 0 145.5 65t47.5 185q-7 266 -187 266q-94 0 -140 -77.5t-46 -190.5z" />
<glyph unicode="&#x26;" horiz-adv-x="1320" d="M102 393q0 235 232 385q-115 161 -115 295t95 233t247 99q96 0 168 -35q57 -26 57 -61q0 -19 -11 -34t-30 -15q-21 0 -51 12q-65 28 -108 33q-19 2 -39 2q-97 0 -160 -67.5t-63 -160.5q0 -147 147 -317q189 -211 510 -471q39 73 39 158q0 81 -44.5 159.5t-113.5 85.5 q-27 0 -48 12t-21 37q0 28 15.5 43t43.5 15q10 0 43 -3t43 -3q49 -1 98.5 1t98 5.5t53.5 3.5q63 3 63 -45q0 -27 -12 -38.5t-45 -14.5q-65 -7 -184 -7q44 -31 74 -105t30 -142q0 -127 -53 -228q63 -51 186 -135q14 -8 27.5 -22t13.5 -27q0 -19 -13 -36t-32 -17q-27 0 -53 18 q-85 53 -186 133q-142 -157 -424 -157q-198 0 -338 119.5t-140 291.5zM211 403q0 -143 105.5 -231t267.5 -88q209 0 336 121q-87 73 -186 165.5t-161 154t-176 177.5q-1 0 -2 1.5t-2 1.5q-182 -115 -182 -302z" />
<glyph unicode="'" horiz-adv-x="321" d="M104 1395q3 53 60 53q30 0 40.5 -19t10.5 -57q0 -58 -8 -278q-1 -25 -2 -34.5t-5 -24t-13.5 -20t-24.5 -5.5q-44 0 -47 55q-1 42 -4 117t-5 127.5t-2 85.5z" />
<glyph unicode="(" horiz-adv-x="522" d="M121 528q1 133 21.5 259.5t47.5 215.5t69 181.5t70 141t68 110.5q19 28 49 28q16 0 31 -12.5t15 -30.5q0 -15 -9 -28q-45 -75 -71.5 -123t-67.5 -138.5t-63.5 -171t-40 -195.5t-17.5 -237q0 -141 18 -260t57 -223.5t76 -179t97 -176.5q12 -24 12 -35q0 -18 -14.5 -32.5 t-32.5 -14.5q-33 0 -59 49q-260 420 -256 872z" />
<glyph unicode=")" horiz-adv-x="522" d="M31 1421q0 18 14.5 30.5t30.5 12.5q30 0 49 -28q40 -62 68 -110.5t70 -141t69 -181.5t47.5 -215.5t21.5 -259.5q4 -452 -256 -872q-26 -49 -59 -49q-18 0 -32.5 14.5t-14.5 32.5q0 11 12 35q60 102 97 176.5t76 179t57 223.5t18 260q0 122 -17.5 237t-40 195.5t-63.5 171 t-67.5 138.5t-71.5 123q-8 12 -8 28z" />
<glyph unicode="*" horiz-adv-x="741" d="M70 1135q0 19 15.5 29t41.5 3l207 -53l-6 213q0 31 9 44t32 13q45 0 45 -49l-2 -221l209 68q19 6 34 -5.5t15 -33.5q0 -18 -8 -25.5t-31 -15.5l-193 -62l154 -182q20 -22 20 -39t-12 -30t-29 -13q-5 0 -9.5 1t-7.5 1.5t-7 3.5t-6 4t-6 6t-5.5 6.5t-6.5 8t-7 8.5l-143 186 l-125 -184q-1 -2 -6.5 -9t-7.5 -9.5t-7 -7.5t-9 -7t-9.5 -4t-11.5 -2q-19 0 -31 11t-12 30q0 16 14 37l137 182l-199 52q-21 6 -28.5 15.5t-7.5 29.5z" />
<glyph unicode="+" horiz-adv-x="983" d="M55 563q3 28 22.5 35.5t69.5 7.5h293q1 56 1 138t-0.5 156.5t-0.5 76.5q0 27 16 40t38 13q29 0 40 -17t11 -63v-346h329q27 0 40.5 -14t13.5 -35q0 -32 -15.5 -41.5t-60.5 -9.5q-47 -2 -309 -2q0 -71 1 -210t1 -159q0 -49 -58 -49q-47 0 -47 76v342h-338 q-28 0 -39.5 19.5t-7.5 41.5z" />
<glyph unicode="," horiz-adv-x="393" d="M84 -145q0 14 18 33t38.5 46t25.5 58q1 4 -12 14.5t-26 29.5t-13 42q0 38 26 63t64 25q39 0 65.5 -29t26.5 -71q0 -67 -40 -130t-93 -104q-22 -16 -43 -16q-13 0 -25 10.5t-12 28.5z" />
<glyph unicode="-" horiz-adv-x="710" d="M88 489q0 27 17.5 39.5t60.5 12.5h393q64 0 64 -43q0 -34 -17 -47t-69 -13h-392q-57 0 -57 51z" />
<glyph unicode="." horiz-adv-x="393" d="M102 86q0 38 29 64t70 26q40 0 65 -27.5t25 -66.5q0 -41 -29 -63.5t-72 -22.5q-37 0 -62.5 26t-25.5 64z" />
<glyph unicode="/" horiz-adv-x="739" d="M39 -10q0 17 20 76l535 1341q14 51 51 51q20 0 36.5 -10.5t16.5 -30.5q0 -17 -28 -98l-529 -1323q-16 -45 -45 -45q-20 0 -38.5 10.5t-18.5 28.5z" />
<glyph unicode="0" horiz-adv-x="1267" d="M123 627q0 107 15 209t53 205.5t95 181t148.5 126t206.5 48.5q158 0 274 -94t174 -255t58 -370q0 -153 -40.5 -283.5t-111 -219t-165.5 -138t-203 -49.5q-137 0 -252.5 83t-183.5 230t-68 326zM236 651q0 -98 26 -194.5t73 -178t123.5 -132t168.5 -50.5q181 0 298 156.5 t117 419.5q0 119 -26 229t-75 198t-127.5 140.5t-174.5 52.5q-92 0 -164 -40.5t-116 -105t-72.5 -151.5t-39.5 -171t-11 -173z" />
<glyph unicode="1" horiz-adv-x="847" d="M121 1065q0 17 5.5 26t20.5 23q102 80 174.5 138.5t100 81t43.5 34.5q34 27 74 27q21 0 38 -15t17 -39q0 -146 -4 -440q-1 -153 0.5 -460t1.5 -390q0 -57 -60 -57q-25 0 -39 16t-14 45q1 58 3.5 243.5t4.5 369t2 327.5q0 27 0.5 84t0.5 102.5t-1 78.5 q-58 -47 -144 -118.5t-126 -103.5q-27 -22 -49 -22q-20 0 -34.5 15t-14.5 34z" />
<glyph unicode="2" horiz-adv-x="1099" d="M106 70q0 33 62 98q61 58 210.5 206.5t213.5 215.5q11 12 49.5 50.5t54.5 55.5t47.5 53t46 60t33 57.5t26 65.5t7.5 65q0 126 -92.5 211.5t-239.5 85.5q-81 0 -156.5 -38.5t-131.5 -94.5q-3 -3 -11.5 -12t-12 -12t-11 -9.5t-13 -9t-13 -4.5t-15.5 -2q-20 0 -35.5 13.5 t-15.5 35.5q0 21 9.5 36.5t35.5 39.5q71 71 170.5 118.5t201.5 47.5q116 0 216 -50t161.5 -144t61.5 -210q0 -52 -13 -99.5t-29.5 -82.5t-52 -80.5t-61 -73t-77.5 -80.5t-81 -85l-403 -396q219 0 405 2q45 0 285 5q31 0 47 -15t16 -39q0 -60 -71 -57q-28 0 -115 1t-145 1 h-490q-36 0 -55 19t-19 51z" />
<glyph unicode="3" horiz-adv-x="1075" d="M94 156q0 25 15.5 39t33.5 14q13 0 22.5 -3.5t27 -15t26.5 -16.5q45 -26 79.5 -42.5t95 -32t124.5 -15.5q146 0 242 100t96 254q0 96 -49 165.5t-124.5 101.5t-166.5 32h-86q-32 -2 -53 14.5t-21 45.5q0 18 7 30t28 33q68 65 211.5 219.5t202.5 214.5q-382 0 -604 -10 q-68 0 -68 53q0 26 19 40t43 14q2 0 95.5 -2.5t151.5 -2.5q68 0 215.5 3.5t212.5 3.5q46 0 64 -12t18 -50q0 -28 -82 -110q-66 -64 -202 -207t-170 -178q87 5 170.5 -20t149.5 -73t106.5 -124.5t40.5 -167.5q0 -210 -120.5 -338.5t-338.5 -128.5q-189 0 -352 100 q-60 38 -60 72z" />
<glyph unicode="4" horiz-adv-x="1144" d="M84 367q0 34 29 86q270 486 469 884q28 54 67 54q24 0 42 -16t20 -36q0 -10 -13 -39q-44 -82 -89.5 -163t-111 -195t-102.5 -180l-186 -361l536 5l3 352q0 42 11 64t40 22q32 0 44.5 -17t12.5 -61l-2 -360l197 4q65 3 65 -48q0 -55 -55 -55h-209v-248q0 -35 -10 -51 t-39 -16q-31 0 -45.5 15.5t-14.5 53.5q0 32 1 113.5t1 130.5q-98 1 -310.5 -1.5t-266.5 -2.5q-84 0 -84 66z" />
<glyph unicode="5" horiz-adv-x="1107" d="M111 176q0 22 17 39.5t40 17.5q13 0 25 -5.5t28.5 -16.5t24.5 -16q80 -46 148 -71.5t143 -25.5q140 0 245 97t105 247q0 88 -32.5 159t-104.5 117t-172 46q-72 0 -148 -25t-132.5 -50.5t-78.5 -26.5q-32 -2 -54 15.5t-18 51.5q11 83 52 324t45 268q5 30 27.5 50t58.5 20 h551q29 0 45 -14.5t16 -39.5q0 -30 -16.5 -42.5t-55.5 -12.5l-528 8l-12 -98l-66 -416q162 90 316 90q131 0 228 -58.5t144 -150t47 -200.5q0 -206 -133.5 -336.5t-330.5 -130.5q-162 0 -334 96q-51 27 -70.5 47t-19.5 43z" />
<glyph unicode="6" horiz-adv-x="1163" d="M129 680q0 208 65.5 371.5t186 256.5t276.5 93q75 0 152.5 -18t124.5 -42q30 -14 42.5 -25.5t12.5 -33.5t-14 -37.5t-37 -15.5q-8 0 -18.5 3.5t-27.5 11t-28 11.5q-97 39 -223 39q-80 0 -153.5 -43t-128.5 -116t-88 -177t-33 -219v-75q52 94 166 151t233 57q83 0 158 -25 t137 -74t98.5 -131t36.5 -187q0 -198 -131.5 -330.5t-335.5 -132.5q-185 0 -310 119t-149 329q-12 141 -12 240zM252 446q0 -150 105 -250t255 -100q151 0 248.5 102t97.5 261q0 153 -94.5 231.5t-259.5 75.5q-153 -3 -252.5 -89.5t-99.5 -230.5z" />
<glyph unicode="7" horiz-adv-x="1054" d="M84 1333q0 27 16.5 41.5t44.5 14.5q118 0 394.5 -2.5t378.5 -2.5q63 0 63 -55q0 -7 -1.5 -15t-3.5 -14.5t-7 -15.5t-8 -14.5t-9.5 -15.5t-9.5 -14t-10.5 -15t-9.5 -13q-142 -178 -262 -416.5t-191 -465.5q-55 -171 -80 -285q-6 -28 -18.5 -39.5t-44.5 -11.5q-30 0 -44 21 t-3 65q28 115 83 276q170 494 484 930q-81 1 -232.5 -0.5t-203.5 -1.5q-53 0 -136.5 -2t-117.5 -2q-72 0 -72 53z" />
<glyph unicode="8" horiz-adv-x="1163" d="M106 362q0 267 273 361q-81 37 -141 117t-60 186q0 111 58 199t151.5 134t202.5 46t203 -45t152.5 -129t58.5 -187q0 -117 -58.5 -198t-157.5 -121q54 -18 100.5 -46t86 -67.5t62.5 -94.5t24 -118q2 -129 -63 -224.5t-170.5 -142t-235.5 -46.5q-216 0 -351 100.5 t-135 275.5zM215 375q3 -139 99.5 -212t263.5 -73q172 0 273.5 82t100.5 221q-1 86 -52.5 150.5t-130.5 95.5t-171 31q-74 0 -141 -17.5t-123 -52t-88 -92.5t-31 -133zM281 1022q3 -115 94.5 -189.5t218.5 -74.5q131 0 217.5 82t85.5 209q-1 110 -90.5 184t-216.5 74 q-134 0 -223 -77t-86 -208z" />
<glyph unicode="9" horiz-adv-x="1161" d="M98 946q0 126 65 231.5t173.5 165t234.5 58.5q77 -1 145.5 -22t130.5 -70t106.5 -123t71 -186.5t26.5 -254.5q0 -755 -533 -755q-77 0 -159.5 22t-129.5 49q-53 29 -53 64q0 23 14 39t37 16q9 0 19.5 -3.5t30 -13.5t26.5 -13q37 -18 62 -28t69.5 -19t95.5 -9 q207 0 314 164.5t104 480.5q-42 -98 -150 -164.5t-249 -66.5q-61 0 -123.5 17.5t-121.5 54.5t-104.5 87.5t-73.5 123t-28 155.5zM209 940q0 -153 102 -240.5t269 -87.5q141 0 242.5 91.5t101.5 238.5q0 152 -106.5 254t-258.5 102q-140 0 -245 -101.5t-105 -256.5z" />
<glyph unicode=":" horiz-adv-x="393" d="M102 86q0 38 29 64t70 26q40 0 65 -27.5t25 -66.5q0 -41 -29 -63.5t-72 -22.5q-37 0 -62.5 26t-25.5 64zM102 842q0 38 29 64t70 26q40 0 65 -27.5t25 -66.5q0 -41 -29 -63.5t-72 -22.5q-37 0 -62.5 26t-25.5 64z" />
<glyph unicode=";" horiz-adv-x="393" d="M86 -145q0 14 18 33t38.5 46t25.5 58q1 4 -12 14.5t-26 29.5t-13 42q0 38 26 63t64 25q39 0 65.5 -29t26.5 -71q0 -67 -40 -130t-93 -104q-22 -16 -43 -16q-13 0 -25 10.5t-12 28.5zM106 842q0 38 29 64t70 26q40 0 65 -27.5t25 -66.5q0 -41 -28.5 -63.5t-71.5 -22.5 q-37 0 -63 26t-26 64z" />
<glyph unicode="&#x3c;" horiz-adv-x="983" d="M74 543q0 42 51 73q64 40 311 180t346 193q30 19 52 19q21 0 37 -18t16 -42q0 -22 -21 -37q-88 -43 -334.5 -177.5t-343.5 -190.5q116 -64 369.5 -189t325.5 -164q26 -15 26 -36q0 -23 -14.5 -44.5t-36.5 -21.5q-28 0 -53 14l-676 361q-55 32 -55 80z" />
<glyph unicode="=" horiz-adv-x="983" d="M74 330q0 55 69 55q27 0 147 -1t181 -1h385q51 0 51 -49q0 -33 -20.5 -45.5t-75.5 -12.5h-690q-47 0 -47 54zM74 760q0 55 69 55q27 0 147 -1t181 -1h385q51 0 51 -49q0 -32 -20.5 -44.5t-75.5 -12.5h-690q-47 0 -47 53z" />
<glyph unicode="&#x3e;" horiz-adv-x="983" d="M74 154q0 21 26 36q72 39 325.5 164t369.5 189q-97 56 -343.5 190.5t-334.5 177.5q-21 15 -21 37q0 23 16 41.5t38 18.5q21 0 51 -19q99 -53 346 -193t311 -180q51 -31 51 -73q0 -48 -55 -80l-676 -361q-25 -14 -53 -14q-22 0 -36.5 21.5t-14.5 44.5z" />
<glyph unicode="?" horiz-adv-x="985" d="M94 1212q0 26 31 50q167 141 352 141q105 0 197 -42.5t152.5 -128.5t60.5 -198q0 -32 -6 -61.5t-18.5 -55t-25.5 -47t-35.5 -43.5t-39 -37t-44.5 -34t-44.5 -30t-46.5 -29.5t-43 -26.5q-102 -65 -105 -152q-1 -20 9 -43t10 -43q0 -24 -15.5 -36.5t-38.5 -12.5 q-79 0 -79 135q0 80 42.5 135t133.5 109q48 28 70 42t60.5 43.5t56.5 53.5t33 59.5t15 75.5q0 113 -88 187.5t-215 74.5q-66 0 -134 -27t-118 -69q-3 -2 -12 -9.5t-13 -10.5t-12 -8.5t-13 -8t-11.5 -4.5t-12.5 -2q-21 0 -37 16t-16 37zM348 82q0 41 29.5 69.5t71.5 28.5 q45 0 70.5 -27t25.5 -69q0 -45 -28 -69.5t-71 -24.5q-44 0 -71 25.5t-27 66.5z" />
<glyph unicode="@" horiz-adv-x="1855" d="M106 330q0 146 36 284t109 259.5t176 213t247 144.5t311 53q159 0 302 -57t244 -152t160.5 -223.5t59.5 -267.5q0 -179 -36 -309.5t-116 -207.5t-200 -77q-87 0 -142.5 51t-66.5 141q-51 -86 -130 -136t-173 -50q-153 0 -256 102.5t-103 253.5q0 116 47 216.5 t140.5 165.5t214.5 65q83 0 156 -41.5t114 -112.5q6 64 10 80q7 31 19 47t37 16q63 0 49 -81l-19 -136l-18 -233q-20 -246 127 -246q79 0 134.5 70.5t80.5 178t25 239.5q0 124 -52.5 235t-142.5 191t-217 127t-270 47q-166 0 -308.5 -71t-238 -189t-149.5 -271.5t-54 -318.5 q0 -145 58.5 -274t153.5 -216t216 -138.5t246 -53.5q195 -5 395 80q5 2 23.5 10.5t30 12t20.5 3.5q22 0 36.5 -16t14.5 -37q0 -28 -33 -49q-111 -56 -222 -82.5t-261 -26.5q-152 0 -294 57t-251 157t-174.5 249.5t-65.5 323.5zM639 360q0 -118 77 -190t183 -72 q132 0 207.5 98t75.5 250q0 115 -78 183.5t-180 68.5q-127 0 -206 -99t-79 -239z" />
<glyph unicode="A" horiz-adv-x="1288" d="M59 45q0 23 29 86q224 529 227 535q40 94 267 677q19 50 69 50q27 0 42 -11.5t26 -38.5q33 -79 135 -353.5t147 -385.5q3 -8 10.5 -25.5t10.5 -25.5q38 -93 105.5 -253.5t89.5 -215.5q12 -32 12 -45q0 -16 -19 -31.5t-41 -15.5q-16 0 -26.5 3t-19 15t-11 17.5t-12.5 29.5 q-27 70 -61 159t-52.5 137t-21.5 57q-8 0 -154 1t-270 1h-219q-11 -25 -64 -162t-68 -170q-3 -8 -9 -23t-8.5 -21.5t-8 -16.5t-11 -14t-14 -7.5t-18.5 -3.5q-62 0 -62 51zM358 510q112 -1 220 -1q180 0 346 3q-13 34 -128.5 345t-146.5 388q-89 -241 -291 -735z" />
<glyph unicode="B" horiz-adv-x="1208" d="M184 1313q0 64 99 73q80 7 305 7q87 0 163 -21.5t137 -64t97 -112.5q37 -72 37 -165q0 -112 -52 -194q-52 -84 -139 -127q131 -34 204 -114.5t73 -209.5q0 -164 -93.5 -262.5t-256.5 -116.5q-39 -4 -87.5 -6t-78.5 -2h-38h-56h-84h-144q-47 0 -64.5 27.5t-17.5 76.5 l2 516l-4 564q0 25 -1 66.5t-1 64.5zM293 1280q2 -26 4 -549q97 0 319 4q139 3 218 88q77 83 77 212v7q-1 64 -28 112t-74 76t-104 42t-123 14q-190 0 -289 -6zM297 635l4 -535q45 -2 330 -2q107 0 187 27t130.5 90.5t50.5 157.5q0 266 -360 266z" />
<glyph unicode="C" horiz-adv-x="1243" d="M119 664q0 166 56.5 307.5t149 234t209 144t238.5 51.5q162 0 299 -62q19 -9 30 -14.5t24 -15t19.5 -20.5t6.5 -23q0 -28 -14 -45.5t-39 -16.5q-21 2 -70 25q-132 65 -272 65q-98 0 -193 -46.5t-168.5 -126.5t-118.5 -197t-45 -248q0 -154 64 -286t187.5 -215t281.5 -83 q78 0 161 26t142 68q9 5 19 13t18.5 11t23.5 3t29 -17.5t14 -37.5q0 -41 -65 -82.5t-163.5 -67.5t-190.5 -26q-123 0 -237 48t-202.5 134t-141 216t-52.5 284z" />
<glyph unicode="D" horiz-adv-x="1372" d="M174 1292q0 101 127 101q2 0 81.5 0.5t147 0.5t80.5 -1q140 -10 259 -56t210 -126t143 -202t52 -272q0 -731 -774 -737q-54 0 -234 4q-49 1 -69.5 29t-20.5 82l6 620zM287 152q0 -30 35.5 -36.5t164.5 -6.5q125 0 226.5 19.5t186.5 64.5t142.5 114.5t89 172.5t31.5 237 q0 143 -51 254.5t-139 179t-200 101.5t-241 34q-172 0 -245 -6v-1128z" />
<glyph unicode="E" horiz-adv-x="1103" d="M197 113q0 28 4 90v7q0 7 0.5 20.5t1 33.5t1 48.5t1 62.5t1 78t1 92.5t0.5 109.5v125q0 90 1 272t1 273q0 18 6 30.5t14.5 19t27 10t33 4t42.5 0.5h106q70 0 241 2t239 2q51 0 68.5 -13t17.5 -43q0 -48 -48 -51q-77 0 -256 1t-256 1h-125q-2 -106 -2 -303v-203v-51h119 q232 0 385 6q43 0 61.5 -10.5t18.5 -40.5q0 -26 -16.5 -38.5t-57.5 -12.5q-42 0 -270.5 -1t-241.5 -1v-164q0 -59 -3 -183t-3 -184q281 0 615 4q8 0 23.5 1.5t23.5 1.5q51 0 51 -50q0 -34 -19 -48.5t-73 -14.5h-524q-52 0 -78.5 0.5t-55 4.5t-39.5 11t-21.5 21t-12.5 32 t-2 48z" />
<glyph unicode="F" horiz-adv-x="1067" d="M201 78q0 19 1 75.5t1 77.5q0 45 1 135.5t1 135.5l2 540l-4 263q0 36 23.5 60t56.5 24q16 0 62 -1.5t65 -1.5q76 0 244 2t235 3q11 0 35 1t37 1q26 0 39.5 -16t13.5 -38q0 -52 -53 -55h-130q-5 0 -179 1t-337 1q0 -56 -1 -171t-1 -171v-225h209l355 4q51 0 51 -55 q0 -22 -15.5 -36.5t-42.5 -15.5q-49 0 -173.5 1t-172.5 1q-35 0 -105.5 -1t-105.5 -1v-190l2 -350q0 -40 -11 -60t-44 -20q-36 0 -47.5 18.5t-11.5 63.5z" />
<glyph unicode="G" horiz-adv-x="1452" d="M119 690q0 144 56.5 277t150 227.5t217.5 150.5t254 56q229 0 415 -123q33 -23 33 -51q0 -24 -14 -41t-37 -17q-22 0 -78 35q-141 92 -334 92q-100 0 -200 -48.5t-177 -128.5t-125.5 -190.5t-48.5 -226.5q0 -284 153.5 -446t408.5 -162q134 0 240 73t162.5 189.5 t57.5 251.5h-348q-19 3 -30 18.5t-11 32.5q0 18 11 33.5t32 18.5q14 2 375 2q48 0 65 -21t17 -71q0 -140 -46 -260t-124.5 -201.5t-183.5 -127.5t-222 -46q-300 0 -484.5 193.5t-184.5 510.5z" />
<glyph unicode="H" horiz-adv-x="1417" d="M188 1329q3 60 62 60q53 0 53 -54q0 -245 2 -618h258q66 0 201 1t203 1l147 2q0 77 -2 299t-2 285q0 52 11.5 72t45.5 20q30 0 43 -18t13 -56v-645l6 -633q0 -53 -55 -53q-28 0 -44 14.5t-16 40.5v209l-2 358q-131 0 -393.5 -3t-413.5 -3l4 -561q0 -28 -17.5 -41.5 t-41.5 -13.5q-23 0 -40 14t-17 39q0 83 3 355q2 164 2 282q0 79 -1 137z" />
<glyph unicode="I" horiz-adv-x="536" d="M211 47q0 30 1 87t1 91l2 584q0 66 -2 234t-2 290q0 29 16 45.5t45 16.5q26 0 40 -15.5t14 -42.5q0 -123 -2 -522v-332l2 -409q0 -47 -12.5 -64.5t-45.5 -17.5q-57 0 -57 55z" />
<glyph unicode="J" horiz-adv-x="983" d="M63 164q0 23 15 37t39 14q14 0 28.5 -9t38.5 -30.5t33 -28.5q27 -22 72 -38.5t84 -16.5q60 0 106 15t78 39.5t54.5 67t35.5 86t20 109.5t9 123.5t2 141.5l-12 665q0 29 14 45.5t39 16.5q59 0 59 -55q0 -96 6.5 -303t6.5 -304q0 -133 -3 -247q-2 -121 -24.5 -210 t-70.5 -157t-130 -102.5t-198 -34.5q-74 0 -149 35.5t-112 68.5q-41 36 -41 72z" />
<glyph unicode="K" horiz-adv-x="1222" d="M190 43q0 15 1.5 48t1.5 48q0 197 2 593t2 593q0 70 57 70q29 0 42 -14t13 -46q0 -123 -2 -377.5t-2 -363.5q349 370 686 766q14 16 20 22t16.5 10.5t25.5 4.5q23 0 41 -17.5t18 -40.5q0 -15 -12 -30q-108 -128 -412 -457q-12 -12 -44.5 -48.5t-51.5 -55.5 q70 -76 336 -398q83 -102 215 -254q20 -20 20 -47q0 -26 -17.5 -43.5t-45.5 -17.5q-32 0 -56 30q-10 11 -45 58q-162 208 -477 598q-41 -45 -119 -123t-100 -102v-406q0 -25 -15.5 -39t-41.5 -14q-24 0 -40 14t-16 39z" />
<glyph unicode="L" horiz-adv-x="997" d="M190 96q0 7 1.5 32.5t1.5 49.5q1 89 4 266.5t4 266.5v618q0 33 17 49.5t46 16.5q51 0 51 -68q0 -135 -4 -467q-5 -329 -6 -422q0 -101 -0.5 -175.5t-1 -112t-0.5 -50.5q209 0 268 2l332 13q62 0 62 -49q0 -64 -64 -64h-242q-249 0 -331 -4h-21q-63 0 -88 16 q-29 19 -29 82z" />
<glyph unicode="M" horiz-adv-x="1730" d="M133 59q22 125 60 410.5t75 577.5l37 292q6 24 30 38t52 14q24 0 40 -18t30 -56q122 -323 342 -961q7 -19 18 -49t17.5 -47.5t12.5 -37t9 -32.5l23 66q91 214 230 578.5t175 455.5q20 47 32 66t34 37q16 4 30 4q41 0 56 -21q14 -56 41 -280.5t64 -556t54 -473.5 q1 -9 1 -18q0 -28 -8 -42q-10 -18 -44 -18q-49 0 -55 59q-23 194 -63 586t-62 579l-424 -1075q-9 -23 -14.5 -34t-16 -27t-24 -22.5t-31.5 -6.5q-27 0 -42.5 18t-29.5 54q-78 206 -227.5 637t-163.5 469q-20 -156 -53.5 -434.5t-58.5 -482.5t-35 -265q-9 -51 -58 -51 q-30 0 -44 20q-10 15 -10 34q0 6 1 13z" />
<glyph unicode="N" horiz-adv-x="1437" d="M184 57q0 111 2 566q0 94 -1 246.5t-1 246.5v209q0 30 18.5 48t51.5 18q14 0 26 -4.5t24.5 -17t18 -19t20 -27.5t17.5 -25l527 -747l270 -379q-6 200 -6 549l-4 559q0 2 -0.5 20t0 23t2 19t5 19.5t9 13.5t15 11t22.5 3q10 0 18 -1.5t13.5 -5t9.5 -7t6.5 -11t3.5 -12 t1.5 -15.5t0.5 -17v-20.5v-21.5v-672q4 -135 4 -536q0 -72 -67 -72q-13 0 -22 2.5t-19.5 12.5t-15.5 15.5t-20 26.5t-23 31q-61 87 -221 315t-312.5 445t-267.5 379q0 -271 8 -1139q0 -26 -1 -39t-6 -26.5t-16 -19t-30 -5.5q-60 0 -60 61z" />
<glyph unicode="O" horiz-adv-x="1529" d="M117 657q0 167 56.5 310.5t149.5 238t211 146.5q114 51 235 51h9q130 0 248.5 -51.5t206.5 -141.5t140 -219.5t52 -277.5q0 -203 -82 -369.5t-233 -264t-340 -97.5q-125 0 -242 48t-208.5 133.5t-147 214.5t-55.5 279zM225 678q0 -129 45 -240t121.5 -186.5t179 -118.5 t215.5 -43q146 0 270 86.5t194 228.5q68 138 67 293v9q-1 128 -49 239.5t-126 187t-179.5 119t-208.5 43.5q-100 0 -195.5 -46.5t-169.5 -126.5t-119 -197t-45 -248z" />
<glyph unicode="P" horiz-adv-x="1157" d="M193 1317q0 29 22.5 47.5t63.5 21.5q100 7 325 7q190 0 324 -90q159 -110 159 -342q0 -135 -84.5 -254t-216.5 -156q-18 -5 -45 -9t-63.5 -6t-67.5 -3.5t-77 -2t-71.5 -0.5h-71h-56.5h-27q0 -74 2 -233.5t2 -251.5q0 -57 -55 -57q-26 0 -42.5 12.5t-16.5 36.5v911 q0 113 -2 168q0 33 -1 100.5t-1 100.5zM305 1280q0 -66 1 -203t1 -203q0 -34 2 -115.5t2 -121.5h105q47 -1 88 -1q165 0 241 19q110 28 170 117.5t62 194.5v8q0 167 -125 248q-58 35 -124 49t-161 14q-201 0 -262 -6z" />
<glyph unicode="Q" horiz-adv-x="1546" d="M119 678q0 141 51.5 274t137 231t202 158.5t240.5 61.5q12 4 24 4q182 0 331.5 -82.5t238 -236t90.5 -349.5v-13q0 -436 -326 -656q-56 -40 -127 -66q34 -20 93 -63.5t101 -73t103 -54t119 -24.5q43 0 75 11.5t49 29t31 37.5t23 37.5t23.5 29t33.5 11.5q26 0 41 -15 t15 -43q0 -76 -86.5 -147.5t-204.5 -71.5q-64 0 -129 26.5t-111 60t-121 89t-129 88.5q-68 41 -100 41l-92 13q-85 13 -164.5 42.5t-159.5 85.5t-139 131t-96 187t-37 246zM231 688q0 -262 169.5 -431.5t433.5 -172.5q218 28 352.5 200t134.5 429q0 121 -34 221t-90.5 166.5 t-132 112.5t-155 66.5t-161.5 20.5q-90 0 -182.5 -47.5t-166.5 -127.5t-121 -195.5t-47 -241.5z" />
<glyph unicode="R" horiz-adv-x="1228" d="M197 80q4 88 5 200q1 75 1 142q-1 34 -1 65q0 95 -0.5 272.5t-0.5 311.5q0 36 -1 114t-1 115q0 49 27.5 68t90.5 21q140 4 226 4q66 0 141 -7q187 -17 294 -123t107 -280q0 -157 -85 -263t-226 -136q192 -275 346 -486q3 -4 8 -11t7 -10t5 -8t4 -9t1 -9 q0 -22 -17.5 -39.5t-40.5 -17.5q-18 0 -28 4.5t-23 19.5q-356 515 -372 537h-355v-475q0 -41 -11 -61.5t-42 -20.5q-39 0 -50 19q-9 16 -9 50v13zM305 1286l2 -629h287q381 0 381 328q0 149 -102.5 227t-276.5 78q-221 0 -291 -4z" />
<glyph unicode="S" horiz-adv-x="1142" d="M117 143q0 23 16 40.5t41 17.5q17 0 51 -17q159 -90 328 -90q162 0 264.5 77t102.5 212q0 55 -20.5 98t-52 71.5t-83 51.5t-98.5 36t-113 26q-72 15 -121.5 28.5t-110 40.5t-97 60t-62 87t-25.5 122q0 115 68 208t173 142t222 49q186 0 346 -78q47 -21 47 -59 q0 -21 -14.5 -37.5t-38.5 -16.5q-19 0 -57 19q-134 65 -293 65q-142 0 -242 -81t-100 -205q0 -34 9.5 -62.5t22 -48.5t39 -38t46 -28.5t58 -22t60.5 -17t66 -15.5q23 -5 35 -8q58 -14 101.5 -26t92.5 -30t84 -38t69 -48.5t55 -61.5t33.5 -77t12.5 -96q0 -181 -131 -294 t-348 -113q-205 0 -369 86q-38 19 -52.5 34.5t-14.5 36.5z" />
<glyph unicode="T" d="M39 1337q0 23 15 38.5t42 15.5q18 0 68 -0.5t156 -1t260 -0.5q73 0 263 2t201 2q39 0 55.5 -11.5t16.5 -38.5q0 -35 -19 -46t-65 -11h-401v-143q0 -48 -0.5 -101.5t0.5 -112.5q1 -119 3.5 -357.5t4.5 -495.5q0 -44 -13 -63t-48 -19q-29 0 -41.5 15.5t-12.5 56.5l2 786 q0 72 -1 217t-1 217q-215 0 -430 -2q-55 0 -55 53z" />
<glyph unicode="U" horiz-adv-x="1384" d="M180 555q0 166 1 437.5t1 314.5q0 41 11 58t40 17q31 0 44.5 -14.5t13.5 -44.5q-3 -165 -3 -303q0 -46 -1 -93q0 -93 1 -189q1 -144 1 -187q0 -232 106.5 -343.5t300.5 -111.5q173 0 290.5 127t117.5 328q0 78 -2 375.5t-2 406.5q0 28 15 42t40 14q55 0 55 -68l2 -707 q1 -303 -140 -464.5t-398 -161.5q-233 0 -363.5 148.5t-130.5 418.5z" />
<glyph unicode="V" horiz-adv-x="1288" d="M59 1339q0 23 21 39.5t45 16.5q38 0 53 -45q10 -30 40 -109.5t42 -112.5l391 -991q14 33 38 98.5t34 90.5l393 1015q10 28 22.5 41t35.5 13q24 0 43.5 -14t19.5 -35q0 -15 -20 -68q-19 -51 -46 -116t-69 -164.5t-72 -172.5q-2 -4 -35 -94.5t-75 -189.5q-8 -20 -78.5 -198 t-114.5 -282q-18 -36 -35.5 -50.5t-46.5 -14.5q-33 0 -49 18t-33 64q-22 62 -56 148.5t-76.5 189t-142.5 347.5t-210 517q-19 43 -19 59z" />
<glyph unicode="W" horiz-adv-x="1710" d="M90 1331q-2 7 -2 13q0 18 12 33q16 20 45 20t41.5 -12.5t18.5 -43.5q7 -38 103.5 -531t125.5 -652q29 77 61.5 170t56 163.5t59.5 184t52 165.5t55 178.5t48 156.5q16 55 31.5 77.5t50.5 22.5q24 0 42 -15t23 -32l353 -1039q168 752 239 1147q6 34 20.5 48t43.5 14 q23 1 39 -17q12 -14 13 -34q0 -5 -1 -11l-283 -1267q-5 -22 -8 -31.5t-10 -22.5t-19 -17.5t-30 -4.5q-52 0 -72 67q-68 210 -192 571t-154 458q-16 -54 -32 -106t-35 -110.5t-32.5 -99t-36.5 -108t-34 -99t-38.5 -109t-36.5 -102t-41 -114.5t-40 -111q-3 -7 -11.5 -34 t-14 -39t-15.5 -30t-24 -26t-31 -8q-19 0 -32.5 5t-24 18.5t-17 27t-13 41.5t-11 50.5t-12.5 66.5t-15 78q-209 1022 -215 1050z" />
<glyph unicode="X" horiz-adv-x="1259" d="M70 47q0 4 0.5 7t1.5 7t1.5 6.5t2.5 6.5l3 6t4.5 7t4.5 7t5.5 8.5t6.5 8.5l463 604q-39 45 -430 555q-3 3 -9.5 11t-9.5 12t-7 11t-5.5 14t-1.5 15q0 23 19 39.5t41 16.5q14 0 27.5 -10t19.5 -18t24 -34q238 -332 400 -534l405 540q27 37 39 47.5t31 10.5q23 0 41 -16 t18 -32q0 -9 -1 -15.5t-4 -13.5t-5 -10.5t-9.5 -13t-10.5 -14.5q-258 -331 -439 -567l469 -600q29 -37 29 -58q0 -20 -18.5 -35.5t-40.5 -15.5q-7 0 -12 1t-10.5 4.5t-9 5.5t-9 8.5t-7.5 9t-9 12t-9 12.5q-221 308 -303 410l-135 170l-111 -139l-334 -457q-22 -30 -33 -36 q-10 -5 -26 -5q-23 0 -40 16t-17 35z" />
<glyph unicode="Y" horiz-adv-x="1210" d="M59 1337q0 22 18.5 38t41.5 16q10 0 17.5 -2.5t15 -10.5t11 -13t13.5 -21t14 -23q27 -44 100 -161t122 -195t107 -169t91 -139q14 21 49.5 78.5t135.5 218t243 385.5q2 3 6.5 10.5t6.5 10.5t6 8.5t6.5 8.5t6.5 6.5t8 5t9 3t11 1.5q26 0 42.5 -15.5t16.5 -36.5 q0 -15 -27 -59q-79 -119 -238.5 -366.5t-229.5 -352.5q0 -89 -1.5 -257t-1.5 -257q0 -25 -16.5 -38t-38.5 -13q-24 0 -40.5 14.5t-16.5 44.5v136q0 65 2 181t2 181v12q-50 75 -246.5 375t-214.5 328q-31 48 -31 67z" />
<glyph unicode="Z" horiz-adv-x="1099" d="M80 61q0 27 6 41q24 56 115 181l118 168q142 200 400 571l170 264q-138 -1 -375.5 -2t-376.5 -2q-55 0 -55 49q0 58 63 58h437q57 0 189.5 2t193.5 2t61 -54q0 -29 -41 -88l-106 -166q-61 -88 -211 -311.5t-265 -388.5q-34 -48 -99 -144t-95 -139q210 0 456 5.5t320 5.5 q30 0 44.5 -17.5t14.5 -40.5q0 -28 -19 -40.5t-69 -12.5q-122 -2 -766 -2q-63 0 -83 10q-27 15 -27 51z" />
<glyph unicode="[" horiz-adv-x="581" d="M166 -266q0 151 6 476.5t8 479.5v701q0 33 18.5 51t47.5 18q5 0 51 0.5t106 1t99 0.5q27 0 39 -14.5t12 -34.5q0 -45 -53 -45h-217q0 -372 -2 -528q-1 -63 -3 -210.5t-4.5 -314t-3.5 -204.5q-2 -115 -2 -379q41 0 112.5 1t96.5 1q53 0 53 -49q0 -47 -55 -47h-231 q-41 0 -59.5 21.5t-18.5 74.5z" />
<glyph unicode="\" horiz-adv-x="739" d="M39 1417q0 20 16.5 30.5t36.5 10.5q37 0 51 -51l535 -1341q20 -59 20 -76q0 -18 -18.5 -28.5t-38.5 -10.5q-29 0 -45 45l-528 1323q-29 84 -29 98z" />
<glyph unicode="]" horiz-adv-x="581" d="M29 1413q0 20 12 34.5t39 14.5q39 0 99 -0.5t106 -1t51 -0.5q29 0 47 -18t18 -51v-701q2 -162 8.5 -484.5t6.5 -471.5q0 -53 -18.5 -74.5t-59.5 -21.5h-232q-55 0 -55 47q0 49 53 49q25 0 96.5 -1t112.5 -1q0 263 -2 379q-1 78 -5.5 386.5t-4.5 342.5q-2 156 -2 528h-217 q-53 0 -53 45z" />
<glyph unicode="^" horiz-adv-x="1024" d="M51 606q0 26 15 53l360 676q33 56 80 56q42 0 74 -52q40 -63 178.5 -309t193.5 -348q19 -30 19 -51t-18 -37t-42 -16q-23 0 -37 20q-43 88 -177.5 334.5t-190.5 343.5q-64 -115 -188.5 -368.5t-163.5 -325.5q-15 -27 -37 -27q-23 0 -44.5 14.5t-21.5 36.5z" />
<glyph unicode="_" horiz-adv-x="1024" d="M23 -49q2 27 21.5 38t68.5 11q82 0 446 -1t385 -1q28 0 42.5 -12.5t14.5 -32.5q0 -33 -18.5 -45t-71.5 -12h-835q-28 0 -41.5 16.5t-11.5 38.5z" />
<glyph unicode="`" horiz-adv-x="460" d="M76 1407q0 21 17 37t36 16q27 0 47 -26q57 -73 191 -230q18 -22 18 -39q0 -15 -15 -28t-30 -13q-11 0 -35 17q-115 112 -207 219q-22 28 -22 47z" />
<glyph unicode="a" d="M104 432q0 213 132.5 359.5t326.5 146.5q102 0 187.5 -46t140.5 -132v96q0 76 57 76q17 0 28 -6t16.5 -12.5t8 -23.5t3 -27t0.5 -34l-3 -159l-4 -312q0 -123 11 -317q0 -21 -19.5 -34t-40.5 -13t-33 8.5t-17.5 34.5t-6 46t-0.5 70v29q-110 -194 -359 -194 q-94 0 -175 36.5t-136 98t-86 142t-31 167.5zM219 436q0 -149 95.5 -246.5t230.5 -97.5q153 0 252.5 103t99.5 266q0 88 -29 161t-77 118.5t-108.5 70.5t-125.5 25q-144 0 -241 -115.5t-97 -284.5z" />
<glyph unicode="b" horiz-adv-x="1173" d="M162 70l8 436l-8 913q1 30 17.5 44t39.5 14t40 -13t17 -45q-2 -89 -3 -211q-1 -82 -1 -148v-64q0 -90 1 -175t1 -86q53 101 151.5 157t215.5 56q123 0 223 -69t152.5 -176t52.5 -226q0 -209 -131 -351t-322 -142q-104 0 -199 52.5t-145 141.5v-121q-2 -34 -15 -48.5 t-42 -14.5q-28 0 -40.5 16.5t-12.5 59.5zM270 461q0 -161 101 -265t233 -104q143 0 246.5 108.5t103.5 274.5q0 142 -96.5 253.5t-230.5 111.5q-145 0 -251 -108.5t-106 -270.5z" />
<glyph unicode="c" horiz-adv-x="909" d="M98 438q1 92 33 181t89 161.5t145 117t192 44.5q134 0 244 -65q33 -20 33 -52q0 -19 -15 -37t-37 -18q-13 0 -24.5 4.5t-27.5 14.5t-25 14q-75 33 -158 33q-60 0 -114 -23.5t-93.5 -62.5t-68.5 -88.5t-43.5 -102.5t-14.5 -104q0 -153 86 -256t225 -103q72 0 115 10.5 t84 36.5q7 4 25 15.5t29.5 16.5t23.5 5q19 0 35 -19.5t16 -37.5q0 -23 -18 -41q-113 -98 -291 -98q-105 0 -192.5 42t-141.5 108.5t-83 145.5q-28 76 -28 153v5z" />
<glyph unicode="d" d="M102 440q0 210 133.5 353t327.5 143q102 0 190.5 -49t137.5 -135l-6 647q0 43 12.5 60.5t46.5 17.5q55 0 55 -54l-4 -528v-383q0 -26 2 -166.5t2 -298.5q0 -61 -55 -61q-57 0 -57 69v138q-58 -98 -147 -153.5t-205 -55.5q-123 0 -224.5 67.5t-155 171.5t-53.5 217z M215 446q0 -146 96.5 -249t231.5 -103q142 0 243 100.5t101 268.5q0 162 -93 265t-231 103q-142 0 -245 -111t-103 -274z" />
<glyph unicode="e" horiz-adv-x="1038" d="M102 422q0 134 58.5 253.5t163 193t227.5 73.5q80 0 153 -31.5t124 -82.5t81.5 -116.5t30.5 -131.5q0 -41 -3 -61.5t-17.5 -42.5t-46.5 -31.5t-87 -10.5q-36 -3 -161 -3q-47 1 -106 1q-130 1 -212 0h-88q0 -85 38.5 -159.5t116 -123.5t177.5 -49q135 0 250 76q5 2 15 9.5 t19.5 11.5t20.5 4q20 0 37.5 -18.5t17.5 -37.5q0 -21 -11.5 -35t-35.5 -30q-130 -92 -329 -92q-116 0 -214.5 59t-156.5 158.5t-62 216.5zM225 524q1 0 170 1.5t270 4.5t140 7q24 3 24 24q0 121 -80 199t-186 78q-137 0 -231 -94.5t-107 -219.5z" />
<glyph unicode="f" horiz-adv-x="710" d="M31 860q0 29 19.5 44.5t70.5 15.5h147v131q0 93 18.5 169.5t59 141t114.5 101t175 36.5q61 0 110 -18q37 -13 37 -49q0 -21 -11.5 -36.5t-31.5 -15.5q-22 0 -69 10q-43 9 -69 9h-5q-107 -3 -164 -99t-57 -229v-151h248q37 0 53 -13t16 -45q0 -49 -55 -49l-260 2 q0 -85 1 -287t1 -290q0 -33 2 -99.5t2 -99.5q0 -51 -57 -51q-30 0 -43 18t-13 57v185q0 47 -2 254v211v100h-184q-25 0 -39 13.5t-14 33.5z" />
<glyph unicode="g" horiz-adv-x="1146" d="M98 438q0 216 134 360t329 144q101 0 184 -48.5t140 -129.5v110q0 28 14 43t39 15q23 0 38 -14t15 -39q-4 -484 -4 -676l2 -183v-13q0 -215 -129 -343q-134 -133 -338 -133q-151 0 -274 57q-35 15 -49.5 30t-14.5 38q0 22 16 38.5t38 16.5q12 0 25 -5.5t32 -15.5t33 -16 q99 -39 202 -39q159 0 257 107t98 285v163q-57 -94 -150 -147t-209 -53q-121 0 -220 62.5t-153.5 165t-54.5 220.5zM213 442q0 -151 94.5 -248.5t231.5 -97.5q147 0 248.5 99.5t101.5 265.5q0 182 -94 279.5t-240 99.5h-4q-94 0 -171 -50q-78 -51 -122.5 -142.5 t-44.5 -205.5z" />
<glyph unicode="h" horiz-adv-x="1107" d="M164 45q0 67 2 161t2 120l-2 1089q0 82 63 82q54 0 54 -74q0 -29 -1.5 -88.5t-3 -211t-2.5 -390.5q46 98 135.5 155.5t211.5 57.5q156 0 252 -115.5t96 -287.5v-490q0 -59 -60 -59q-26 0 -42.5 14t-16.5 39q10 192 10 485q0 148 -71 227t-197 79q-132 0 -227 -103 t-95 -254q0 -67 2 -238t2 -192q0 -57 -57 -57q-25 0 -40 13.5t-15 37.5z" />
<glyph unicode="i" horiz-adv-x="468" d="M143 1348q12 92 99 92q42 0 65 -25t23 -67q0 -47 -27.5 -70t-73.5 -23q-38 0 -62 26.5t-24 66.5zM180 59v811q1 33 16.5 48.5t36.5 15.5q40 0 50 -21t10 -92q0 -76 -1 -238.5t-1 -238.5v-278q0 -22 -1.5 -33.5t-7 -22.5t-18 -15.5t-33.5 -4.5q-30 0 -40.5 16t-10.5 53z " />
<glyph unicode="j" horiz-adv-x="434" d="M-168 -408q0 30 14 47t33 17t53.5 -12.5t65.5 -12.5q73 0 115.5 54.5t48.5 146.5q4 48 5.5 92t2.5 108.5t1 113t-0.5 164t-0.5 202.5q0 54 -2 186t-2 183q1 26 16 39.5t37 13.5q26 0 41.5 -13t15.5 -36v-541q0 -239 -8 -543q-3 -112 -83 -193t-205 -81q-30 0 -61 5 t-59 21t-28 39zM127 1348q0 41 28.5 66.5t71.5 25.5q42 0 65 -25t23 -67q0 -44 -28 -68.5t-72 -24.5q-38 0 -63 26.5t-25 66.5z" />
<glyph unicode="k" horiz-adv-x="927" d="M164 82l4 252v899q0 135 -2 188v7q0 67 59 67q35 0 44.5 -20.5t9.5 -71.5q0 -151 -1.5 -474t-1.5 -474l439 448l8.5 8.5l8.5 8.5t7.5 7t7.5 7t7 5.5t8 4.5t7 3t8.5 2.5t8.5 0.5q24 0 42 -18t18 -43q0 -19 -41 -60q-40 -40 -162 -157.5t-168 -163.5l379 -414 q20 -23 20 -41q0 -19 -16.5 -39t-44.5 -20q-14 0 -27.5 8.5t-18.5 14.5t-24 28l-342 395q-20 -18 -63 -61l-62 -62v-233q0 -25 -1 -38.5t-6.5 -27.5t-17 -20t-30.5 -6q-27 0 -39.5 11t-15 27t-2.5 52z" />
<glyph unicode="l" horiz-adv-x="448" d="M176 1415q0 30 17.5 47t44.5 17q37 0 45 -19.5t8 -76.5v-7q-1 -103 -8 -491t-7 -563q0 -55 6 -162q7 -128 7 -132q0 -42 -49 -42q-59 0 -62 92q-5 81 -5 494q0 321 3 843z" />
<glyph unicode="m" horiz-adv-x="1669" d="M164 37v90l8 367q-1 95 -1.5 168.5t-1.5 111.5t-1.5 61.5t-1 32.5t-0.5 11q0 59 57 59q29 0 41.5 -18t14.5 -58l2 -104q31 68 88.5 113t113.5 61t115 16q103 0 180 -61t99 -152q44 95 129 153t206 58q86 0 150 -32t100 -89t53 -127t17 -155v-185q0 -55 -2.5 -163.5 t-3.5 -147.5q0 -26 -17.5 -39.5t-42.5 -13.5q-21 0 -37 12.5t-16 36.5q8 368 8 471q0 322 -227 322q-127 0 -203 -78t-82 -234v-198v-228q0 -63 -11 -81q-14 -23 -52 -23q-21 0 -35 14t-14 39q4 176 4 325q0 99 -2 187q-6 129 -62 204t-166 75q-147 0 -222 -101t-75 -291 l2 -407q-3 -47 -59 -47q-22 0 -37.5 12t-15.5 33z" />
<glyph unicode="n" horiz-adv-x="1120" d="M168 848q0 45 12 66.5t49 21.5q34 0 43 -19.5t11 -74.5v-109q43 101 139.5 157t212.5 56q163 0 251.5 -105.5t88.5 -289.5v-277v-190q0 -25 -1 -37.5t-7 -26.5t-19 -20t-35 -6q-53 0 -53 57q0 59 4 219q3 124 2 203v41q-1 53 -7.5 97t-23.5 87t-44 72.5t-72.5 47.5 t-104.5 18q-83 0 -144.5 -26t-96.5 -66t-56 -99t-27.5 -113.5t-6.5 -121.5v-363q0 -57 -64 -57q-49 0 -49 55q0 19 0.5 72.5t1 174.5t0.5 304z" />
<glyph unicode="o" horiz-adv-x="1112" d="M96 430q0 229 139 373.5t367 144.5q34 0 43 -16q92 -12 165 -58.5t116 -113.5t65.5 -144t22.5 -157q0 -205 -138 -341t-341 -136q-85 0 -164.5 32.5t-140.5 89.5t-97.5 142.5t-36.5 183.5zM211 424q0 -97 48.5 -175t120.5 -117.5t150 -39.5q95 0 178 43.5t137 130.5 t54 199q0 163 -89 263t-261 112q-153 -9 -245.5 -120t-92.5 -296z" />
<glyph unicode="p" horiz-adv-x="1159" d="M164 -397l2 821l-2 455q3 63 57 63q53 0 55 -57v-148q54 97 149 152t210 55q123 0 221 -65t149.5 -171t51.5 -231q0 -136 -60.5 -250t-165.5 -179.5t-231 -65.5q-103 0 -190 45t-140 123q0 -26 2 -115.5t2 -149.5q0 -43 1 -138t1 -146q0 -29 -14 -45q-14 -15 -42 -15h-3 q-53 3 -53 62zM270 449q0 -164 91 -260.5t229 -96.5q148 0 251 109t103 276q0 154 -94 257.5t-229 103.5q-148 0 -249.5 -110.5t-101.5 -278.5z" />
<glyph unicode="q" horiz-adv-x="1144" d="M100 442q0 216 130.5 359t324.5 143q96 0 183 -50.5t139 -137.5l2 118q0 29 17 45.5t40 16.5q21 0 36 -13t15 -38q-8 -303 -8 -363v-504q0 -78 1 -219t1 -219q0 -29 -14.5 -43t-38.5 -14q-62 0 -62 59v6q4 98 4 566q-53 -84 -143.5 -128t-200.5 -44q-122 0 -221 67 t-152 172t-53 221zM211 444q0 -144 97.5 -250t232.5 -106q143 0 239.5 96t96.5 271q0 89 -27 163t-71.5 121t-100.5 73t-117 26q-145 0 -247.5 -110t-102.5 -284z" />
<glyph unicode="r" horiz-adv-x="710" d="M176 90q10 395 10 533q0 37 -3 122t-3 125v6q0 58 58 58q51 0 51 -62l2 -174q56 124 145 184t182 60q41 0 59.5 -13t18.5 -44q0 -54 -57 -54h-43q-122 0 -213.5 -114t-91.5 -271q0 -243 -2 -395q0 -57 -58 -57q-37 0 -47 20q-9 17 -8 59v17z" />
<glyph unicode="s" horiz-adv-x="927" d="M115 98q0 26 12 46t39 20q15 0 60 -17.5t112.5 -35t136.5 -17.5q102 0 173 45t71 123q0 42 -17.5 72t-53 48.5t-75.5 29t-100 18.5q-40 6 -54.5 8t-52.5 9t-54 12t-47 15.5t-46 21.5t-35.5 28t-30 36.5t-17 45.5t-7.5 56q0 79 51.5 144t131.5 99.5t169 34.5 q81 0 155 -15.5t114 -35.5q25 -12 36 -23t11 -28q0 -54 -52 -54q-17 0 -51.5 14t-91.5 28t-129 14q-96 0 -165.5 -50t-69.5 -124q0 -37 18 -62t55.5 -39t74 -21t92.5 -14q12 -1 18 -2q57 -8 101 -18t89 -29.5t74.5 -46.5t48 -69t18.5 -97q0 -132 -101.5 -206t-256.5 -74 q-116 0 -235 35.5t-119 74.5z" />
<glyph unicode="t" horiz-adv-x="706" d="M37 868q0 56 63 56h148l2 188q0 18 1 28t5.5 29t18 29t34.5 10q15 0 24.5 -4t14.5 -8t7.5 -18t2.5 -20.5v-29.5q0 -25 -2 -100t-2 -104l236 2q57 0 57 -52q0 -27 -15 -39t-48 -12h-228v-452q0 -152 33 -216.5t119 -64.5q31 0 62 11.5t46 11.5q22 0 34 -17.5t12 -38.5 q0 -35 -35 -49q-55 -20 -111 -20q-148 0 -210 82t-62 272q0 76 3 239.5t3 239.5h-158q-55 0 -55 47z" />
<glyph unicode="u" horiz-adv-x="1136" d="M152 420q0 52 1 217.5t1 216.5q0 78 65 78q49 0 49 -60q-6 -417 -6 -442q0 -53 8 -101t27 -92t47.5 -76.5t72 -51.5t97.5 -19q96 0 163.5 35t105 101.5t54 148t17.5 188.5l2 299q0 35 15.5 53.5t41.5 18.5q32 0 45 -15t13 -55q0 -6 -2 -87q-1 -81 -3 -194q-1 -68 -1 -128 v-78q0 -135 14 -320v-6q0 -53 -53 -53q-52 0 -58 61q-6 55 -6 166q-41 -104 -128 -171.5t-220 -67.5q-92 0 -162.5 32t-113.5 90.5t-64.5 137t-21.5 174.5z" />
<glyph unicode="v" horiz-adv-x="993" d="M55 891q0 20 17.5 34.5t42.5 14.5q11 0 20 -4.5t15 -9.5t12.5 -17t10 -19.5t10 -25t10.5 -26.5q212 -510 301 -723q186 407 317 745q14 36 28.5 55t37.5 19q24 0 41.5 -13.5t17.5 -33.5q0 -24 -25 -80q-1 -1 -24.5 -55.5t-55.5 -127.5t-72.5 -164t-86.5 -192t-86 -184 q-27 -58 -43.5 -75t-53.5 -17q-14 0 -25 4t-18 9t-15 17.5t-12 22t-13.5 30t-16.5 34.5q-40 90 -141 323t-178 406q-15 38 -15 53z" />
<glyph unicode="w" horiz-adv-x="1521" d="M78 895q0 20 21 33.5t42 13.5q35 0 47 -39q131 -495 215 -786q152 376 297 776q16 39 60 39q29 0 44 -14.5t25 -45.5l291 -745l170 614q6 22 20.5 74t20.5 74q10 43 47 43q24 0 44 -13t20 -34q0 -17 -2 -23q-22 -64 -100.5 -329t-104.5 -347q-38 -124 -51 -153 q-10 -23 -24 -31t-38 -8q-30 0 -48 19t-32 61q-43 97 -155 385.5t-123 316.5l-250 -647q-32 -82 -53.5 -110.5t-63.5 -28.5q-34 0 -52.5 18.5t-29.5 59.5q-73 236 -143.5 489.5t-89.5 314.5q-4 12 -4 23z" />
<glyph unicode="x" horiz-adv-x="1003" d="M94 43q0 24 27 55l205 232l116 143l-45 49q-61 68 -252 291q-24 27 -31.5 39.5t-7.5 30.5q0 21 19.5 36t40.5 15q13 0 24 -6.5t16 -12t15 -18.5q245 -299 285 -350q76 85 260 319q8 9 20 24t17.5 20.5t14 13t16.5 10t18 2.5q18 0 37.5 -17t19.5 -36q0 -11 -3 -21 t-12 -22.5t-15.5 -20.5t-23 -26.5t-24.5 -28.5l-249 -295l317 -379q2 -3 8 -10.5t9.5 -12.5t6.5 -11.5t3 -12.5q0 -21 -19.5 -37t-40.5 -16q-31 0 -63 47q-28 35 -146.5 181t-144.5 179q-180 -214 -287 -350q-19 -24 -26 -32t-21 -15.5t-33 -7.5q-20 0 -35.5 15.5 t-15.5 35.5z" />
<glyph unicode="y" horiz-adv-x="989" d="M37 -397q0 30 14.5 42.5t52.5 12.5q79 0 115.5 23t91.5 108q37 57 127 242l-94 200l-246 564q-4 9 -11.5 25t-11 24t-6.5 19.5t-3 21.5q0 24 18 38.5t41 14.5q27 0 45 -31q244 -584 330 -774q133 284 313 741q8 23 12.5 32.5t18 19.5t33.5 10q24 0 40.5 -14.5t16.5 -38.5 q0 -17 -8 -37q-36 -90 -81.5 -194.5t-109 -243t-96.5 -209t-110.5 -235.5t-84.5 -179q-66 -119 -134.5 -180.5t-153.5 -61.5q-35 0 -58 3.5t-42 17.5t-19 39z" />
<glyph unicode="z" horiz-adv-x="905" d="M94 76q0 30 30.5 73.5t99.5 125.5q9 10 14 16l442 540l-117 -2q-53 1 -190 -3q-107 -3 -181 -3h-40q-25 0 -37.5 15t-12.5 36q0 34 23.5 46t77.5 12q55 0 164 -2t165 -2q31 0 95.5 2t99.5 2q90 0 90 -62q-4 -31 -10 -39q-15 -24 -34 -48t-44 -52t-35 -41 q-88 -106 -249.5 -305t-190.5 -235l-37 -50l447 11q74 4 108 4q30 0 43.5 -15.5t13.5 -38.5q0 -56 -59 -59q-6 0 -40.5 1t-57.5 1q-42 0 -208.5 -3t-275.5 -3q-52 0 -73 16.5t-21 61.5z" />
<glyph unicode="{" horiz-adv-x="583" d="M66 547q0 21 10 37.5t18 23t34.5 21.5t33.5 20q5 4 23.5 18.5t26 21t22 21.5t21 26t12 27t5.5 32q0 75 -41.5 208t-42.5 211q0 108 84 194.5t209 86.5q18 0 31.5 -15t13.5 -34q0 -20 -12 -35.5t-31 -15.5q-77 0 -133.5 -53t-56.5 -128t39.5 -209t40.5 -212 q0 -135 -203 -250q40 -23 68.5 -43t63 -51t53 -68t18.5 -78q0 -75 -40 -209t-40 -211q0 -70 51 -127t131 -57q17 0 29 -14t12 -33q0 -47 -39 -47q-128 0 -207.5 83.5t-79.5 194.5q0 75 39.5 208t42.5 208q0 17 -5.5 32t-20.5 31t-23.5 24t-31.5 26t-27 22q-6 4 -28.5 17.5 t-29 19t-19.5 18t-17 26.5t-4 32z" />
<glyph unicode="|" horiz-adv-x="497" d="M195 -338l2 682l-2 1067q0 66 51 66q37 0 47 -16t10 -72q0 -76 -1 -522.5t-1 -522.5l2 -676q0 -40 -12 -58t-47 -18q-28 0 -38.5 17t-10.5 53z" />
<glyph unicode="}" horiz-adv-x="583" d="M57 1446q0 19 13.5 34t31.5 15q125 0 209 -86.5t84 -194.5q-1 -78 -42.5 -211t-41.5 -208q0 -19 5.5 -36t22 -35.5t23.5 -25.5t33 -27.5t27 -21.5q7 -5 33.5 -20t34.5 -21.5t18 -23t10 -37.5q0 -18 -4 -32t-17 -26.5t-19.5 -18t-29 -19t-28.5 -17.5q-5 -4 -27.5 -21.5 t-31.5 -26t-23.5 -24t-20.5 -31t-6 -32.5q3 -75 42.5 -208t39.5 -208q0 -111 -79.5 -194.5t-207.5 -83.5q-38 0 -38 49q0 19 12 32t29 13q80 0 131 57t51 127q0 77 -40 211t-40 209q0 41 18.5 78t53 68t63 51t68.5 43q-203 115 -203 250q1 78 40.5 212t39.5 209 q0 74 -57 127.5t-134 53.5q-19 0 -31 15.5t-12 35.5z" />
<glyph unicode="~" horiz-adv-x="1024" d="M102 516q75 166 232 166q46 0 87.5 -17.5t73.5 -43t63 -51t67.5 -43t74.5 -17.5q74 0 119 104q16 43 58 43q24 0 37 -17t8 -38q-34 -92 -87.5 -138t-142.5 -46q-46 1 -89 18t-75.5 41t-63 48.5t-66 42t-70.5 18.5q-19 0 -36 -5t-26.5 -10t-22 -19t-16 -18.5t-14.5 -24 t-12 -20.5q-1 -2 -5.5 -8t-6 -8.5t-5.5 -7t-7.5 -6t-8.5 -4t-11 -3.5t-14 -1q-26 0 -38 20.5t-3 44.5z" />
<glyph unicode="&#xa1;" horiz-adv-x="436" d="M133 858q0 38 25 61t63 23q41 0 68.5 -24.5t27.5 -67.5q0 -39 -26 -63.5t-66 -24.5q-41 0 -66.5 27.5t-25.5 68.5zM162 -406l10 504l6 326q2 50 11.5 67t37.5 17q19 0 31 -13.5t12 -41.5q11 -688 11 -803q0 -68 -9.5 -91.5t-48.5 -23.5q-61 0 -61 59z" />
<glyph unicode="&#xa2;" horiz-adv-x="952" d="M111 647q1 112 45 216.5t133 183t205 98.5l-2 213q0 65 49 65q31 0 43 -16.5t12 -54.5v-201q117 -7 217 -66q33 -20 33 -51q0 -19 -14.5 -37t-36.5 -18q-13 0 -25 4.5t-28.5 14.5t-24.5 14q-73 32 -158 32q-60 0 -114 -23.5t-93.5 -62t-68.5 -88t-43.5 -102.5t-14.5 -104 q0 -153 86 -256t226 -103q72 0 114 10.5t84 36.5q7 4 25 15.5t29.5 16.5t23.5 5q19 0 35 -19.5t16 -37.5q0 -23 -18 -41q-101 -87 -252 -98v-160q0 -38 -12 -55t-45 -17q-27 0 -38.5 15.5t-11.5 50.5v170q-118 19 -206.5 92t-129.5 167t-40 191z" />
<glyph unicode="&#xa3;" horiz-adv-x="1056" d="M57 43q0 66 60 113t133 47q17 0 69 -13q29 36 39.5 123t5.5 177t-20 169h-182q-45 0 -45 52q0 49 63 49h146q-11 61 -15 182q-8 217 80.5 337t272.5 120q94 0 174 -41q26 -14 33 -37t-5 -43q-11 -21 -32 -22.5t-46 10.5q-72 30 -135 30q-231 0 -231 -313q0 -132 14 -223 q129 2 283 2q28 0 42.5 -12.5t14.5 -32.5q0 -36 -18 -48t-78 -12q-15 0 -110.5 1t-114.5 1q56 -371 -31 -493q7 -2 72 -21.5t108.5 -32t102.5 -24.5t92 -12q76 0 94 61q14 49 55 49q23 0 38.5 -15.5t12.5 -41.5q-13 -81 -68 -115t-147 -34q-73 0 -270.5 56t-239.5 58 q-37 0 -58.5 -11t-41.5 -40q-3 -5 -11 -19t-12 -18.5t-14.5 -10t-25.5 -5.5q-26 0 -40 16t-14 37z" />
<glyph unicode="&#xa4;" horiz-adv-x="1138" d="M82 193q0 20 22 55l152 151q-61 94 -61 201q0 178 102 299l-158 164q-6 7 -15 16.5t-12.5 13.5t-7.5 10t-5 12t-1 15q0 22 18 38t38 16q24 0 55 -37l158 -184q108 67 237 67q99 0 184 -59l130 147q3 3 10 11.5t9.5 11t8 8.5t8.5 8t8.5 5.5t10 5t10.5 2.5t12 1 q19 0 36.5 -15.5t17.5 -35.5q0 -9 -3 -17.5t-11 -19t-13 -16.5t-18 -19.5t-17 -17.5l-123 -127q47 -62 73 -136.5t26 -141.5q0 -137 -80 -248l145 -152q27 -27 27 -51q0 -21 -18 -37t-38 -16q-7 0 -13.5 2t-14 8t-10.5 9.5t-13.5 15t-13.5 14.5l-121 139q-118 -86 -252 -86 q-120 0 -242 99l-114 -132q-18 -22 -25 -29.5t-19 -13.5t-28 -6q-20 0 -35.5 16t-15.5 36zM297 598q0 -115 83 -197t179 -82q115 0 210 89.5t95 222.5q0 132 -77 217.5t-212 85.5q-120 0 -199 -93.5t-79 -242.5z" />
<glyph unicode="&#xa5;" horiz-adv-x="1189" d="M57 1331q0 22 18.5 37.5t41.5 15.5q21 0 33 -10t30 -41q356 -576 416 -665l395 637q28 45 43 60t37 15q26 0 44 -16t18 -37q0 -10 -3 -19t-5.5 -13.5t-13 -20t-15.5 -23.5q-210 -321 -426 -645h209q45 0 61 -8.5t16 -38.5q0 -32 -16 -41.5t-55 -9.5h-236q0 -26 -1 -80 t-1 -80h240q69 0 69 -45q0 -30 -14.5 -42.5t-56.5 -12.5h-238v-176q0 -39 -11 -56.5t-44 -17.5q-34 0 -47 18t-13 58l3 174l-259 2q-53 0 -53 55q0 45 68 45q38 0 123 -1t123 -1q2 53 2 160q-68 0 -162.5 1t-106.5 1q-28 0 -39.5 17t-7.5 38q1 14 8 23t19.5 13t24.5 5.5 t30 1.5q35 0 104.5 -1t104.5 -1l-426 658q-31 48 -31 67z" />
<glyph unicode="&#xa6;" horiz-adv-x="497" d="M195 43v299q0 64 51 64q37 0 47 -15.5t10 -71.5v-395v-258q0 -41 -10.5 -57.5t-44.5 -16.5q-53 0 -53 72v379zM195 707v376v361q0 24 15.5 37.5t37.5 13.5q29 0 41 -14.5t12 -48.5v-353v-366q0 -37 -12 -51.5t-41 -14.5q-27 0 -40 13.5t-13 46.5z" />
<glyph unicode="&#xa7;" horiz-adv-x="1001" d="M113 653q0 47 16.5 90.5t43.5 76t50.5 53.5t48.5 38q-38 24 -63 73t-25 110q0 71 33.5 134t86.5 105t118 66t129 24q135 0 235 -47q43 -19 43 -51q0 -20 -11.5 -33.5t-37.5 -13.5q-14 0 -45.5 12t-81 24.5t-108.5 12.5q-100 0 -177 -65t-77 -162q0 -37 13.5 -66.5 t34.5 -48.5t54.5 -35.5t63.5 -25.5t73 -19q171 -38 261 -110.5t94 -206.5q3 -91 -28 -156.5t-97 -126.5q57 -71 57 -174q0 -97 -51.5 -174.5t-134.5 -118.5t-180 -41q-111 0 -220 41q-105 37 -108 82q0 21 13 37t34 16q17 0 49 -16q114 -57 232 -57q108 0 186 60.5t78 160.5 q0 44 -14.5 77.5t-35 55t-59.5 40t-72 28.5t-88 24q-57 14 -98 28t-88.5 39t-77 55.5t-49.5 78t-20 106.5zM211 657q0 -41 15.5 -74t37.5 -54t59.5 -39t68 -28t75.5 -22q48 -13 104.5 -32.5t88.5 -32.5l32 -13q93 99 90 209q-1 102 -73.5 156t-202.5 82q-99 18 -164 51 q-131 -98 -131 -203z" />
<glyph unicode="&#xa8;" horiz-adv-x="651" d="M82 1268q0 36 26.5 61t65.5 25t62.5 -25t23.5 -63t-26.5 -62t-69.5 -24q-35 0 -58.5 25t-23.5 63zM393 1270q0 36 26.5 61t65.5 25t61.5 -26t22.5 -64q0 -39 -26.5 -60.5t-67.5 -21.5q-35 0 -58.5 25t-23.5 61z" />
<glyph unicode="&#xa9;" horiz-adv-x="1550" d="M102 659q0 168 57 310.5t151.5 236.5t216.5 146.5t253 52.5q136 0 259 -52t213 -142.5t143 -220t53 -277.5q0 -203 -83 -369.5t-236.5 -264t-348.5 -97.5q-127 0 -248.5 48.5t-217 134t-154 215t-58.5 279.5zM201 678q0 -131 49 -244t131 -190t190 -120.5t226 -43.5 q155 0 284 89t200 233t69 305q-2 173 -78 309.5t-209 212.5t-299 76q-163 0 -292 -81.5t-200 -224.5t-71 -321zM432 674q0 101 44 191.5t127 148t185 57.5q114 0 211 -57q27 -18 27 -43q0 -16 -10.5 -30.5t-30.5 -14.5q-10 0 -20 4t-22.5 11.5t-20.5 10.5q-60 29 -138 29 q-110 0 -183 -92.5t-73 -204.5q0 -126 79 -212.5t184 -86.5q60 0 88.5 6.5t60.5 26.5q6 3 17.5 10t18 11t15 7t15.5 3q16 0 28.5 -14t12.5 -29q0 -20 -17 -37q-40 -35 -101.5 -57.5t-133.5 -22.5q-158 0 -260.5 116t-102.5 269z" />
<glyph unicode="&#xaa;" horiz-adv-x="802" d="M63 987q0 152 95 256.5t233 104.5q68 0 126.5 -29.5t98.5 -83.5v51q0 57 43 57q31 0 38.5 -18t7.5 -59q-1 -41 -2.5 -164t-2.5 -166q0 -27 5 -217q0 -19 -13 -29t-33 -10q-43 0 -43 51v62q-73 -119 -247 -119q-133 0 -219.5 93t-86.5 220zM158 989q0 -101 65 -167 t156 -66q103 0 172.5 71.5t69.5 180.5q0 120 -70 189t-164 69q-98 0 -163.5 -78.5t-65.5 -198.5z" />
<glyph unicode="&#xab;" horiz-adv-x="868" d="M57 492q0 5 0.5 9.5t1.5 8.5t1.5 6.5t3 6.5t3.5 6t5 6t5.5 6t6.5 7.5t8 8.5q39 42 128 132.5t118 121.5q23 23 41 23q16 0 31.5 -12.5t15.5 -30.5q0 -20 -31 -56l-215 -243l226 -248q32 -32 32 -54q0 -17 -16 -31t-35 -14q-18 0 -49 31l-242 242q-23 23 -31 37.5t-8 36.5 zM430 492q0 5 0.5 9.5t1.5 8.5t1.5 6.5t3 6.5t3.5 6t5 6t5.5 6t6.5 7.5t8 8.5q39 42 128 132.5t118 121.5q23 23 41 23q16 0 31.5 -12.5t15.5 -30.5q0 -20 -31 -56l-215 -243l225 -248q33 -33 33 -54q0 -17 -16 -31t-35 -14q-18 0 -49 31l-242 242q-23 23 -31 37.5t-8 36.5z " />
<glyph unicode="&#xac;" horiz-adv-x="983" d="M66 555q0 53 57 53q53 0 374.5 2t348.5 2q53 0 53 -65t1 -179t1 -153q0 -59 -49 -59q-53 0 -53 55v299q-258 -4 -678 -4q-55 0 -55 49z" />
<glyph unicode="&#xad;" horiz-adv-x="710" d="M88 489q0 27 17.5 39.5t60.5 12.5h393q64 0 64 -43q0 -34 -17 -47t-69 -13h-392q-57 0 -57 51z" />
<glyph unicode="&#xae;" horiz-adv-x="1544" d="M102 662q0 168 56.5 310t151 235t216 144.5t252.5 51.5q136 0 258 -51.5t211.5 -141.5t142 -219.5t52.5 -277.5q0 -203 -82.5 -369.5t-235.5 -264t-348 -97.5q-101 0 -199.5 30.5t-184 90t-150.5 140.5t-102.5 189.5t-37.5 229.5zM199 680q0 -131 48.5 -244.5t130 -190.5 t189.5 -121t226 -44q155 0 284 89t200 233t69 305q-3 262 -166.5 430t-415.5 168q-165 0 -294.5 -81t-200 -223t-70.5 -321zM557 373l4 125q0 54 -1 195t-1 202v129q0 59 76 59h147q117 0 182.5 -62t65.5 -157q0 -80 -41 -139t-104 -82q24 -37 51.5 -75t64.5 -87.5t54 -72.5 q6 -6 12 -19.5t6 -21.5q0 -15 -12.5 -28t-30.5 -13q-22 0 -35 18l-200 279q-55 0 -95 1t-55 1v-246q0 -49 -47 -49q-41 0 -41 43zM643 700h113q94 0 143 35t49 125q0 146 -180 146q-17 0 -61 -1t-64 -1v-304z" />
<glyph unicode="&#xaf;" horiz-adv-x="708" d="M82 1288q0 55 84 55q26 0 85.5 -1t88.5 -1q53 0 132.5 2.5t92.5 2.5q28 0 43 -13t17 -33q2 -31 -18 -46t-64 -15q-29 0 -105.5 1t-115.5 1q-38 0 -102 -2t-85 -2q-53 0 -53 51z" />
<glyph unicode="&#xb0;" horiz-adv-x="583" d="M51 1143q0 113 67.5 183.5t176.5 70.5q100 0 168.5 -67t68.5 -177q0 -107 -70 -177.5t-177 -70.5q-97 0 -165.5 67.5t-68.5 170.5zM127 1145q0 -72 45 -120t113 -48q73 0 122.5 49.5t49.5 130.5q0 76 -46.5 122t-123.5 46q-70 0 -115 -49.5t-45 -130.5z" />
<glyph unicode="&#xb1;" horiz-adv-x="983" d="M70 61q3 27 24 35t60 8q27 0 137.5 -1t171.5 -1h385q51 0 51 -47q0 -32 -20 -43.5t-76 -11.5h-686q-28 0 -39.5 19.5t-7.5 41.5zM98 705q3 28 23 36.5t69 8.5h265v337q0 27 16 40.5t37 13.5q29 0 40 -17t11 -63v-313h305q27 0 40.5 -15.5t13.5 -36.5q0 -32 -15.5 -41.5 t-60.5 -9.5q-47 -2 -285 -2q0 -71 1 -190.5t1 -139.5q0 -49 -57 -49q-47 0 -47 76v303h-310q-28 0 -39.5 19.5t-7.5 42.5z" />
<glyph unicode="&#xb2;" horiz-adv-x="649" d="M70 813q0 40 41 78l219 217q35 33 52.5 51t41 47t33.5 55.5t10 55.5q0 58 -44.5 97.5t-113.5 39.5q-79 0 -139 -68q-24 -28 -53 -28q-19 0 -32 14t-13 35q0 27 37 59q34 34 88.5 59t111.5 25q106 0 180 -65t74 -168q0 -22 -4.5 -44t-8.5 -37.5t-18.5 -37.5t-20.5 -32.5 t-28 -35.5t-28.5 -31.5t-36 -36.5t-35.5 -36l-184 -176q84 0 208.5 2t133.5 2q22 0 35.5 -13.5t13.5 -33.5q0 -47 -55 -47q-15 0 -64 1t-76 1h-272q-53 0 -53 51z" />
<glyph unicode="&#xb3;" horiz-adv-x="636" d="M63 860q0 20 13 31.5t30 11.5q18 0 50 -16q80 -43 145 -43q74 0 120 45.5t46 118.5q0 71 -48.5 108t-121.5 37h-51q-45 0 -45 49q0 23 24 47q34 33 102.5 104t96.5 99q-225 0 -293 -2q-51 0 -51 45q0 21 12 33t33 12h135q40 0 124 -1t122 -1q29 0 40 -8t11 -35t-41 -68 q-64 -64 -190 -196q96 2 167.5 -56.5t71.5 -158.5q0 -118 -71.5 -190t-194.5 -72q-119 0 -193 49q-43 25 -43 57z" />
<glyph unicode="&#xb4;" horiz-adv-x="464" d="M78 1169q0 16 16 35q23 27 61.5 69t71 79.5t68.5 81.5q21 24 43 24t39.5 -17t17.5 -40q0 -15 -22 -41q-101 -115 -211 -219q-20 -17 -35 -17q-18 0 -33.5 13t-15.5 32z" />
<glyph unicode="&#xb5;" horiz-adv-x="1138" d="M80 -367q0 26 11 56t25 59t26.5 93.5t15.5 150.5q8 288 8 373q0 46 -1 184.5t-1 236.5q0 93 7 113q11 33 56 33q49 0 49 -60q0 -43 -2 -182t-2 -264q0 -66 12.5 -123.5t39.5 -107t76.5 -78.5t117.5 -29q99 0 176 55t116.5 141.5t39.5 186.5q0 33 1 189t1 200 q0 37 13 56.5t50 19.5q30 0 42 -16.5t12 -51.5q-4 -160 -4 -454q0 -228 36 -279q4 -7 31 -35t27 -47q0 -24 -14 -40.5t-39 -16.5q-45 0 -84 45q-50 60 -58 166q-104 -219 -381 -219q-76 0 -134.5 40.5t-80.5 90.5q0 -198 -22 -348q-12 -84 -39 -140.5t-68 -56.5 q-59 0 -59 59z" />
<glyph unicode="&#xb6;" horiz-adv-x="1245" d="M74 1024q0 163 102 264t279 101h127q9 0 333 2q19 0 50.5 1t52.5 1q65 0 65 -64q0 -22 -1 -68.5t-2.5 -161t-2.5 -286.5q0 -124 1 -370.5t1 -370.5q0 -47 -11.5 -63.5t-43.5 -16.5q-37 0 -47 24t-10 82l4 1190h-326v-1192v-35.5t-3 -27.5t-8.5 -24.5t-17 -12.5t-28.5 -6 q-24 0 -38.5 15.5t-14.5 43.5q0 55 3 286.5t1 321.5h-27q-100 0 -176.5 18t-125.5 49.5t-80 78.5t-43.5 100.5t-12.5 120.5z" />
<glyph unicode="&#xb7;" horiz-adv-x="393" d="M102 489q0 38 29 64.5t70 26.5q40 0 65 -27.5t25 -67.5q0 -41 -29 -63.5t-72 -22.5q-37 0 -62.5 26t-25.5 64z" />
<glyph unicode="&#xb8;" horiz-adv-x="497" d="M82 -377q0 16 12.5 28.5t30.5 12.5q11 0 47 -16.5t68 -16.5q40 0 63 23.5t23 69.5q0 42 -30.5 60.5t-76.5 18.5h-18q-27 0 -40.5 26t-4.5 56l51 115h82l-39 -117q27 0 54.5 -8.5t53 -25.5t42 -48.5t16.5 -72.5q0 -85 -54 -135t-135 -50q-53 0 -106 29q-39 22 -39 51z" />
<glyph unicode="&#xb9;" horiz-adv-x="514" d="M70 1354q0 22 24 43q40 30 102 74.5t70 50.5q28 20 56 20q16 0 29.5 -11.5t13.5 -27.5q0 -39 -1.5 -118t-1.5 -119v-465q0 -43 -47 -43q-21 0 -36 12.5t-15 34.5q0 60 6 289t6 327q-64 -52 -131 -96q-18 -12 -32 -12q-17 0 -30 13t-13 28z" />
<glyph unicode="&#xba;" horiz-adv-x="792" d="M63 989q0 152 96.5 255.5t235.5 103.5q148 0 240 -96t92 -244q0 -140 -94 -237t-240 -97q-135 0 -232.5 95t-97.5 220zM158 991q0 -100 70.5 -166.5t162.5 -66.5q103 0 172.5 71.5t69.5 178.5q0 120 -69.5 189t-170.5 69q-99 0 -167 -78t-68 -197z" />
<glyph unicode="&#xbb;" horiz-adv-x="868" d="M55 190q0 21 33 54l225 248l-215 243q-30 34 -30 56q0 18 15.5 30.5t31.5 12.5q18 0 41 -23q28 -30 117 -121t128 -133q3 -3 7 -7.5t6 -6.5t5.5 -6t5 -6t3.5 -5t3 -5.5t2 -6t1.5 -6.5t1 -7t0.5 -9q0 -22 -8 -36.5t-31 -37.5l-241 -242q-31 -31 -50 -31t-35 14t-16 31z M430 190q0 21 33 54l225 248l-215 243q-31 36 -31 56q0 18 15.5 30.5t31.5 12.5q18 0 41 -23q29 -31 118 -121.5t128 -132.5q3 -3 7 -7.5t6 -6.5t5.5 -6t5 -6t3.5 -5t3 -5.5t2 -6t1.5 -6.5t1 -7t0.5 -9q0 -22 -8 -36.5t-31 -37.5l-242 -242q-31 -31 -49 -31q-19 0 -35 14 t-16 31z" />
<glyph unicode="&#xbc;" horiz-adv-x="1542" d="M82 1206q0 22 24 43q39 30 101.5 74.5t71.5 50.5q29 21 55 21q16 0 29.5 -11.5t13.5 -27.5q0 -39 -1 -118.5t-1 -119.5v-465q0 -43 -47 -43q-22 0 -37 12.5t-15 34.5q0 60 6.5 289.5t6.5 327.5q-64 -52 -131 -96q-19 -13 -33 -13q-17 0 -30 13t-13 28zM289 37q0 21 14 43 l754 1278q18 33 47 33q16 0 30.5 -13t14.5 -32t-16 -50q-16 -28 -130 -214.5t-186 -309.5q-33 -57 -101.5 -172t-151 -257t-181.5 -318q-18 -33 -45 -33q-18 0 -33.5 12t-15.5 33zM881 217q0 29 26 68l246 460q17 39 49 39q23 0 39 -13t16 -32q0 -11 -8 -30l-254 -461l252 2 v168q0 29 9.5 43t33.5 14q27 0 38 -10.5t11 -36.5v-178l95 2q47 0 47 -39q0 -53 -41 -53h-101v-119q0 -25 -9.5 -35t-37.5 -10q-47 0 -47 45q0 21 1 59t1 58q-39 1 -94 1t-120 -0.5t-91 -0.5q-30 0 -45.5 18t-15.5 41z" />
<glyph unicode="&#xbd;" horiz-adv-x="1542" d="M82 1206q0 22 24 43q39 30 101.5 74.5t71.5 50.5q29 21 55 21q16 0 29.5 -11.5t13.5 -27.5q0 -39 -1 -118.5t-1 -119.5v-465q0 -43 -47 -43q-22 0 -37 12.5t-15 34.5q0 60 6.5 289.5t6.5 327.5q-64 -52 -131 -96q-19 -13 -33 -13q-17 0 -30 13t-13 28zM285 37q0 21 14 43 l754 1278q18 33 47 33q16 0 30.5 -13t14.5 -32q0 -17 -17 -50q-16 -29 -130 -215t-185 -309q-33 -57 -101.5 -172t-151 -257t-181.5 -318q-18 -33 -45 -33q-18 0 -33.5 12t-15.5 33zM965 49q0 40 41 78l219 217q35 33 52.5 51t41 47t33.5 55.5t10 55.5q0 58 -44.5 97.5 t-113.5 39.5q-80 0 -139 -67q-25 -29 -53 -29q-19 0 -32 14t-13 35q0 27 37 59q34 34 88.5 59t111.5 25q106 0 180 -65t74 -168q0 -22 -4.5 -44t-8.5 -37.5t-18.5 -37.5t-20.5 -32.5t-28 -35.5t-28.5 -31.5t-36 -36.5t-35.5 -36l-184 -176q84 0 208.5 2t133.5 2 q22 0 35.5 -13.5t13.5 -33.5q0 -47 -55 -47q-14 0 -64 1t-76 1h-272q-53 0 -53 51z" />
<glyph unicode="&#xbe;" horiz-adv-x="1603" d="M84 713q0 20 13 31.5t30 11.5q15 0 49 -17q80 -43 146 -43q74 0 119.5 45.5t45.5 118.5q0 71 -48.5 108.5t-121.5 37.5h-51q-45 0 -45 49q0 22 25 47q33 32 101 103t97 100q-224 0 -292 -2q-52 0 -52 45q0 21 12 33t33 12h136q40 0 123.5 -1t121.5 -1q29 0 40.5 -8 t11.5 -35t-41 -68q-65 -65 -191 -197q96 2 168 -57t72 -158q0 -118 -72 -190t-195 -72q-118 0 -192 49q-43 25 -43 58zM379 37q0 21 14 43l754 1278q18 33 47 33q16 0 30.5 -13t14.5 -32t-16 -50q-16 -28 -130 -214.5t-186 -309.5q-33 -57 -101.5 -172t-151 -257 t-181.5 -318q-18 -33 -45 -33q-18 0 -33.5 12t-15.5 33zM946 217q0 27 27 68l246 460q17 39 49 39q23 0 39 -13t16 -32q0 -11 -8 -30l-254 -461l252 2v168q0 29 9.5 43t33.5 14q27 0 38 -10.5t11 -36.5v-178l94 2q47 0 47 -39q0 -53 -41 -53h-100v-119q0 -25 -9.5 -35 t-37.5 -10q-47 0 -47 45q0 21 1 59t1 58q-39 1 -94 1t-120 -0.5t-91 -0.5q-30 0 -46 18t-16 41z" />
<glyph unicode="&#xbf;" horiz-adv-x="985" d="M84 -102q0 32 6 61.5t18.5 55t25.5 47t35.5 43.5t39 37t44.5 34t44.5 30t46.5 29.5t43 26.5q102 65 105 152q1 20 -9 43t-10 43q0 24 15 36.5t38 12.5q41 0 60.5 -38t19.5 -97q0 -80 -42.5 -135t-133.5 -109q-48 -28 -70 -42t-60.5 -43.5t-56.5 -53.5t-33 -59.5 t-15 -75.5q0 -113 88 -188t215 -75q66 0 134 27.5t118 69.5q3 3 14 12t16 12.5t13.5 9t15.5 7.5t14 2q21 0 37.5 -16.5t16.5 -37.5q0 -25 -31 -49q-167 -141 -352 -141q-105 0 -197 42.5t-152.5 128.5t-60.5 198zM426 848q0 45 27.5 69.5t70.5 24.5q44 0 71.5 -25.5 t27.5 -66.5t-29.5 -69.5t-71.5 -28.5q-45 0 -70.5 27t-25.5 69z" />
<glyph unicode="&#xc0;" horiz-adv-x="1288" d="M59 45q0 23 29 86q224 529 227 535q40 94 267 677q19 50 69 50q27 0 42 -11.5t26 -38.5q33 -79 135 -353.5t147 -385.5q3 -8 10.5 -25.5t10.5 -25.5q38 -93 105.5 -253.5t89.5 -215.5q12 -32 12 -45q0 -16 -19 -31.5t-41 -15.5q-16 0 -26.5 3t-19 15t-11 17.5t-12.5 29.5 q-27 70 -61 159t-52.5 137t-21.5 57q-8 0 -154 1t-270 1h-219q-11 -25 -64 -162t-68 -170q-3 -8 -9 -23t-8.5 -21.5t-8 -16.5t-11 -14t-14 -7.5t-18.5 -3.5q-62 0 -62 51zM358 510q300 -3 566 2q-13 34 -128.5 345t-146.5 388q-89 -241 -291 -735zM477 1796q0 21 17 37 t36 16q28 0 48 -26q67 -86 190 -230q18 -22 18 -39q0 -15 -15 -28t-30 -13q-10 0 -34 17q-115 112 -207 219q-23 30 -23 47z" />
<glyph unicode="&#xc1;" horiz-adv-x="1288" d="M59 45q0 23 29 86q224 529 227 535q40 94 267 677q19 50 69 50q27 0 42 -11.5t26 -38.5q33 -79 135 -353.5t147 -385.5q3 -8 10.5 -25.5t10.5 -25.5q38 -93 105.5 -253.5t89.5 -215.5q12 -32 12 -45q0 -16 -19 -31.5t-41 -15.5q-16 0 -26.5 3t-19 15t-11 17.5t-12.5 29.5 q-27 70 -61 159t-52.5 137t-21.5 57q-8 0 -154 1t-270 1h-219q-11 -25 -64 -162t-68 -170q-3 -8 -9 -23t-8.5 -21.5t-8 -16.5t-11 -14t-14 -7.5t-18.5 -3.5q-62 0 -62 51zM358 510q300 -3 566 2q-13 34 -128.5 345t-146.5 388q-89 -241 -291 -735zM524 1559q0 14 17 34 q22 25 61 69t71 80.5t68 80.5q21 24 43 24t40 -17t18 -40q0 -14 -23 -41q-101 -115 -211 -219q-20 -17 -35 -17q-18 0 -33.5 13.5t-15.5 32.5z" />
<glyph unicode="&#xc2;" horiz-adv-x="1288" d="M59 45q0 23 29 86q224 529 227 535q40 94 267 677q19 50 69 50q27 0 42 -11.5t26 -38.5q33 -79 135 -353.5t147 -385.5q3 -8 10.5 -25.5t10.5 -25.5q38 -93 105.5 -253.5t89.5 -215.5q12 -32 12 -45q0 -16 -19 -31.5t-41 -15.5q-16 0 -26.5 3t-19 15t-11 17.5t-12.5 29.5 q-27 70 -61 159t-52.5 137t-21.5 57q-8 0 -154 1t-270 1h-219q-11 -25 -64 -162t-68 -170q-3 -8 -9 -23t-8.5 -21.5t-8 -16.5t-11 -14t-14 -7.5t-18.5 -3.5q-62 0 -62 51zM358 510q300 -3 566 2q-13 34 -128.5 345t-146.5 388q-89 -241 -291 -735zM387 1538q0 18 23 45 q32 35 99.5 111t78.5 88q18 20 30 26.5t33 6.5q20 0 31.5 -6.5t26.5 -22.5q119 -133 180 -205q26 -30 26 -45q0 -16 -13 -29.5t-30 -13.5q-9 0 -18.5 5.5t-14.5 11.5l-5 6q-19 18 -183 186q-39 -40 -85 -88.5t-68 -71t-37 -35.5q-15 -12 -33 -12q-12 0 -26.5 14.5 t-14.5 28.5z" />
<glyph unicode="&#xc3;" horiz-adv-x="1288" d="M59 45q0 23 29 86q224 529 227 535q40 94 267 677q19 50 69 50q27 0 42 -11.5t26 -38.5q33 -79 135 -353.5t147 -385.5q3 -8 10.5 -25.5t10.5 -25.5q38 -93 105.5 -253.5t89.5 -215.5q12 -32 12 -45q0 -16 -19 -31.5t-41 -15.5q-16 0 -26.5 3t-19 15t-11 17.5t-12.5 29.5 q-27 70 -61 159t-52.5 137t-21.5 57q-8 0 -154 1t-270 1h-219q-11 -25 -64 -162t-68 -170q-3 -8 -9 -23t-8.5 -21.5t-8 -16.5t-11 -14t-14 -7.5t-18.5 -3.5q-62 0 -62 51zM358 510q300 -3 566 2q-13 34 -128.5 345t-146.5 388q-89 -241 -291 -735zM358 1618q4 68 52 111 t118 43q43 0 79.5 -20t58.5 -43.5t54 -44.5t66 -22q30 0 47 25.5t19 67.5q1 19 16 30t31 11q20 0 32.5 -11t12.5 -30q0 -91 -45.5 -135t-120.5 -44q-36 1 -67 14t-52 31t-41 35.5t-44 30.5t-50 14q-39 0 -54 -21.5t-19 -57.5q-1 -18 -15.5 -28.5t-36.5 -10.5q-21 0 -32 16 t-9 39z" />
<glyph unicode="&#xc4;" horiz-adv-x="1288" d="M59 45q0 23 29 86q224 529 227 535q40 94 267 677q19 50 69 50q27 0 42 -11.5t26 -38.5q33 -79 135 -353.5t147 -385.5q3 -8 10.5 -25.5t10.5 -25.5q38 -93 105.5 -253.5t89.5 -215.5q12 -32 12 -45q0 -16 -19 -31.5t-41 -15.5q-16 0 -26.5 3t-19 15t-11 17.5t-12.5 29.5 q-27 70 -61 159t-52.5 137t-21.5 57q-8 0 -154 1t-270 1h-219q-11 -25 -64 -162t-68 -170q-3 -8 -9 -23t-8.5 -21.5t-8 -16.5t-11 -14t-14 -7.5t-18.5 -3.5q-62 0 -62 51zM358 510q300 -3 566 2q-13 34 -128.5 345t-146.5 388q-89 -241 -291 -735zM403 1657q0 36 27 61 t66 25t62.5 -25t23.5 -63t-27 -62t-70 -24q-35 0 -58.5 25t-23.5 63zM715 1659q0 36 26.5 61t65.5 25t61.5 -26t22.5 -64q0 -39 -26.5 -60.5t-67.5 -21.5q-35 0 -58.5 25t-23.5 61z" />
<glyph unicode="&#xc5;" horiz-adv-x="1288" d="M59 45q0 23 29 86q224 529 227 535q44 103 258 653l7 14q-62 21 -103 74t-41 121q0 93 67 151t150 58q86 0 148.5 -55t62.5 -142q0 -72 -39 -128.5t-102 -78.5q1 -2 2 -5.5t2 -4.5q26 -65 125 -330.5t149 -388.5q6 -16 21 -51q59 -143 114 -274t81 -195q12 -32 12 -45 q0 -19 -17 -33t-41 -14q-22 0 -35 8.5t-19 19t-17 37.5q-27 70 -61 159t-52.5 137t-21.5 57q-8 0 -154 1t-270 1h-219q-11 -25 -64 -162t-68 -170q-3 -8 -9 -23t-8.5 -21.5t-8 -16.5t-11 -14t-14 -7.5t-18.5 -3.5q-62 0 -62 51zM358 510q300 -3 566 2q-13 34 -128.5 345 t-146.5 388q-89 -241 -291 -735zM522 1534q0 -63 35.5 -97t95.5 -34q56 0 91.5 38.5t33.5 96.5q-1 55 -37.5 88t-91.5 33q-52 0 -89.5 -34.5t-37.5 -90.5z" />
<glyph unicode="&#xc6;" horiz-adv-x="1845" d="M39 51q0 26 41 78q182 255 430 631t364 536q35 48 63 68t71 20q9 0 276 3.5t412 3.5q44 0 60 -13.5t16 -42.5q0 -21 -13 -36t-39 -15q-106 0 -314 -1t-314 -1q-5 -265 -5 -297v-194v-66h119q42 0 171 2t233 2q36 0 52.5 -10t16.5 -39q0 -51 -65 -51q-55 0 -286 -1 t-243 -1v-158q0 -59 -1 -183.5t-1 -183.5q151 0 617 7q35 0 51 -11.5t16 -38.5q0 -61 -67 -61q-61 0 -250.5 -1t-273.5 -1q-39 0 -61 0.5t-47 2t-37 4.5t-25.5 9.5t-18.5 14.5t-10.5 21t-6.5 28.5t-1 38.5l4 286l-570 5q-30 -38 -231 -345q-16 -25 -23.5 -35.5t-21 -20 t-29.5 -9.5q-24 0 -41.5 16t-17.5 39zM463 504l512 2q0 147 2 221l2 172q1 59 0 179.5t0 181.5z" />
<glyph unicode="&#xc7;" horiz-adv-x="1243" d="M119 664q0 166 56.5 307.5t149 234t209 144t238.5 51.5q162 0 299 -62q19 -9 30 -14.5t24 -15t19.5 -20.5t6.5 -23q0 -28 -14 -45.5t-39 -16.5q-21 2 -70 25q-132 65 -272 65q-98 0 -193 -46.5t-168.5 -126.5t-118.5 -197t-45 -248q0 -154 64 -286t187.5 -215t281.5 -83 q78 0 161 26t142 68q9 5 19 13t18.5 11t23.5 3t29 -17.5t14 -37.5q0 -39 -58 -78t-147 -65t-178 -31l-32 -101q27 0 54.5 -8.5t53 -25.5t42 -48.5t16.5 -72.5q0 -85 -54 -135t-135 -50q-53 0 -106 29q-39 22 -39 51q0 16 12.5 28.5t30.5 12.5q11 0 46.5 -16.5t67.5 -16.5 q40 0 63 23.5t23 69.5q0 42 -30 60.5t-76 18.5h-18q-27 0 -40.5 26t-4.5 56l43 99q-117 9 -222.5 60t-186.5 136.5t-129 211t-48 272.5z" />
<glyph unicode="&#xc8;" horiz-adv-x="1103" d="M197 113q0 28 4 90v7q0 7 0.5 20.5t1 33.5t1 48.5t1 62.5t1 78t1 92.5t0.5 109.5v125q0 90 1 272t1 273q0 18 6 30.5t14.5 19t27 10t33 4t42.5 0.5h106q70 0 241 2t239 2q51 0 68.5 -13t17.5 -43q0 -48 -48 -51q-77 0 -256 1t-256 1h-125q-2 -106 -2 -303v-203v-51h119 q232 0 385 6q43 0 61.5 -10.5t18.5 -40.5q0 -26 -16.5 -38.5t-57.5 -12.5q-42 0 -270.5 -1t-241.5 -1v-164q0 -59 -3 -183t-3 -184q281 0 615 4q8 0 23.5 1.5t23.5 1.5q51 0 51 -50q0 -34 -19 -48.5t-73 -14.5h-524q-52 0 -78.5 0.5t-55 4.5t-39.5 11t-21.5 21t-12.5 32 t-2 48zM449 1796q0 21 17 37t36 16q28 0 47 -26q67 -86 190 -230q19 -23 19 -39q0 -15 -15 -28t-30 -13q-11 0 -35 17q-115 112 -207 219q-22 28 -22 47z" />
<glyph unicode="&#xc9;" horiz-adv-x="1103" d="M197 113q0 28 4 90v7q0 7 0.5 20.5t1 33.5t1 48.5t1 62.5t1 78t1 92.5t0.5 109.5v125q0 90 1 272t1 273q0 18 6 30.5t14.5 19t27 10t33 4t42.5 0.5h106q70 0 241 2t239 2q51 0 68.5 -13t17.5 -43q0 -48 -48 -51q-77 0 -256 1t-256 1h-125q-2 -106 -2 -303v-203v-51h119 q232 0 385 6q43 0 61.5 -10.5t18.5 -40.5q0 -26 -16.5 -38.5t-57.5 -12.5q-42 0 -270.5 -1t-241.5 -1v-164q0 -59 -3 -183t-3 -184q281 0 615 4q8 0 23.5 1.5t23.5 1.5q51 0 51 -50q0 -34 -19 -48.5t-73 -14.5h-524q-52 0 -78.5 0.5t-55 4.5t-39.5 11t-21.5 21t-12.5 32 t-2 48zM496 1559q0 15 16 34q23 27 61.5 69t71 79.5t68.5 81.5q21 24 43 24t39.5 -17t17.5 -40q0 -15 -22 -41q-101 -115 -211 -219q-20 -17 -35 -17q-18 0 -33.5 13.5t-15.5 32.5z" />
<glyph unicode="&#xca;" horiz-adv-x="1103" d="M197 113q0 28 4 90v7q0 7 0.5 20.5t1 33.5t1 48.5t1 62.5t1 78t1 92.5t0.5 109.5v125q0 90 1 272t1 273q0 18 6 30.5t14.5 19t27 10t33 4t42.5 0.5h106q70 0 241 2t239 2q51 0 68.5 -13t17.5 -43q0 -48 -48 -51q-77 0 -256 1t-256 1h-125q-2 -106 -2 -303v-203v-51h119 q232 0 385 6q43 0 61.5 -10.5t18.5 -40.5q0 -26 -16.5 -38.5t-57.5 -12.5q-42 0 -270.5 -1t-241.5 -1v-164q0 -59 -3 -183t-3 -184q281 0 615 4q8 0 23.5 1.5t23.5 1.5q51 0 51 -50q0 -34 -19 -48.5t-73 -14.5h-524q-52 0 -78.5 0.5t-55 4.5t-39.5 11t-21.5 21t-12.5 32 t-2 48zM358 1538q0 18 23 45q32 35 99.5 111t78.5 88q18 20 30.5 26.5t33.5 6.5q20 0 31 -6t26 -23q119 -133 180 -205q27 -31 27 -45q0 -16 -13 -29.5t-30 -13.5q-9 0 -18.5 5.5t-15.5 11.5l-5 6q-2 2 -182 186q-36 -37 -84.5 -88t-70 -72.5t-36.5 -34.5q-15 -12 -33 -12 q-13 0 -27 14.5t-14 28.5z" />
<glyph unicode="&#xcb;" horiz-adv-x="1103" d="M197 113q0 28 4 90v7q0 7 0.5 20.5t1 33.5t1 48.5t1 62.5t1 78t1 92.5t0.5 109.5v125q0 90 1 272t1 273q0 18 6 30.5t14.5 19t27 10t33 4t42.5 0.5h106q70 0 241 2t239 2q51 0 68.5 -13t17.5 -43q0 -48 -48 -51q-77 0 -256 1t-256 1h-125q-2 -106 -2 -303v-203v-51h119 q232 0 385 6q43 0 61.5 -10.5t18.5 -40.5q0 -26 -16.5 -38.5t-57.5 -12.5q-42 0 -270.5 -1t-241.5 -1v-164q0 -59 -3 -183t-3 -184q281 0 615 4q8 0 23.5 1.5t23.5 1.5q51 0 51 -50q0 -34 -19 -48.5t-73 -14.5h-524q-52 0 -78.5 0.5t-55 4.5t-39.5 11t-21.5 21t-12.5 32 t-2 48zM375 1657q0 36 26.5 61t65.5 25t62.5 -25t23.5 -63t-26.5 -62t-69.5 -24q-35 0 -58.5 25t-23.5 63zM686 1659q0 36 26.5 61t65.5 25t61.5 -26t22.5 -64q0 -39 -26.5 -60.5t-67.5 -21.5q-35 0 -58.5 25t-23.5 61z" />
<glyph unicode="&#xcc;" horiz-adv-x="536" d="M94 1796q0 21 17 37t36 16q29 0 48 -26q67 -86 190 -230q18 -22 18 -39q0 -15 -15 -28t-30 -13q-10 0 -34 17q-115 112 -207 219q-23 30 -23 47zM211 47q0 30 1 87t1 91l2 584q0 66 -2 234t-2 290q0 29 16 45.5t45 16.5q26 0 40 -15.5t14 -42.5q0 -123 -2 -522v-332 l2 -409q0 -47 -12.5 -64.5t-45.5 -17.5q-57 0 -57 55z" />
<glyph unicode="&#xcd;" horiz-adv-x="536" d="M141 1559q0 14 17 34q22 25 61 69t71 80.5t68 80.5q21 24 43 24t40 -17t18 -40q0 -14 -23 -41q-101 -115 -211 -219q-20 -17 -35 -17q-18 0 -33.5 13.5t-15.5 32.5zM211 47q0 30 1 87t1 91l2 584q0 66 -2 234t-2 290q0 29 16 45.5t45 16.5q26 0 40 -15.5t14 -42.5 q0 -123 -2 -522v-332l2 -409q0 -47 -12.5 -64.5t-45.5 -17.5q-57 0 -57 55z" />
<glyph unicode="&#xce;" horiz-adv-x="536" d="M4 1538q0 18 23 45q32 35 99.5 111t78.5 88q18 20 30 26.5t33 6.5q20 0 31.5 -6.5t26.5 -22.5q119 -133 180 -205q26 -30 26 -45q0 -16 -13 -29.5t-30 -13.5q-9 0 -18.5 5.5t-14.5 11.5l-5 6q-19 18 -183 186q-39 -40 -85 -88.5t-68 -71t-37 -35.5q-15 -12 -33 -12 q-13 0 -27 14.5t-14 28.5zM211 47q0 30 1 87t1 91l2 584q0 66 -2 234t-2 290q0 29 16 45.5t45 16.5q26 0 40 -15.5t14 -42.5q0 -123 -2 -522v-332l2 -409q0 -47 -12.5 -64.5t-45.5 -17.5q-57 0 -57 55z" />
<glyph unicode="&#xcf;" horiz-adv-x="536" d="M20 1657q0 36 27 61t66 25t62.5 -25t23.5 -63t-27 -62t-70 -24q-35 0 -58.5 25t-23.5 63zM211 47q0 30 1 87t1 91l2 584q0 66 -2 234t-2 290q0 29 16 45.5t45 16.5q26 0 40 -15.5t14 -42.5q0 -123 -2 -522v-332l2 -409q0 -47 -12.5 -64.5t-45.5 -17.5q-57 0 -57 55z M332 1659q0 36 26.5 61t65.5 25t61.5 -26t22.5 -64q0 -39 -26.5 -60.5t-67.5 -21.5q-35 0 -58.5 25t-23.5 61z" />
<glyph unicode="&#xd0;" horiz-adv-x="1380" d="M33 668q0 27 15.5 38t55.5 11h86l-8 575q0 101 127 101q2 0 81.5 0.5t147 0.5t80.5 -1q140 -10 259 -56t210 -126t143 -202t52 -272q0 -731 -774 -737q-54 0 -234 4q-49 1 -69.5 29t-20.5 82l4 503h-100q-55 0 -55 50zM295 152q0 -30 36 -36.5t165 -6.5q158 0 278 32 t211 101.5t138.5 189t47.5 285.5q0 115 -33.5 210.5t-91.5 161t-138 110.5t-172 66t-195 21q-173 0 -246 -6v-563h215q61 0 61 -45q0 -30 -14 -42t-57 -12h-205v-466z" />
<glyph unicode="&#xd1;" horiz-adv-x="1437" d="M184 57q0 111 2 566q0 94 -1 246.5t-1 246.5v209q0 30 18.5 48t51.5 18q14 0 26 -4.5t24.5 -17t18 -19t20 -27.5t17.5 -25l527 -747l270 -379q-6 200 -6 549l-4 559q0 2 -0.5 20t0 23t2 19t5 19.5t9 13.5t15 11t22.5 3q10 0 18 -1.5t13.5 -5t9.5 -7t6.5 -11t3.5 -12 t1.5 -15.5t0.5 -17v-20.5v-21.5v-672q4 -135 4 -536q0 -72 -67 -72q-13 0 -22 2.5t-19.5 12.5t-15.5 15.5t-20 26.5t-23 31q-61 87 -221 315t-312.5 445t-267.5 379q0 -271 8 -1139q0 -26 -1 -39t-6 -26.5t-16 -19t-30 -5.5q-60 0 -60 61zM428 1618q4 68 52 111t118 43 q43 0 79.5 -20t58.5 -43.5t54 -44.5t66 -22q30 0 47 25.5t19 67.5q1 19 16 30t31 11q20 0 32.5 -11t12.5 -30q0 -91 -45.5 -135t-120.5 -44q-36 1 -67 14t-52 31t-41 35.5t-44 30.5t-50 14q-66 0 -74 -79q-3 -39 -51 -39q-21 0 -32 16t-9 39z" />
<glyph unicode="&#xd2;" horiz-adv-x="1529" d="M117 657q0 167 56.5 310.5t149.5 238t211.5 147t243.5 50.5q130 0 248.5 -51.5t206.5 -141.5t140 -219.5t52 -277.5q0 -203 -82 -369.5t-233 -264t-340 -97.5q-125 0 -242 48t-208.5 133.5t-147 214.5t-55.5 279zM225 678q0 -129 45 -240t121.5 -186.5t179 -118.5 t215.5 -43q146 0 270 86.5t193.5 228.5t67.5 302q-1 128 -49 239.5t-126 187t-179.5 119t-208.5 43.5q-100 0 -195.5 -46.5t-169.5 -126.5t-119 -197t-45 -248zM596 1796q0 21 17 37t36 16q27 0 47 -26q57 -73 191 -230q18 -22 18 -39q0 -15 -15 -28t-30 -13q-11 0 -35 17 q-115 112 -207 219q-22 28 -22 47z" />
<glyph unicode="&#xd3;" horiz-adv-x="1529" d="M117 657q0 167 56.5 310.5t149.5 238t211.5 147t243.5 50.5q130 0 248.5 -51.5t206.5 -141.5t140 -219.5t52 -277.5q0 -203 -82 -369.5t-233 -264t-340 -97.5q-125 0 -242 48t-208.5 133.5t-147 214.5t-55.5 279zM225 678q0 -129 45 -240t121.5 -186.5t179 -118.5 t215.5 -43q146 0 270 86.5t193.5 228.5t67.5 302q-1 128 -49 239.5t-126 187t-179.5 119t-208.5 43.5q-100 0 -195.5 -46.5t-169.5 -126.5t-119 -197t-45 -248zM643 1559q0 15 16 34q23 27 61.5 69t71 79.5t68.5 81.5q21 24 43 24t40 -17t18 -40q0 -14 -23 -41 q-101 -115 -211 -219q-20 -17 -35 -17q-18 0 -33.5 13.5t-15.5 32.5z" />
<glyph unicode="&#xd4;" horiz-adv-x="1529" d="M117 657q0 167 56.5 310.5t149.5 238t211.5 147t243.5 50.5q130 0 248.5 -51.5t206.5 -141.5t140 -219.5t52 -277.5q0 -203 -82 -369.5t-233 -264t-340 -97.5q-125 0 -242 48t-208.5 133.5t-147 214.5t-55.5 279zM225 678q0 -129 45 -240t121.5 -186.5t179 -118.5 t215.5 -43q146 0 270 86.5t193.5 228.5t67.5 302q-1 128 -49 239.5t-126 187t-179.5 119t-208.5 43.5q-100 0 -195.5 -46.5t-169.5 -126.5t-119 -197t-45 -248zM506 1538q0 19 22 45q13 14 179 199q18 20 30 26.5t33 6.5q20 0 31 -6t26 -23q136 -152 181 -205q26 -30 26 -45 q0 -16 -13 -29.5t-30 -13.5q-9 0 -18.5 5.5t-14.5 11.5l-6 6q-2 2 -182 186q-39 -40 -85 -88.5t-68 -71t-37 -35.5q-15 -12 -33 -12q-13 0 -27 14.5t-14 28.5z" />
<glyph unicode="&#xd5;" horiz-adv-x="1529" d="M117 657q0 167 56.5 310.5t149.5 238t211.5 147t243.5 50.5q130 0 248.5 -51.5t206.5 -141.5t140 -219.5t52 -277.5q0 -203 -82 -369.5t-233 -264t-340 -97.5q-125 0 -242 48t-208.5 133.5t-147 214.5t-55.5 279zM225 678q0 -129 45 -240t121.5 -186.5t179 -118.5 t215.5 -43q146 0 270 86.5t193.5 228.5t67.5 302q-1 128 -49 239.5t-126 187t-179.5 119t-208.5 43.5q-100 0 -195.5 -46.5t-169.5 -126.5t-119 -197t-45 -248zM477 1618q4 68 52 111t118 43q43 0 79.5 -20t58.5 -43.5t54 -44.5t66 -22q30 0 47 25.5t19 67.5q1 19 16 30 t31 11q20 0 32.5 -11t12.5 -30q0 -91 -45.5 -135t-120.5 -44q-36 1 -67 14t-52 31t-41 35.5t-44 30.5t-50 14q-66 0 -74 -79q-3 -39 -51 -39q-21 0 -32 16t-9 39z" />
<glyph unicode="&#xd6;" horiz-adv-x="1529" d="M117 657q0 167 56.5 310.5t149.5 238t211.5 147t243.5 50.5q130 0 248.5 -51.5t206.5 -141.5t140 -219.5t52 -277.5q0 -203 -82 -369.5t-233 -264t-340 -97.5q-125 0 -242 48t-208.5 133.5t-147 214.5t-55.5 279zM225 678q0 -129 45 -240t121.5 -186.5t179 -118.5 t215.5 -43q146 0 270 86.5t193.5 228.5t67.5 302q-1 128 -49 239.5t-126 187t-179.5 119t-208.5 43.5q-100 0 -195.5 -46.5t-169.5 -126.5t-119 -197t-45 -248zM522 1657q0 36 26.5 61t65.5 25t62.5 -25t23.5 -63t-26.5 -62t-69.5 -24q-35 0 -58.5 25t-23.5 63zM834 1659 q0 36 26.5 61t65.5 25t61.5 -26t22.5 -64t-27 -60t-68 -22q-35 0 -58 25t-23 61z" />
<glyph unicode="&#xd7;" horiz-adv-x="983" d="M117 201q0 23 20 43l195 202l100 109l-274 287q-3 3 -8.5 9t-7 7.5t-5 6t-4.5 6t-3 5.5t-2 7t-0.5 7t-0.5 9q0 17 16.5 32t34.5 15q26 0 49 -28l271 -302l235 273q35 42 47.5 49.5t28.5 7.5q15 0 32 -15t17 -30t-8.5 -30.5t-18.5 -26.5t-36 -39l-236 -258l287 -301 q20 -20 20 -41q0 -17 -16 -33t-33 -16q-8 0 -14 1.5t-13 7t-9.5 7.5t-11 12t-9.5 11l-266 290l-261 -288q-5 -5 -14 -15.5t-12 -13.5t-10 -8t-13.5 -6.5t-15.5 -1.5q-18 0 -34.5 16.5t-16.5 32.5z" />
<glyph unicode="&#xd8;" horiz-adv-x="1529" d="M117 657q0 167 56.5 310.5t149.5 238t211.5 147t243.5 50.5q171 0 318 -86l57 86q17 29 43 29q19 0 34 -14.5t15 -33.5q0 -14 -12 -34l-57 -88q117 -94 183 -236.5t66 -312.5q0 -203 -82 -369.5t-233 -264t-340 -97.5q-192 0 -354 104l-72 -111q-20 -30 -41 -30 q-18 0 -35.5 15t-17.5 34q0 17 16 41l72 110q-104 93 -162.5 223t-58.5 289zM225 678q0 -268 176 -436l631 975q-133 79 -278 79q-100 0 -195.5 -46.5t-169.5 -126.5t-119 -197t-45 -248zM477 182q140 -92 309 -92q146 0 270 86.5t193.5 228.5t67.5 302q-1 138 -57 254.5 t-150 197.5z" />
<glyph unicode="&#xd9;" horiz-adv-x="1384" d="M180 555q0 166 1 437.5t1 314.5q0 41 11 58t40 17q31 0 44.5 -14.5t13.5 -44.5q-3 -165 -3.5 -303.5t0.5 -282t1 -186.5q0 -232 106.5 -343.5t300.5 -111.5q173 0 290.5 127t117.5 328q0 78 -2 375.5t-2 406.5q0 28 15 42t40 14q55 0 55 -68l2 -707q1 -303 -140 -464.5 t-398 -161.5q-233 0 -363.5 148.5t-130.5 418.5zM530 1796q0 21 17 37t37 16q28 0 47 -26q67 -86 190 -230q19 -23 19 -39q0 -15 -15 -28t-30 -13q-11 0 -35 17q-115 112 -207 219q-23 30 -23 47z" />
<glyph unicode="&#xda;" horiz-adv-x="1384" d="M180 555q0 166 1 437.5t1 314.5q0 41 11 58t40 17q31 0 44.5 -14.5t13.5 -44.5q-3 -165 -3.5 -303.5t0.5 -282t1 -186.5q0 -232 106.5 -343.5t300.5 -111.5q173 0 290.5 127t117.5 328q0 78 -2 375.5t-2 406.5q0 28 15 42t40 14q55 0 55 -68l2 -707q1 -303 -140 -464.5 t-398 -161.5q-233 0 -363.5 148.5t-130.5 418.5zM578 1559q0 15 16 34q23 27 61.5 69t71 79.5t68.5 81.5q21 24 43 24t39.5 -17t17.5 -40q0 -14 -23 -41q-106 -120 -210 -219q-20 -17 -35 -17q-18 0 -33.5 13.5t-15.5 32.5z" />
<glyph unicode="&#xdb;" horiz-adv-x="1384" d="M180 555q0 166 1 437.5t1 314.5q0 41 11 58t40 17q31 0 44.5 -14.5t13.5 -44.5q-3 -165 -3.5 -303.5t0.5 -282t1 -186.5q0 -232 106.5 -343.5t300.5 -111.5q173 0 290.5 127t117.5 328q0 78 -2 375.5t-2 406.5q0 28 15 42t40 14q55 0 55 -68l2 -707q1 -303 -140 -464.5 t-398 -161.5q-233 0 -363.5 148.5t-130.5 418.5zM440 1538q0 18 23 45q32 35 99.5 111t78.5 88q18 20 30.5 26.5t33.5 6.5q20 0 31 -6t26 -23q119 -133 180 -205q27 -31 27 -45q0 -16 -13 -29.5t-30 -13.5q-9 0 -18.5 5.5t-15.5 11.5l-5 6q-2 2 -182 186q-32 -33 -69 -71 t-55.5 -57.5t-36.5 -38t-30 -28.5q-15 -12 -33 -12q-13 0 -27 14.5t-14 28.5z" />
<glyph unicode="&#xdc;" horiz-adv-x="1384" d="M180 555q0 166 1 437.5t1 314.5q0 41 11 58t40 17q31 0 44.5 -14.5t13.5 -44.5q-3 -165 -3.5 -303.5t0.5 -282t1 -186.5q0 -232 106.5 -343.5t300.5 -111.5q173 0 290.5 127t117.5 328q0 78 -2 375.5t-2 406.5q0 28 15 42t40 14q55 0 55 -68l2 -707q1 -303 -140 -464.5 t-398 -161.5q-233 0 -363.5 148.5t-130.5 418.5zM457 1657q0 36 26.5 61t65.5 25t62.5 -25t23.5 -63t-26.5 -62t-69.5 -24q-35 0 -58.5 25t-23.5 63zM768 1659q0 36 26.5 61t65.5 25t61.5 -26t22.5 -64q0 -39 -26.5 -60.5t-67.5 -21.5q-35 0 -58.5 25t-23.5 61z" />
<glyph unicode="&#xdd;" horiz-adv-x="1210" d="M59 1337q0 22 18.5 38t41.5 16q10 0 17.5 -2.5t15 -10.5t11 -13t13.5 -21t14 -23q27 -44 100 -161t122 -195t107 -169t91 -139q14 21 49.5 78.5t135.5 218t243 385.5q2 3 6.5 10.5t6.5 10.5t6 8.5t6.5 8.5t6.5 6.5t8 5t9 3t11 1.5q26 0 42.5 -15.5t16.5 -36.5 q0 -15 -27 -59q-79 -119 -238.5 -366.5t-229.5 -352.5q0 -89 -1.5 -257t-1.5 -257q0 -25 -16.5 -38t-38.5 -13q-24 0 -40.5 14.5t-16.5 44.5v136q0 65 2 181t2 181v12q-50 75 -246.5 375t-214.5 328q-31 48 -31 67zM481 1559q0 14 17 34q22 25 61 69t71 80.5t68 80.5 q21 24 43 24t40 -17t18 -40q0 -14 -23 -41q-101 -115 -211 -219q-20 -17 -35 -17q-18 0 -33.5 13.5t-15.5 32.5z" />
<glyph unicode="&#xde;" horiz-adv-x="1146" d="M203 78q0 74 1 239t1 238v690v39t0.5 33.5t1.5 27.5t5 21.5t10 16t16.5 9.5t25.5 3q16 0 26.5 -5t16.5 -11t8.5 -22.5t3 -28t0.5 -38.5v-180l283 4q109 0 197.5 -24t155.5 -72.5t102.5 -129.5t32.5 -188q-3 -133 -91.5 -235.5t-232.5 -136.5q-22 -5 -57.5 -9t-66 -6 t-82.5 -3t-76.5 -1h-80h-63.5h-27v-233q0 -44 -12 -62t-41 -20q-34 -1 -45.5 19.5t-11.5 64.5zM315 414q283 -3 387 8q272 29 275 285q1 91 -28.5 152.5t-88 94t-129 45.5t-166.5 13q-185 0 -248 -4z" />
<glyph unicode="&#xdf;" horiz-adv-x="1132" d="M156 90q0 30 1 107t2 249t1 433q0 244 109 377t290 133q154 0 249 -86t95 -232q0 -49 -24 -96t-58.5 -83t-69.5 -68t-59 -64t-24 -60q0 -32 11.5 -55.5t37.5 -41.5t49 -28.5t65 -25.5q50 -19 84 -36.5t71 -48t56 -76.5t19 -107q0 -135 -88 -213t-228 -78q-116 0 -200 26 t-84 66q0 24 13.5 41.5t39.5 17.5q11 0 88.5 -21.5t151.5 -21.5q90 0 144 44t54 128q0 44 -14 76.5t-43 55.5t-57.5 37t-73.5 30q-38 13 -62 23.5t-53.5 29.5t-46.5 40.5t-29 55t-12 74.5q0 46 23.5 88t57.5 75.5t68 66.5t57.5 74t23.5 85q0 105 -67 153t-181 48 q-125 0 -200 -95t-75 -278q0 -79 1 -409t1 -414q0 -50 -10.5 -72t-48.5 -22q-33 0 -44 21t-11 77z" />
<glyph unicode="&#xe0;" d="M104 432q0 213 132.5 359.5t326.5 146.5q102 0 187.5 -46t140.5 -132v96q0 76 57 76q17 0 28 -6t16.5 -12.5t8 -23.5t3 -27t0.5 -34l-3 -159l-4 -312q0 -123 11 -317q0 -21 -19.5 -34t-40.5 -13t-33 8.5t-17.5 34.5t-6 46t-0.5 70v29q-110 -194 -359 -194 q-94 0 -175 36.5t-136 98t-86 142t-31 167.5zM219 436q0 -149 95.5 -246.5t230.5 -97.5q153 0 252.5 103t99.5 266q0 88 -29 161t-77 118.5t-108.5 70.5t-125.5 25q-144 0 -241 -115.5t-97 -284.5zM393 1407q0 21 17 37t36 16q28 0 48 -26q67 -86 190 -230q18 -22 18 -39 q0 -15 -15 -28t-30 -13q-10 0 -34 17q-115 112 -207 219q-23 30 -23 47z" />
<glyph unicode="&#xe1;" d="M104 432q0 213 132.5 359.5t326.5 146.5q102 0 187.5 -46t140.5 -132v96q0 76 57 76q17 0 28 -6t16.5 -12.5t8 -23.5t3 -27t0.5 -34l-3 -159l-4 -312q0 -123 11 -317q0 -21 -19.5 -34t-40.5 -13t-33 8.5t-17.5 34.5t-6 46t-0.5 70v29q-110 -194 -359 -194 q-94 0 -175 36.5t-136 98t-86 142t-31 167.5zM219 436q0 -149 95.5 -246.5t230.5 -97.5q153 0 252.5 103t99.5 266q0 88 -29 161t-77 118.5t-108.5 70.5t-125.5 25q-144 0 -241 -115.5t-97 -284.5zM440 1169q0 15 17 35q22 25 61 69t71 80.5t68 80.5q21 24 43 24t40 -17 t18 -40q0 -14 -23 -41q-101 -115 -211 -219q-20 -17 -35 -17q-18 0 -33.5 13t-15.5 32z" />
<glyph unicode="&#xe2;" d="M104 432q0 213 132.5 359.5t326.5 146.5q102 0 187.5 -46t140.5 -132v96q0 76 57 76q17 0 28 -6t16.5 -12.5t8 -23.5t3 -27t0.5 -34l-3 -159l-4 -312q0 -123 11 -317q0 -21 -19.5 -34t-40.5 -13t-33 8.5t-17.5 34.5t-6 46t-0.5 70v29q-110 -194 -359 -194 q-94 0 -175 36.5t-136 98t-86 142t-31 167.5zM219 436q0 -149 95.5 -246.5t230.5 -97.5q153 0 252.5 103t99.5 266q0 88 -29 161t-77 118.5t-108.5 70.5t-125.5 25q-144 0 -241 -115.5t-97 -284.5zM303 1149q0 18 23 45q32 35 99.5 111t78.5 88q18 19 30 25.5t33 6.5 t32.5 -6t25.5 -22q119 -133 180 -205q26 -30 26 -45q0 -16 -13 -29.5t-30 -13.5q-9 0 -18.5 5.5t-14.5 10.5l-5 6q-3 3 -183 187q-39 -40 -85 -88.5t-68 -71t-37 -35.5q-15 -12 -33 -12q-12 0 -26.5 14t-14.5 29z" />
<glyph unicode="&#xe3;" d="M104 432q0 213 132.5 359.5t326.5 146.5q102 0 187.5 -46t140.5 -132v96q0 76 57 76q17 0 28 -6t16.5 -12.5t8 -23.5t3 -27t0.5 -34l-3 -159l-4 -312q0 -123 11 -317q0 -21 -19.5 -34t-40.5 -13t-33 8.5t-17.5 34.5t-6 46t-0.5 70v29q-110 -194 -359 -194 q-94 0 -175 36.5t-136 98t-86 142t-31 167.5zM219 436q0 -149 95.5 -246.5t230.5 -97.5q153 0 252.5 103t99.5 266q0 88 -29 161t-77 118.5t-108.5 70.5t-125.5 25q-144 0 -241 -115.5t-97 -284.5zM274 1229q4 68 52 110.5t118 42.5q35 0 65 -13t51.5 -31.5t42 -37t46 -32.5 t53.5 -15q30 0 47 25.5t19 67.5q1 19 16 29.5t31 10.5q20 0 32.5 -10.5t12.5 -29.5q0 -91 -45.5 -135t-120.5 -44q-36 1 -67 14t-52 31t-41 35.5t-44 30.5t-50 14q-65 0 -73 -80q-3 -38 -52 -38q-21 0 -32 16t-9 39z" />
<glyph unicode="&#xe4;" d="M104 432q0 213 132.5 359.5t326.5 146.5q102 0 187.5 -46t140.5 -132v96q0 76 57 76q17 0 28 -6t16.5 -12.5t8 -23.5t3 -27t0.5 -34l-3 -159l-4 -312q0 -123 11 -317q0 -21 -19.5 -34t-40.5 -13t-33 8.5t-17.5 34.5t-6 46t-0.5 70v29q-110 -194 -359 -194 q-94 0 -175 36.5t-136 98t-86 142t-31 167.5zM219 436q0 -149 95.5 -246.5t230.5 -97.5q153 0 252.5 103t99.5 266q0 88 -29 161t-77 118.5t-108.5 70.5t-125.5 25q-144 0 -241 -115.5t-97 -284.5zM319 1268q0 36 27 61t66 25t62.5 -25t23.5 -63t-27 -62t-70 -24 q-35 0 -58.5 25t-23.5 63zM631 1270q0 36 26.5 61t65.5 25t61.5 -26t22.5 -64q0 -39 -26.5 -60.5t-67.5 -21.5q-35 0 -58.5 25t-23.5 61z" />
<glyph unicode="&#xe5;" d="M104 432q0 213 132.5 359.5t326.5 146.5q102 0 187.5 -46t140.5 -132v96q0 76 57 76q17 0 28 -6t16.5 -12.5t8 -23.5t3 -27t0.5 -34l-3 -159l-4 -312q0 -123 11 -317q0 -21 -19.5 -34t-40.5 -13t-33 8.5t-17.5 34.5t-6 46t-0.5 70v29q-110 -194 -359 -194 q-94 0 -175 36.5t-136 98t-86 142t-31 167.5zM219 436q0 -149 95.5 -246.5t230.5 -97.5q153 0 252.5 103t99.5 266q0 88 -29 161t-77 118.5t-108.5 70.5t-125.5 25q-144 0 -241 -115.5t-97 -284.5zM348 1284q0 93 67 151t150 58q86 0 148.5 -55t62.5 -142q0 -92 -61 -155.5 t-154 -63.5q-83 0 -148 59.5t-65 147.5zM434 1290q0 -63 35.5 -97t95.5 -34q56 0 91.5 38.5t33.5 96.5q-1 55 -37.5 88t-91.5 33q-52 0 -89.5 -34.5t-37.5 -90.5z" />
<glyph unicode="&#xe6;" horiz-adv-x="1693" d="M106 260q0 137 97.5 206t267.5 71q57 1 320 -7q0 129 -84 217.5t-215 88.5q-44 0 -89.5 -9.5t-72 -19t-70.5 -27.5q-26 -12 -54 0t-28 41q0 38 43 60q120 62 283 59q121 -1 213.5 -63.5t138.5 -169.5q57 106 153.5 169.5t211.5 63.5q106 0 194.5 -57.5t136 -143.5 t47.5 -176q0 -28 -1 -41.5t-5 -32t-13.5 -26.5t-25.5 -17t-41.5 -12.5t-62.5 -3.5q-95 -1 -245 0t-216 0h-92q-5 -131 85 -230.5t239 -99.5q132 0 247 76q4 2 14.5 9.5t20.5 11.5t21 4q18 0 35.5 -20t17.5 -38q0 -58 -116.5 -106.5t-256.5 -48.5q-116 0 -214.5 66.5 t-149.5 170.5q-55 -113 -147.5 -175t-215.5 -62q-159 0 -265 72t-106 200zM215 266q0 -84 75.5 -129t188.5 -45q123 0 214.5 86.5t92.5 214.5v43q-115 6 -311 6q-136 1 -198 -41.5t-62 -134.5zM901 524q58 1 243 1t253 1q28 0 51.5 2t36 5t12.5 6q0 124 -79 210.5t-185 86.5 q-135 0 -227 -93.5t-105 -218.5z" />
<glyph unicode="&#xe7;" horiz-adv-x="909" d="M98 438q1 92 33 181t89 161.5t145 117t192 44.5q134 0 244 -65q33 -20 33 -52q0 -19 -15 -37t-37 -18q-13 0 -24.5 4.5t-27.5 14.5t-25 14q-75 33 -158 33q-60 0 -114 -23.5t-93.5 -62.5t-68.5 -88.5t-43.5 -102.5t-14.5 -104q0 -153 86 -256t225 -103q72 0 115 10.5 t84 36.5q7 4 25 15.5t29.5 16.5t23.5 5q19 0 35 -19.5t16 -37.5q0 -23 -18 -41q-110 -95 -281 -98l-33 -101q27 0 54.5 -8.5t53 -25.5t42 -48.5t16.5 -72.5q0 -85 -53.5 -135t-134.5 -50q-54 0 -107 29q-39 22 -39 51q0 16 12.5 28.5t30.5 12.5q11 0 47 -16.5t68 -16.5 q40 0 63 23.5t23 69.5q0 42 -30.5 60.5t-76.5 18.5h-18q-27 0 -40.5 26t-4.5 56l45 105q-71 10 -133 42t-105.5 77t-74.5 100t-46 113.5t-14 115.5z" />
<glyph unicode="&#xe8;" horiz-adv-x="1038" d="M102 422q0 134 58.5 253.5t163 193t227.5 73.5q80 0 153 -31.5t124 -82.5t81.5 -116.5t30.5 -131.5q0 -41 -3 -61.5t-17.5 -42.5t-46.5 -31.5t-87 -10.5q-50 -4 -267 -2.5t-300 0.5q0 -85 38.5 -159.5t116 -123.5t177.5 -49q135 0 250 76q5 2 15 9.5t19.5 11.5t20.5 4 q20 0 37.5 -18.5t17.5 -37.5q0 -21 -11.5 -35t-35.5 -30q-130 -92 -329 -92q-116 0 -214.5 59t-156.5 158.5t-62 216.5zM225 524q1 0 170 1.5t270 4.5t140 7q24 3 24 24q0 121 -80 199t-186 78q-137 0 -231 -94.5t-107 -219.5zM369 1407q0 21 17 37t36 16q28 0 47 -26 q67 -86 190 -230q19 -23 19 -39q0 -15 -15 -28t-30 -13q-11 0 -35 17q-115 112 -207 219q-22 28 -22 47z" />
<glyph unicode="&#xe9;" horiz-adv-x="1038" d="M102 422q0 134 58.5 253.5t163 193t227.5 73.5q80 0 153 -31.5t124 -82.5t81.5 -116.5t30.5 -131.5q0 -41 -3 -61.5t-17.5 -42.5t-46.5 -31.5t-87 -10.5q-50 -4 -267 -2.5t-300 0.5q0 -85 38.5 -159.5t116 -123.5t177.5 -49q135 0 250 76q5 2 15 9.5t19.5 11.5t20.5 4 q20 0 37.5 -18.5t17.5 -37.5q0 -21 -11.5 -35t-35.5 -30q-130 -92 -329 -92q-116 0 -214.5 59t-156.5 158.5t-62 216.5zM225 524q1 0 170 1.5t270 4.5t140 7q24 3 24 24q0 121 -80 199t-186 78q-137 0 -231 -94.5t-107 -219.5zM416 1169q0 16 16 35q23 27 61.5 69t71 79.5 t68.5 81.5q21 24 43 24t39.5 -17t17.5 -40q0 -15 -22 -41q-101 -115 -211 -219q-20 -17 -35 -17q-18 0 -33.5 13t-15.5 32z" />
<glyph unicode="&#xea;" horiz-adv-x="1038" d="M102 422q0 134 58.5 253.5t163 193t227.5 73.5q80 0 153 -31.5t124 -82.5t81.5 -116.5t30.5 -131.5q0 -41 -3 -61.5t-17.5 -42.5t-46.5 -31.5t-87 -10.5q-50 -4 -267 -2.5t-300 0.5q0 -85 38.5 -159.5t116 -123.5t177.5 -49q135 0 250 76q5 2 15 9.5t19.5 11.5t20.5 4 q20 0 37.5 -18.5t17.5 -37.5q0 -21 -11.5 -35t-35.5 -30q-130 -92 -329 -92q-116 0 -214.5 59t-156.5 158.5t-62 216.5zM225 524q1 0 170 1.5t270 4.5t140 7q24 3 24 24q0 121 -80 199t-186 78q-137 0 -231 -94.5t-107 -219.5zM279 1149q0 19 22 45q32 35 99.5 111t78.5 88 q18 19 30.5 25.5t33.5 6.5t31.5 -6t25.5 -22q119 -133 180 -205q27 -31 27 -45q0 -16 -13 -29.5t-30 -13.5q-9 0 -18.5 5.5t-15.5 10.5l-5 6q-23 22 -48 48l-62.5 65t-71.5 74q-32 -33 -69 -71t-55.5 -57.5t-36.5 -38t-30 -28.5q-15 -12 -33 -12q-12 0 -26 14t-14 29z" />
<glyph unicode="&#xeb;" horiz-adv-x="1038" d="M102 422q0 134 58.5 253.5t163 193t227.5 73.5q80 0 153 -31.5t124 -82.5t81.5 -116.5t30.5 -131.5q0 -41 -3 -61.5t-17.5 -42.5t-46.5 -31.5t-87 -10.5q-50 -4 -267 -2.5t-300 0.5q0 -85 38.5 -159.5t116 -123.5t177.5 -49q135 0 250 76q5 2 15 9.5t19.5 11.5t20.5 4 q20 0 37.5 -18.5t17.5 -37.5q0 -21 -11.5 -35t-35.5 -30q-130 -92 -329 -92q-116 0 -214.5 59t-156.5 158.5t-62 216.5zM225 524q1 0 170 1.5t270 4.5t140 7q24 3 24 24q0 121 -80 199t-186 78q-137 0 -231 -94.5t-107 -219.5zM295 1268q0 36 26.5 61t65.5 25t62.5 -25 t23.5 -63t-26.5 -62t-69.5 -24q-35 0 -58.5 25t-23.5 63zM606 1270q0 36 26.5 61t65.5 25t61.5 -26t22.5 -64q0 -39 -26.5 -60.5t-67.5 -21.5q-35 0 -58.5 25t-23.5 61z" />
<glyph unicode="&#xec;" horiz-adv-x="468" d="M63 1407q0 21 17 37t37 16q27 0 47 -26q67 -86 190 -230q19 -23 19 -39q0 -15 -15 -28t-30 -13q-11 0 -35 17q-115 112 -207 219q-23 30 -23 47zM180 59v811q1 33 16.5 48.5t36.5 15.5q40 0 50 -21t10 -92q0 -76 -1 -238.5t-1 -238.5v-278q0 -22 -1.5 -33.5t-7 -22.5 t-18 -15.5t-33.5 -4.5q-30 0 -40.5 16t-10.5 53z" />
<glyph unicode="&#xed;" horiz-adv-x="468" d="M111 1169q0 16 16 35q23 27 61.5 69t71 79.5t68.5 81.5q21 24 43 24t39.5 -17t17.5 -40q0 -15 -22 -41q-101 -115 -211 -219q-20 -17 -35 -17q-18 0 -33.5 13t-15.5 32zM180 59v811q1 33 16.5 48.5t36.5 15.5q40 0 50 -21t10 -92q0 -76 -1 -238.5t-1 -238.5v-278 q0 -22 -1.5 -33.5t-7 -22.5t-18 -15.5t-33.5 -4.5q-30 0 -40.5 16t-10.5 53z" />
<glyph unicode="&#xee;" horiz-adv-x="468" d="M-27 1149q0 18 23 45q32 35 99.5 111t78.5 88q18 19 30.5 25.5t33.5 6.5t31.5 -6t25.5 -22q119 -133 180 -205q27 -31 27 -45q0 -16 -13 -29.5t-30 -13.5q-9 0 -18.5 5.5t-14.5 10.5l-6 6q-23 22 -48 48l-62.5 65t-71.5 74q-32 -33 -69 -71t-55.5 -57.5t-36.5 -38 t-30 -28.5q-15 -12 -33 -12q-12 0 -26.5 14t-14.5 29zM180 59v811q1 33 16.5 48.5t36.5 15.5q40 0 50 -21t10 -92q0 -76 -1 -238.5t-1 -238.5v-278q0 -22 -1.5 -33.5t-7 -22.5t-18 -15.5t-33.5 -4.5q-30 0 -40.5 16t-10.5 53z" />
<glyph unicode="&#xef;" horiz-adv-x="468" d="M-10 1268q0 36 26.5 61t65.5 25t62.5 -25t23.5 -63t-26.5 -62t-69.5 -24q-35 0 -58.5 25t-23.5 63zM180 59v811q1 33 16.5 48.5t36.5 15.5q40 0 50 -21t10 -92q0 -76 -1 -238.5t-1 -238.5v-278q0 -22 -1.5 -33.5t-7 -22.5t-18 -15.5t-33.5 -4.5q-30 0 -40.5 16t-10.5 53z M301 1270q0 36 26.5 61t65.5 25t61.5 -26t22.5 -64q0 -39 -26.5 -60.5t-67.5 -21.5q-35 0 -58.5 25t-23.5 61z" />
<glyph unicode="&#xf0;" horiz-adv-x="1114" d="M111 438q0 99 37 185t97.5 143.5t136.5 91.5t157 39q112 6 209.5 -51.5t156.5 -163.5q0 132 -49.5 258.5t-140.5 224.5l-144 -104q-15 -12 -32 -12q-18 0 -32.5 15.5t-14.5 33.5q0 26 34 47l119 86q-121 96 -258 125q-23 4 -35.5 21t-9.5 38q3 24 26.5 36.5t49.5 6.5 q184 -48 313 -166l121 88q24 17 39 17q19 0 34 -16.5t15 -32.5q0 -13 -9 -23t-34 -29l-98 -71q209 -239 209 -625q0 -68 -9 -174q-18 -212 -136 -324t-304 -112q-191 0 -319.5 125.5t-128.5 322.5zM223 446q0 -157 94 -256.5t230 -99.5q148 0 248 97.5t100 248.5 q0 94 -40 175t-116.5 132t-173.5 52q-149 1 -245.5 -100t-96.5 -249z" />
<glyph unicode="&#xf1;" horiz-adv-x="1120" d="M168 848q0 45 12 66.5t49 21.5q34 0 43 -19.5t11 -74.5v-109q43 101 139.5 157t212.5 56q163 0 251.5 -105.5t88.5 -289.5v-277v-190q0 -25 -1 -37.5t-7 -26.5t-19 -20t-35 -6q-53 0 -53 57q0 59 3.5 218.5t2.5 244.5q-1 53 -7.5 97t-23.5 87t-44 72.5t-72.5 47.5 t-104.5 18q-83 0 -144.5 -26t-96.5 -66t-56 -99t-27.5 -113.5t-6.5 -121.5v-363q0 -57 -64 -57q-49 0 -49 55q0 19 0.5 72.5t1 174.5t0.5 304zM276 1229q4 68 52 110.5t118 42.5q35 0 65 -13t51.5 -31.5t42 -37t46.5 -32.5t54 -15q30 0 46.5 25t18.5 68q1 19 16 29.5 t31 10.5q20 0 32.5 -10.5t12.5 -29.5q0 -91 -45.5 -135t-120.5 -44q-36 1 -67 14t-52 31t-41 35.5t-44 30.5t-50 14q-65 0 -73 -80q-3 -38 -52 -38q-21 0 -32 16t-9 39z" />
<glyph unicode="&#xf2;" horiz-adv-x="1112" d="M96 430q0 229 139 373.5t367 144.5q34 0 43 -16q92 -12 165 -58.5t116 -113.5t65.5 -144t22.5 -157q0 -205 -138 -341t-341 -136q-85 0 -164.5 32.5t-140.5 89.5t-97.5 142.5t-36.5 183.5zM211 424q0 -97 48.5 -175t120.5 -117.5t150 -39.5q95 0 178 43.5t137 130.5 t54 199q0 163 -89 263t-261 112q-153 -9 -245.5 -120t-92.5 -296zM381 1407q0 21 17 37t36 16q28 0 47 -26q57 -73 191 -230q18 -22 18 -39q0 -15 -15 -28t-30 -13q-11 0 -35 17q-115 112 -207 219q-22 28 -22 47z" />
<glyph unicode="&#xf3;" horiz-adv-x="1112" d="M96 430q0 229 139 373.5t367 144.5q34 0 43 -16q92 -12 165 -58.5t116 -113.5t65.5 -144t22.5 -157q0 -205 -138 -341t-341 -136q-85 0 -164.5 32.5t-140.5 89.5t-97.5 142.5t-36.5 183.5zM211 424q0 -97 48.5 -175t120.5 -117.5t150 -39.5q95 0 178 43.5t137 130.5 t54 199q0 163 -89 263t-261 112q-153 -9 -245.5 -120t-92.5 -296zM428 1169q0 16 16 35q23 27 61.5 69t71 79.5t68.5 81.5q21 24 43 24t39.5 -17t17.5 -40q0 -15 -22 -41q-101 -115 -211 -219q-20 -17 -35 -17q-18 0 -33.5 13t-15.5 32z" />
<glyph unicode="&#xf4;" horiz-adv-x="1112" d="M96 430q0 229 139 373.5t367 144.5q34 0 43 -16q92 -12 165 -58.5t116 -113.5t65.5 -144t22.5 -157q0 -205 -138 -341t-341 -136q-85 0 -164.5 32.5t-140.5 89.5t-97.5 142.5t-36.5 183.5zM211 424q0 -97 48.5 -175t120.5 -117.5t150 -39.5q95 0 178 43.5t137 130.5 t54 199q0 163 -89 263t-261 112q-153 -9 -245.5 -120t-92.5 -296zM291 1149q0 19 22 45q13 14 179 199q18 19 30 25.5t33 6.5t31.5 -6t25.5 -22q136 -152 181 -205q26 -30 26 -45q0 -16 -13 -29.5t-30 -13.5q-9 0 -18.5 5.5t-15.5 10.5l-5 6q-23 22 -48 48l-62.5 65 t-71.5 74q-39 -40 -85 -88.5t-68 -71t-37 -35.5q-15 -12 -33 -12q-12 0 -26.5 14t-14.5 29z" />
<glyph unicode="&#xf5;" horiz-adv-x="1112" d="M96 430q0 229 139 373.5t367 144.5q34 0 43 -16q92 -12 165 -58.5t116 -113.5t65.5 -144t22.5 -157q0 -205 -138 -341t-341 -136q-85 0 -164.5 32.5t-140.5 89.5t-97.5 142.5t-36.5 183.5zM211 424q0 -97 48.5 -175t120.5 -117.5t150 -39.5q95 0 178 43.5t137 130.5 t54 199q0 163 -89 263t-261 112q-153 -9 -245.5 -120t-92.5 -296zM262 1229q4 68 52 110.5t118 42.5q35 0 65 -13t51.5 -31.5t42 -37t46 -32.5t53.5 -15q30 0 47 25.5t19 67.5q1 19 16 29.5t31 10.5q20 0 32.5 -10.5t12.5 -29.5q0 -91 -45.5 -135t-120.5 -44q-36 1 -67 14 t-52 31t-41 35.5t-44 30.5t-50 14q-66 0 -74 -80q-3 -38 -51 -38q-21 0 -32 16t-9 39z" />
<glyph unicode="&#xf6;" horiz-adv-x="1112" d="M96 430q0 229 139 373.5t367 144.5q34 0 43 -16q92 -12 165 -58.5t116 -113.5t65.5 -144t22.5 -157q0 -205 -138 -341t-341 -136q-85 0 -164.5 32.5t-140.5 89.5t-97.5 142.5t-36.5 183.5zM211 424q0 -97 48.5 -175t120.5 -117.5t150 -39.5q95 0 178 43.5t137 130.5 t54 199q0 163 -89 263t-261 112q-153 -9 -245.5 -120t-92.5 -296zM307 1268q0 36 26.5 61t65.5 25t62.5 -25t23.5 -63t-26.5 -62t-69.5 -24q-35 0 -58.5 25t-23.5 63zM618 1270q0 36 27 61t66 25t61.5 -26t22.5 -64t-27 -60t-68 -22q-35 0 -58.5 25t-23.5 61z" />
<glyph unicode="&#xf7;" horiz-adv-x="983" d="M76 571q3 28 23 35.5t73 7.5l686 -2q51 0 51 -47q0 -32 -20 -42.5t-76 -10.5h-690q-28 0 -39.5 18.5t-7.5 40.5zM414 201q0 38 28.5 64t69.5 26q40 0 65 -27.5t25 -66.5q0 -41 -28.5 -63.5t-71.5 -22.5q-37 0 -62.5 26t-25.5 64zM416 926q0 38 28.5 64t69.5 26 q40 0 65 -27.5t25 -66.5q0 -41 -28.5 -63.5t-71.5 -22.5q-37 0 -62.5 26t-25.5 64z" />
<glyph unicode="&#xf8;" horiz-adv-x="1112" d="M96 436q0 227 138 369.5t366 142.5q32 0 45 -16q76 -11 139 -47l43 69q19 37 45 37q16 0 31 -12t15 -27q0 -18 -31 -67l-31 -49q78 -68 118 -168t40 -207q0 -136 -63 -246t-171.5 -171.5t-240.5 -61.5q-85 0 -181 47l-47 -78q-16 -29 -39 -29q-21 0 -35 12.5t-14 32.5 q0 16 19 43l39 62q-84 62 -134.5 155.5t-50.5 208.5zM211 432q0 -161 129 -264l389 627q-71 42 -178 45q-152 -8 -246 -117.5t-94 -290.5zM418 123q64 -31 117 -31q70 0 135.5 26t116.5 72.5t81.5 118t30.5 156.5q0 175 -102 274z" />
<glyph unicode="&#xf9;" horiz-adv-x="1136" d="M152 420q0 52 1 217.5t1 216.5q0 78 65 78q49 0 49 -60q-6 -417 -6 -442q0 -53 8 -101t27 -92t47.5 -76.5t72 -51.5t97.5 -19q96 0 163.5 35t105 101.5t54 148t17.5 188.5l2 299q0 35 15.5 53.5t41.5 18.5q32 0 45 -15t13 -55q0 -6 -2 -87t-3.5 -194t-0.5 -206 q0 -135 14 -320q3 -59 -53 -59q-52 0 -58 61q-6 55 -6 166q-41 -104 -128 -171.5t-220 -67.5q-92 0 -162.5 32t-113.5 90.5t-64.5 137t-21.5 174.5zM395 1407q0 21 17 37t37 16q28 0 47 -26q67 -86 190 -230q19 -23 19 -39q0 -15 -15.5 -28t-30.5 -13q-10 0 -34 17 q-115 112 -207 219q-23 30 -23 47z" />
<glyph unicode="&#xfa;" horiz-adv-x="1136" d="M152 420q0 52 1 217.5t1 216.5q0 78 65 78q49 0 49 -60q-6 -417 -6 -442q0 -53 8 -101t27 -92t47.5 -76.5t72 -51.5t97.5 -19q96 0 163.5 35t105 101.5t54 148t17.5 188.5l2 299q0 35 15.5 53.5t41.5 18.5q32 0 45 -15t13 -55q0 -6 -2 -87t-3.5 -194t-0.5 -206 q0 -135 14 -320q3 -59 -53 -59q-52 0 -58 61q-6 55 -6 166q-41 -104 -128 -171.5t-220 -67.5q-92 0 -162.5 32t-113.5 90.5t-64.5 137t-21.5 174.5zM442 1169q0 15 17 35q22 25 61 69t71 80.5t68 80.5q21 24 43 24t40 -17t18 -40q0 -14 -23 -41q-101 -115 -211 -219 q-20 -17 -34 -17q-18 0 -34 13t-16 32z" />
<glyph unicode="&#xfb;" horiz-adv-x="1136" d="M152 420q0 52 1 217.5t1 216.5q0 78 65 78q49 0 49 -60q-6 -417 -6 -442q0 -53 8 -101t27 -92t47.5 -76.5t72 -51.5t97.5 -19q96 0 163.5 35t105 101.5t54 148t17.5 188.5l2 299q0 35 15.5 53.5t41.5 18.5q32 0 45 -15t13 -55q0 -6 -2 -87t-3.5 -194t-0.5 -206 q0 -135 14 -320q3 -59 -53 -59q-52 0 -58 61q-6 55 -6 166q-41 -104 -128 -171.5t-220 -67.5q-92 0 -162.5 32t-113.5 90.5t-64.5 137t-21.5 174.5zM305 1149q0 18 23 45q32 35 99.5 111t78.5 88q18 19 30 25.5t33 6.5t32.5 -6t25.5 -22q119 -133 180 -205q27 -31 27 -45 q0 -16 -13 -29.5t-30 -13.5q-9 0 -18.5 5.5t-14.5 10.5l-6 6q-3 3 -183 187q-39 -40 -85 -88.5t-68 -71t-37 -35.5q-15 -12 -33 -12q-12 0 -26.5 14t-14.5 29z" />
<glyph unicode="&#xfc;" horiz-adv-x="1136" d="M152 420q0 52 1 217.5t1 216.5q0 78 65 78q49 0 49 -60q-6 -417 -6 -442q0 -53 8 -101t27 -92t47.5 -76.5t72 -51.5t97.5 -19q96 0 163.5 35t105 101.5t54 148t17.5 188.5l2 299q0 35 15.5 53.5t41.5 18.5q32 0 45 -15t13 -55q0 -6 -2 -87t-3.5 -194t-0.5 -206 q0 -135 14 -320q3 -59 -53 -59q-52 0 -58 61q-6 55 -6 166q-41 -104 -128 -171.5t-220 -67.5q-92 0 -162.5 32t-113.5 90.5t-64.5 137t-21.5 174.5zM322 1268q0 36 26.5 61t65.5 25t62.5 -25t23.5 -63t-27 -62t-70 -24q-35 0 -58 25t-23 63zM633 1270q0 36 26.5 61t65.5 25 t61.5 -26t22.5 -64q0 -39 -26.5 -60.5t-67.5 -21.5q-35 0 -58.5 25t-23.5 61z" />
<glyph unicode="&#xfd;" horiz-adv-x="989" d="M37 -397q0 30 14.5 42.5t52.5 12.5q79 0 115.5 23t91.5 108q37 57 127 242l-94 200l-246 564q-4 9 -11.5 25t-11 24t-6.5 19.5t-3 21.5q0 24 18 38.5t41 14.5q27 0 45 -31q244 -584 330 -774q133 284 313 741q8 23 12.5 32.5t18 19.5t33.5 10q24 0 40.5 -14.5t16.5 -38.5 q0 -17 -8 -37q-36 -90 -81.5 -194.5t-109 -243t-96.5 -209t-110.5 -235.5t-84.5 -179q-66 -119 -134.5 -180.5t-153.5 -61.5q-35 0 -58 3.5t-42 17.5t-19 39zM383 1169q0 16 16 35q23 27 61.5 69t71 79.5t68.5 81.5q21 24 43 24t39.5 -17t17.5 -40q0 -15 -22 -41 q-101 -115 -211 -219q-20 -17 -35 -17q-18 0 -33.5 13t-15.5 32z" />
<glyph unicode="&#xfe;" horiz-adv-x="1159" d="M164 1417q1 30 16.5 44t38.5 14q24 0 42 -13t18 -45q1 -212 0 -336.5t-2 -227.5t-1 -105q52 100 148 150t217 50q123 0 223 -69t152.5 -176t52.5 -226q0 -209 -130.5 -353t-320.5 -144q-113 0 -204 51t-140 143q0 -120 2.5 -309t2.5 -248q0 -30 -15.5 -46.5t-42.5 -16.5 q-15 0 -25 4.5t-15 10t-7.5 20.5t-3 27t-0.5 38l2 852zM270 461q0 -181 93.5 -277t240.5 -96q146 0 248 104.5t102 282.5q0 157 -95.5 261t-233.5 104q-160 0 -257.5 -99.5t-97.5 -279.5z" />
<glyph unicode="&#xff;" horiz-adv-x="989" d="M37 -397q0 30 14.5 42.5t52.5 12.5q79 0 115.5 23t91.5 108q37 57 127 242l-94 200l-246 564q-4 9 -11.5 25t-11 24t-6.5 19.5t-3 21.5q0 24 18 38.5t41 14.5q27 0 45 -31q244 -584 330 -774q133 284 313 741q8 23 12.5 32.5t18 19.5t33.5 10q24 0 40.5 -14.5t16.5 -38.5 q0 -17 -8 -37q-36 -90 -81.5 -194.5t-109 -243t-96.5 -209t-110.5 -235.5t-84.5 -179q-66 -119 -134.5 -180.5t-153.5 -61.5q-35 0 -58 3.5t-42 17.5t-19 39zM262 1268q0 36 26.5 61t65.5 25t62.5 -25t23.5 -63t-26.5 -62t-69.5 -24q-35 0 -58.5 25t-23.5 63zM573 1270 q0 36 27 61t66 25t61.5 -26t22.5 -64t-27 -60t-68 -22q-35 0 -58.5 25t-23.5 61z" />
<glyph unicode="&#x152;" horiz-adv-x="2191" d="M117 657q0 136 36.5 256.5t100.5 209.5t148.5 154t181.5 97t198 31q177 0 314 -76.5t225 -212.5q0 11 -1 67.5t-1 69.5q0 76 24 107t101 31q2 0 33.5 -1t76.5 -1q70 0 249 2t249 2q37 0 51.5 -12.5t14.5 -41.5q0 -27 -13.5 -41t-52.5 -14h-616q-4 -212 -4 -299 q0 -92 0.5 -150.5t1 -81.5t0.5 -28h118q257 0 394 2q44 0 60.5 -9t16.5 -38q0 -27 -13.5 -39t-53.5 -12q-43 0 -275 -1t-247 -1q-2 -6 -2 -17q0 -83 -1 -252.5t-1 -253.5q95 0 608 7q69 0 69 -52q0 -35 -17.5 -49t-59.5 -14q-62 0 -270.5 1t-278.5 1q-52 0 -83 4.5t-50 15.5 t-25 30t-8.5 47.5t0.5 68.5q0 98 2 135q-48 -73 -98.5 -127t-116 -99t-148 -68t-180.5 -23q-127 0 -245.5 48t-210 133.5t-146.5 214t-55 279.5zM225 678q0 -129 45.5 -240t122.5 -186.5t181 -118.5t219 -43q123 0 226 52.5t170.5 141t104.5 203t37 240.5q0 132 -47 241 t-126 180t-182.5 109.5t-217.5 38.5q-102 0 -198 -46t-170.5 -125.5t-119.5 -196.5t-45 -250z" />
<glyph unicode="&#x153;" horiz-adv-x="1744" d="M84 436q0 227 137 369.5t357 142.5q34 0 45 -16q213 -36 301 -232q50 108 149.5 175t212.5 67q107 0 196 -54t138 -139.5t49 -179.5q0 -40 -3 -59.5t-17.5 -38.5t-44.5 -26.5t-82 -8.5q-97 -3 -224 -6t-218 -4t-107 -2q5 -129 90.5 -227.5t222.5 -98.5q71 0 135 26 t107 51.5t61 25.5q19 0 34 -19.5t15 -38.5t-13 -33.5t-44 -35.5q-130 -86 -305 -86q-113 0 -211.5 66.5t-149.5 170.5q-56 -109 -160.5 -174t-238.5 -65q-82 0 -160 33t-138.5 90.5t-97 143t-36.5 183.5zM199 430q0 -97 48 -175.5t119.5 -118.5t147.5 -40q151 0 252.5 99.5 t101.5 269.5q0 163 -87 263t-253 112q-150 -9 -239.5 -117t-89.5 -293zM977 522q145 2 349.5 9t242.5 14q0 129 -79.5 212t-195.5 83q-129 0 -217.5 -96t-99.5 -222z" />
<glyph unicode="&#x178;" horiz-adv-x="1210" d="M59 1337q0 22 18.5 38t41.5 16q10 0 17.5 -2.5t15 -10.5t11 -13t13.5 -21t14 -23q27 -44 100 -161t122 -195t107 -169t91 -139q14 21 49.5 78.5t135.5 218t243 385.5q2 3 6.5 10.5t6.5 10.5t6 8.5t6.5 8.5t6.5 6.5t8 5t9 3t11 1.5q26 0 42.5 -15.5t16.5 -36.5 q0 -15 -27 -59q-79 -119 -238.5 -366.5t-229.5 -352.5q0 -89 -1.5 -257t-1.5 -257q0 -25 -16.5 -38t-38.5 -13q-24 0 -40.5 14.5t-16.5 44.5v136q0 65 2 181t2 181v12q-50 75 -246.5 375t-214.5 328q-31 48 -31 67zM360 1657q0 36 27 61t66 25t62.5 -25t23.5 -63t-27 -62 t-70 -24q-35 0 -58.5 25t-23.5 63zM672 1659q0 36 26.5 61t65.5 25t61.5 -26t22.5 -64q0 -39 -26.5 -60.5t-67.5 -21.5q-35 0 -58.5 25t-23.5 61z" />
<glyph unicode="&#x2c6;" horiz-adv-x="686" d="M80 1149q0 19 22 45q13 14 179 199q18 19 30 25.5t33 6.5t31.5 -6t25.5 -22q136 -152 181 -205q26 -30 26 -45q0 -16 -13 -29.5t-30 -13.5q-9 0 -18.5 5.5t-14.5 10.5l-6 6q-23 22 -48 48l-62.5 65t-71.5 74q-39 -40 -85 -88.5t-68 -71t-37 -35.5q-15 -12 -33 -12 q-13 0 -27 14t-14 29z" />
<glyph unicode="&#x2dc;" horiz-adv-x="751" d="M84 1229q4 68 52 110.5t118 42.5q35 0 65 -13t51.5 -31.5t42 -37t46 -32.5t53.5 -15q30 0 47 25.5t19 67.5q1 19 16 29.5t31 10.5q20 0 32.5 -10.5t12.5 -29.5q0 -91 -45.5 -135t-120.5 -44q-36 1 -67 14t-52 31t-41 35.5t-44 30.5t-50 14q-66 0 -74 -80q-3 -38 -51 -38 q-21 0 -32 16t-9 39z" />
<glyph unicode="&#x2000;" horiz-adv-x="924" />
<glyph unicode="&#x2001;" horiz-adv-x="1849" />
<glyph unicode="&#x2002;" horiz-adv-x="924" />
<glyph unicode="&#x2003;" horiz-adv-x="1849" />
<glyph unicode="&#x2004;" horiz-adv-x="616" />
<glyph unicode="&#x2005;" horiz-adv-x="462" />
<glyph unicode="&#x2006;" horiz-adv-x="308" />
<glyph unicode="&#x2007;" horiz-adv-x="308" />
<glyph unicode="&#x2008;" horiz-adv-x="231" />
<glyph unicode="&#x2009;" horiz-adv-x="369" />
<glyph unicode="&#x200a;" horiz-adv-x="102" />
<glyph unicode="&#x2010;" horiz-adv-x="710" d="M88 489q0 27 17.5 39.5t60.5 12.5h393q64 0 64 -43q0 -34 -17 -47t-69 -13h-392q-57 0 -57 51z" />
<glyph unicode="&#x2011;" horiz-adv-x="710" d="M88 489q0 27 17.5 39.5t60.5 12.5h393q64 0 64 -43q0 -34 -17 -47t-69 -13h-392q-57 0 -57 51z" />
<glyph unicode="&#x2012;" horiz-adv-x="710" d="M88 489q0 27 17.5 39.5t60.5 12.5h393q64 0 64 -43q0 -34 -17 -47t-69 -13h-392q-57 0 -57 51z" />
<glyph unicode="&#x2013;" horiz-adv-x="1024" d="M23 494q2 27 21.5 38t68.5 11q82 0 446 -1t385 -1q28 0 42.5 -12.5t14.5 -32.5q0 -33 -18.5 -45.5t-71.5 -12.5h-835q-28 0 -41.5 17t-11.5 39z" />
<glyph unicode="&#x2014;" horiz-adv-x="2048" d="M57 494q2 27 22 39t68 12q82 0 924.5 -1t863.5 -1q28 0 42 -13.5t14 -33.5q0 -33 -17.5 -44.5t-70.5 -11.5h-1792q-28 0 -42 16.5t-12 37.5z" />
<glyph unicode="&#x2018;" horiz-adv-x="387" d="M80 1186q0 59 41.5 125.5t101.5 101.5q16 8 25 8q15 0 27 -10.5t12 -26.5q0 -18 -21 -34q-33 -23 -54.5 -53t-21.5 -52v-10h5q29 0 54 -23t25 -59q0 -38 -26.5 -66t-65.5 -28q-47 0 -74.5 35t-27.5 92z" />
<glyph unicode="&#x2019;" horiz-adv-x="387" d="M88 1096q0 18 21 34q33 23 54 53t21 52v10h-4q-29 0 -54.5 23t-25.5 59q0 38 27 66t66 28q47 0 74.5 -35t27.5 -92q0 -59 -41.5 -125.5t-101.5 -101.5q-16 -8 -25 -8q-15 0 -27 10.5t-12 26.5z" />
<glyph unicode="&#x201a;" horiz-adv-x="387" d="M88 -150q0 19 21 35q33 23 54 53t21 52v10h-4q-29 0 -54.5 23t-25.5 59q0 38 27 66t66 28q47 0 74.5 -35t27.5 -92q0 -59 -41.5 -125.5t-101.5 -101.5q-16 -8 -25 -8q-15 0 -27 10t-12 26z" />
<glyph unicode="&#x201c;" horiz-adv-x="661" d="M80 1184q0 59 41.5 125.5t101.5 101.5q16 8 25 8q15 0 27 -10.5t12 -26.5q0 -18 -21 -34q-33 -23 -54.5 -53t-21.5 -52v-10h5q29 0 54 -23t25 -59q0 -38 -26.5 -66t-65.5 -28q-47 0 -74.5 35t-27.5 92zM358 1184q0 59 42 125.5t102 101.5q16 8 24 8q15 0 27 -10.5 t12 -26.5q0 -19 -20 -34q-33 -23 -54.5 -53t-21.5 -52v-10h4q29 0 54.5 -23t25.5 -59q0 -38 -26.5 -66t-65.5 -28q-47 0 -75 35t-28 92z" />
<glyph unicode="&#x201d;" horiz-adv-x="665" d="M88 1094q0 18 21 34q33 23 54 53t21 52v10h-4q-29 0 -54.5 23t-25.5 59q0 38 27 66t66 28q47 0 74.5 -35t27.5 -92q0 -59 -41.5 -125.5t-101.5 -101.5q-16 -8 -25 -8q-15 0 -27 10.5t-12 26.5zM367 1094q0 19 20 34q33 23 54.5 53t21.5 52v10h-4q-29 0 -54.5 23t-25.5 59 q0 38 26.5 66t65.5 28q47 0 74.5 -35t27.5 -92q0 -59 -41.5 -125.5t-101.5 -101.5q-16 -8 -24 -8q-15 0 -27 10.5t-12 26.5z" />
<glyph unicode="&#x201e;" horiz-adv-x="663" d="M88 -150q0 19 21 35q33 23 54 53t21 52v10h-4q-29 0 -54.5 23t-25.5 59q0 38 27 66t66 28q47 0 74.5 -35t27.5 -92q0 -59 -41.5 -125.5t-101.5 -101.5q-16 -8 -25 -8q-15 0 -27 10t-12 26zM365 -150q0 20 20 35q33 23 54.5 53t21.5 52v10h-4q-29 0 -54.5 23t-25.5 59 q0 38 26.5 66t65.5 28q47 0 74.5 -35t27.5 -92q0 -59 -41.5 -125.5t-101.5 -101.5q-16 -8 -25 -8q-15 0 -26.5 10t-11.5 26z" />
<glyph unicode="&#x2022;" horiz-adv-x="684" d="M53 483q0 129 83.5 206t211.5 77q126 0 203.5 -81.5t77.5 -205.5q0 -126 -83.5 -201t-211.5 -75t-204.5 75t-76.5 205z" />
<glyph unicode="&#x2026;" horiz-adv-x="1179" d="M102 86q0 38 29 64t70 26q40 0 65 -27.5t25 -66.5q0 -41 -29 -63.5t-72 -22.5q-37 0 -62.5 26t-25.5 64zM496 86q0 38 28.5 64t69.5 26q40 0 65 -27.5t25 -66.5q0 -41 -28.5 -63.5t-71.5 -22.5q-37 0 -62.5 26t-25.5 64zM889 86q0 38 28.5 64t69.5 26q40 0 65 -27.5 t25 -66.5q0 -41 -28.5 -63.5t-71.5 -22.5q-37 0 -62.5 26t-25.5 64z" />
<glyph unicode="&#x202f;" horiz-adv-x="369" />
<glyph unicode="&#x2039;" horiz-adv-x="526" d="M72 492q0 15 4.5 26t8.5 16t21 23q39 42 128 132.5t118 121.5q23 23 41 23q16 0 31.5 -12.5t15.5 -30.5q0 -22 -30 -56l-215 -243l225 -248q33 -33 33 -54q0 -17 -16.5 -31t-35.5 -14q-18 0 -49 31l-241 242q-23 23 -31 37.5t-8 36.5z" />
<glyph unicode="&#x203a;" horiz-adv-x="526" d="M72 184q0 22 32 54l226 247l-215 244q-31 36 -31 55q0 18 15.5 30.5t31.5 12.5q19 0 41 -22q29 -31 118 -121.5t128 -132.5q28 -30 32 -43q3 -9 3 -23q0 -22 -8 -36t-31 -37l-242 -242q-31 -31 -49 -31q-19 0 -35 14t-16 31z" />
<glyph unicode="&#x205f;" horiz-adv-x="462" />
<glyph unicode="&#x20ac;" horiz-adv-x="1179" d="M41 541q0 49 76 49h104q-2 20 -2 63q0 61 6 119h-92q-65 0 -65 47q0 55 71 55h103q53 241 213 381t364 140q122 0 234 -41q28 -10 38.5 -24t10.5 -36q0 -51 -47 -51q-18 0 -52 11.5t-85 22.5t-111 11q-163 0 -282.5 -119t-168.5 -295q249 3 475 3q60 0 60 -48 q0 -28 -13 -41.5t-47 -13.5h-493q-6 -50 -6 -106q0 -53 2 -78q80 0 236.5 1t236.5 1q55 0 55 -51q0 -32 -21 -44t-69 -12q-260 0 -424 2q40 -186 160.5 -286.5t316.5 -100.5q51 0 104.5 14t92 27t55.5 11q16 -2 30.5 -19t14.5 -37q0 -48 -91 -78t-220 -30q-228 0 -382.5 131 t-195.5 368q-16 0 -57 1t-59 1q-76 0 -76 52z" />
<glyph unicode="&#x2122;" horiz-adv-x="1359" d="M33 1346q0 40 39 40l221 -2q9 0 80.5 1t136.5 1q24 0 32.5 -7.5t8.5 -26.5q0 -24 -10 -32.5t-35 -8.5h-172l2 -430q0 -17 1 -57t1 -64q0 -49 -45 -49q-37 0 -37 45v372v183q-94 0 -186 -2q-37 0 -37 37zM569 754q23 134 80 598q3 14 18.5 23t30.5 9q32 0 45 -41l181 -501 l184 489q9 23 20 35.5t29 19.5h10q26 0 37 -18l64 -514l12 -96q2 -24 -6 -36.5t-31 -12.5q-35 0 -39 36l-55 504l-178 -471q-21 -43 -53 -43q-17 0 -25.5 10t-15.5 31l-170 475l-62 -508q-4 -32 -37 -32q-20 0 -30.5 12.5t-8.5 30.5z" />
<glyph unicode="&#x25fc;" horiz-adv-x="931" d="M0 0v932h932v-932h-932z" />
</font>
</defs>
</svg>
