<svg xmlns="http://www.w3.org/2000/svg" viewBox="0 0 546.5 421.6"><path d="M468.9 341.6h-2v-20.9c0-.5-.5-12.3-11.9-15.1-.1 3.6.3 14.7 9.3 16.6l-.4 2c-12.5-2.7-10.9-19.7-10.8-19.9l.1-1.1 1.1.2c14 2.6 14.6 17.1 14.6 17.3v20.9zm28.8.5h-2v-12.6c0-.2.6-14.7 14.6-17.3l1.1-.2.1 1.1c0 .2 1.6 17.2-10.8 19.9l-.4-2c9-1.9 9.4-13 9.3-16.6-11.4 2.9-11.9 15-11.9 15.1v12.6zm-18.3-.5h-2v-57.3c0-.2.2-18.9 13.5-19.8h.6l.3.6c2.3 4.1.6 15.6-8.8 21.4l-1.1-1.7c8.5-5.3 9.5-14.8 8.3-18.2-10.8 1.4-10.9 17.6-10.9 17.8v57.2zm9.6.5h-2v-40.3c0-.2.6-4 3-7.9 2.2-3.7 6.5-8 14.4-8h1v1c-.3 7.5-4.4 13.1-12.5 17.2l-.9-1.8c7-3.5 10.7-8.2 11.3-14.4-5 .3-8.9 2.6-11.5 7-2 3.3-2.6 6.7-2.7 7.1v40.1z" fill="#5BBC2E"/><path fill="#F9F9F9" d="M508.1 401.1l15-59H444l13.8 59"/><path fill="#B2B2B2" d="M509 401.3l-1.9-.5 14.7-57.7h-76.5l13.5 57.8-2 .4-14.1-60.2h81.7z"/><path fill="none" d="M248.9 381.7c-1.6 9.3-4 15.5-7.2 18.7h71.1c-3.1-3.1-5.5-9.4-7.2-18.7-1-5.9-1.5-11.5-1.7-14.7h-53.4c-.1 3.2-.5 8.9-1.6 14.7z"/><path fill="#B2B2B2" d="M305.8 381.7c1.6 9.3 4 15.5 7.2 18.7h-71.1c3.1-3.1 5.5-9.4 7.2-18.7 1-5.9 1.5-11.5 1.7-14.7h-2c-.6 10.4-3.3 30.8-10.5 33.4l-5.3 1.9h88.9l-5.3-1.9c-7.2-2.6-9.8-23.1-10.5-33.4h-2c.2 3.2.6 8.9 1.7 14.7z"/><path fill="#fff" d="M394.6 357.4c-2.3 0-4.2-1.9-4.2-4.2s1.9-4.2 4.2-4.2 4.2 1.9 4.2 4.2-1.9 4.2-4.2 4.2zm5.8-12.8H154.5V203h245.8v141.6z"/><path fill="#B2B2B2" d="M405.7 187H149c-5 0-9.1 4.1-9.1 9.1V358c0 5 4.1 9.1 9.1 9.1h99.7c0-.3 0-.7.1-1H149c-4.5 0-8.1-3.6-8.1-8.1V196.1c0-4.5 3.6-8.1 8.1-8.1h256.8c4.5 0 8.1 3.6 8.1 8.1V358c0 4.5-3.6 8.1-8.1 8.1H306c0 .3 0 .7.1 1h99.7c5 0 9.1-4.1 9.1-9.1V196.1c-.1-5-4.2-9.1-9.2-9.1zM250.6 367.1H304c0-.4 0-.7-.1-1h-53.3c.1.3.1.6 0 1zm53.4-1c0 .3 0 .6.1 1h2c0-.3 0-.7-.1-1h-2zm-53.3 0h-2c0 .3 0 .7-.1 1h2c.1-.4.1-.7.1-1zm0-.6v.5H304v-.5h-53.3zm-101.7-.4c-3.9 0-7.1-3.2-7.1-7.1V196.1c0-3.9 3.2-7.1 7.1-7.1h256.8c3.9 0 7.1 3.2 7.1 7.1V358c0 3.9-3.2 7.1-7.1 7.1H306v1h99.7c4.5 0 8.1-3.6 8.1-8.1V196.1c0-4.5-3.6-8.1-8.1-8.1H149c-4.5 0-8.1 3.6-8.1 8.1V358c0 4.5 3.6 8.1 8.1 8.1h99.7v-1H149zm101.7.4H304v.5h2v-1h-57.2v1h2c-.1-.1-.1-.3-.1-.5z"/><path fill="#fff" d="M156.5 205h241.8v137.6H156.5z"/><path fill="#B2B2B2" d="M154.5 344.6h245.8V203H154.5v141.6zm1-140.6h243.8v139.6H155.5V204zm243.9 0H155.5v139.6h243.8V204zm-1 138.6H156.5V205h241.8v137.6z"/><circle fill="#fff" cx="394.6" cy="353.2" r="2.2"/><path fill="#B2B2B2" d="M394.6 349c-2.3 0-4.2 1.9-4.2 4.2s1.9 4.2 4.2 4.2 4.2-1.9 4.2-4.2-1.9-4.2-4.2-4.2zm0 7.4c-1.8 0-3.2-1.4-3.2-3.2 0-1.8 1.4-3.2 3.2-3.2 1.8 0 3.2 1.4 3.2 3.2 0 1.8-1.5 3.2-3.2 3.2zm0-6.4c-1.8 0-3.2 1.4-3.2 3.2 0 1.8 1.4 3.2 3.2 3.2 1.8 0 3.2-1.4 3.2-3.2 0-1.7-1.5-3.2-3.2-3.2zm0 5.4c-1.2 0-2.2-1-2.2-2.2s1-2.2 2.2-2.2 2.2 1 2.2 2.2-1 2.2-2.2 2.2zm144.5 45H91.7c1.7-1.4 2.8-3.5 2.8-6v-11.1h3c6 0 10.4-4.4 10.4-10.4s-4.4-10.4-10.4-10.4h-3v-5.4h-2.1l5.2-13.8c3.2-.3 5.7-3.2 6.2-7.4.6-5.2-2-11.7-9.2-13.4l-2.5-.6 1.4 2.1c2.1 3.3.5 5.3-1.2 7.5-.7.9-1.4 1.7-1.7 2.6-.7 1.7-.8 3.5-.1 5 .4.8.9 1.6 1.6 2.2l-8.2 15v-34.1H65.7V357h-1.1l-7.9-15.8-11.3-6.2 1.6 12.9 4.7 9.4h-2.1v37.2c0 2.5 1.1 4.6 2.8 6h-45c-4.1 0-7.4 3.3-7.4 7.4v6.3c0 4.1 3.3 7.5 7.4 7.5H539c4.1 0 7.4-3.3 7.4-7.5v-6.3c.1-4.1-3.2-7.5-7.3-7.5zM97.5 364.6c4.9 0 8.4 3.4 8.4 8.4s-3.4 8.4-8.4 8.4h-3v-16.8h3zm-5.1-29.5c.3-.6.8-1.4 1.5-2.1 1.5-1.9 3.4-4.3 2.4-7.6 4.4 2.1 6 6.7 5.6 10.5-.3 2.6-1.7 5.6-4.8 5.6-.7 0-1.4-.2-2.2-.5-1.2-.5-2.1-1.4-2.6-2.4s-.5-2.3.1-3.5zm1.6 7.7c.5.2 1 .4 1.5.5l-5.3 13.9h-4.6l8-14.6c.2.1.3.2.4.2zm-26.3-18.4h14.1v6h-7v2h7v3.4h-4.4v2h4.4v3.4h-7v2h7v6h-4.4v2h4.4v6H67.7v-32.8zm-13.6 17.9l-5.3 3.6-.9-7.1 6.2 3.5zm-4.9 5.6l6.4-4.2 6.8 13.6h-8.5l-4.7-9.4zm2.4 46.5v-35.2h41v35.2c0 3.3-2.4 5.7-5.7 5.7H57.3c-3.2 0-5.7-2.5-5.7-5.7zm492.9 19.8c0 3-2.4 5.5-5.4 5.5H7.4c-3 0-5.4-2.4-5.4-5.5v-6.3c0-3 2.4-5.4 5.4-5.4H539c3 0 5.4 2.4 5.4 5.4v6.3z"/><circle fill="#fff" cx="77" cy="61.8" r="60.8"/><path fill="#B2B2B2" d="M77 123.6c-34.1 0-61.8-27.7-61.8-61.8S42.9 0 77 0s61.8 27.7 61.8 61.8-27.7 61.8-61.8 61.8zM77 2C44 2 17.2 28.8 17.2 61.8S44 121.6 77 121.6s59.8-26.8 59.8-59.8S110 2 77 2z"/><path fill="#fff" d="M77 11.4v10.8"/><path fill="#B2B2B2" d="M77 23.2c-.6 0-1-.4-1-1V11.4c0-.6.4-1 1-1s1 .4 1 1v10.8c0 .5-.4 1-1 1z"/><path fill="#fff" d="M112.7 26.1l-7.7 7.7"/><path fill="#B2B2B2" d="M105 34.8c-.3 0-.5-.1-.7-.3-.4-.4-.4-1 0-1.4l7.6-7.6c.4-.4 1-.4 1.4 0s.4 1 0 1.4l-7.6 7.6c-.2.2-.4.3-.7.3z"/><path fill="#fff" d="M127.4 61.8h-10.8"/><path fill="#B2B2B2" d="M127.4 62.8h-10.8c-.6 0-1-.4-1-1s.4-1 1-1h10.8c.6 0 1 .4 1 1s-.4 1-1 1z"/><path fill="#fff" d="M112.7 97.5l-7.7-7.7"/><path fill="#B2B2B2" d="M112.7 98.5c-.3 0-.5-.1-.7-.3l-7.6-7.6c-.4-.4-.4-1 0-1.4s1-.4 1.4 0l7.6 7.6c.4.4.4 1 0 1.4-.2.2-.5.3-.7.3z"/><path fill="#fff" d="M77 112.2v-10.8"/><path fill="#B2B2B2" d="M77 113.2c-.6 0-1-.4-1-1v-10.8c0-.6.4-1 1-1s1 .4 1 1v10.8c0 .6-.4 1-1 1z"/><path fill="#fff" d="M41.3 97.5l7.7-7.7"/><path fill="#B2B2B2" d="M41.3 98.5c-.3 0-.5-.1-.7-.3-.4-.4-.4-1 0-1.4l7.6-7.6c.4-.4 1-.4 1.4 0s.4 1 0 1.4L42 98.2c-.2.2-.4.3-.7.3z"/><path fill="#fff" d="M26.6 61.8h10.8"/><path fill="#B2B2B2" d="M37.4 62.8H26.6c-.6 0-1-.4-1-1s.4-1 1-1h10.8c.6 0 1 .4 1 1s-.5 1-1 1z"/><path fill="#fff" d="M41.3 26.1l7.7 7.7"/><path fill="#B2B2B2" d="M49 34.8c-.3 0-.5-.1-.7-.3l-7.6-7.6c-.4-.4-.4-1 0-1.4s1-.4 1.4 0l7.6 7.6c.4.4.4 1 0 1.4-.2.2-.5.3-.7.3z"/><path fill="#fff" d="M77 61.8v-28"/><path fill="#B2B2B2" d="M77 62.8c-.6 0-1-.4-1-1v-28c0-.6.4-1 1-1s1 .4 1 1v28c0 .6-.4 1-1 1z"/><path fill="#fff" d="M77 61.8v-28"/><path fill="#B2B2B2" d="M77 62.8c-.6 0-1-.4-1-1v-28c0-.6.4-1 1-1s1 .4 1 1v28c0 .6-.4 1-1 1z"/><path fill="#fff" d="M77 61.8l24.5 13.7"/><path fill="#B2B2B2" d="M101.5 76.5c-.2 0-.3 0-.5-.1L76.5 62.7c-.5-.3-.7-.9-.4-1.4.3-.5.9-.7 1.4-.4L102 74.6c.5.3.7.9.4 1.4-.3.3-.6.5-.9.5z"/><circle fill="#5BBC2E" cx="277.4" cy="274.7" r="41.3"/><path fill="#fff" d="M273.2 296.9c-.3 0-.5-.1-.7-.3L259 284c-.4-.4-.4-1 0-1.4.4-.4 1-.4 1.4 0l12.8 11.9 27.4-35.4c.3-.4 1-.5 1.4-.2.4.3.5 1 .2 1.4L274 296.5c-.1.3-.4.4-.8.4.1 0 .1 0 0 0z"/></svg>