<svg xmlns="http://www.w3.org/2000/svg" viewBox="0 0 328.2 420.2"><path fill="#B2B2B2" d="M207.2 306.8h-16.7c-.6 0-1-.4-1-1v-28.1c-9.7-3.8-16.2-13.3-16.2-23.8 0-14.1 11.5-25.6 25.6-25.6 14.1 0 25.6 11.5 25.6 25.6 0 10.5-6.5 20-16.2 23.8v28.1c-.1.5-.5 1-1.1 1zm-15.7-2h14.7V277c0-.4.3-.8.7-.9 9.3-3.4 15.6-12.3 15.6-22.2 0-13-10.6-23.6-23.6-23.6-13 0-23.6 10.6-23.6 23.6 0 9.9 6.2 18.8 15.5 22.2.4.1.7.5.7.9v27.8z"/><path fill="none" d="M152.7 343.8c0 11.7-2.6 22.8-7.3 32.7h174.7c3.4 0 6.1-2.8 6.1-6.1V175.6c0-3.4-2.8-6.1-6.1-6.1H77.6c-3.4 0-6.1 2.8-6.1 6.1v92.1c1.6-.1 3.2-.2 4.8-.2 42.2 0 76.4 34.2 76.4 76.3z"/><path fill="#B2B2B2" d="M320.1 167.4h-10.6v-56.8C309.5 49.6 259.9 0 198.8 0S88.2 49.6 88.2 110.6v56.8H77.6c-4.5 0-8.1 3.7-8.1 8.1v92.2c.7-.1 1.3-.1 2-.2v-92.1c0-3.4 2.8-6.1 6.1-6.1H320c3.4 0 6.1 2.8 6.1 6.1v194.8c0 3.4-2.8 6.1-6.1 6.1H145.3c-.3.7-.7 1.3-1 2H320c4.5 0 8.1-3.7 8.1-8.1V175.6c.1-4.5-3.5-8.2-8-8.2zm-43.3 0H120.9v-56.8c0-43 35-77.9 77.9-77.9s77.9 35 77.9 77.9v56.8zm-78-136.7c-44.1 0-79.9 35.9-79.9 79.9v56.8H90.2v-56.8C90.2 50.7 138.9 2 198.8 2s108.6 48.7 108.6 108.6v56.8h-28.7v-56.8c.1-44-35.8-79.9-79.9-79.9z"/><path fill="#5BBC2E" d="M76.3 267.5c-1.6 0-3.2.1-4.8.2-.7 0-1.3.1-2 .2C30.5 271.3 0 304 0 343.8c0 42.2 34.2 76.3 76.3 76.3 29.7 0 55.4-16.9 68-41.6.3-.7.7-1.3 1-2 4.7-9.9 7.3-21 7.3-32.7.1-42.1-34.1-76.3-76.3-76.3z"/><path fill="none" d="M106.6 366.1c.3-17.3-14-20.2-29.2-23.2v43.8c14-.2 29-8.1 29.2-20.6zm-50-60.7c-4.4 3.1-9.3 8.9-7.5 18.7 2.2 11.6 13.9 14.4 26.6 16.9v-41c-7 0-14 1.9-19.1 5.4z"/><path fill="#fff" d="M49.2 324.2c-1.8-9.9 3-15.6 7.5-18.7 5.1-3.6 12.1-5.4 19.1-5.4v-1.6c-7.4 0-14.7 1.9-20 5.7-6.8 4.8-9.7 12-8.1 20.3 2.4 12.8 15.3 15.7 28.2 18.2V341c-12.9-2.5-24.6-5.2-26.7-16.8zm28.2 17.1v1.6c15.2 3 29.5 5.9 29.2 23.2-.2 12.5-15.2 20.4-29.2 20.6v1.6c7.6-.1 15.1-2.3 20.8-6 6.4-4.2 10-9.9 10.1-16.2.2-18.7-15.6-21.8-30.9-24.8zm17-36.7c5.3 3.1 11.3 9 10.2 19.6l1.6.2c.9-8.9-3-16.5-11-21.2-5.1-3-11.5-4.6-17.9-4.8v1.6c6.1.2 12.2 1.7 17.1 4.6zM46.1 358h-1.6c.5 22 16.9 30.1 31.3 30.4v-1.6c-21.4-.4-29.4-15.1-29.7-28.8zm31.3-63.9h-1.6v4.3h1.6v-4.3zM75.7 341c.5.1 1.1.2 1.6.3V300h-1.6v41zm1 45.8h.7V343c-.1 0-.2 0-.3-.1-.4-.1-.8-.2-1.3-.2v44.1h.9c-.1 0-.1 0 0 0zm-.1 1.6h-.8v5.3h1.6v-5.3h-.8zm.8-88.4v-1.6h-1.6v1.6h1.6zm-.7 86.8c-.1 0-.1 0 0 0h-.9v1.6h1.6v-1.6h-.7zm.7-43.8v-1.6c-.5-.1-1.1-.2-1.6-.3v1.6c.4.1.8.2 1.3.2 0 0 .1 0 .3.1z"/></svg>